<?xml version="1.0" standalone="no"?>
<!DOCTYPE svg PUBLIC "-//W3C//DTD SVG 1.1//EN" "http://www.w3.org/Graphics/SVG/1.1/DTD/svg11.dtd" >
<svg xmlns="http://www.w3.org/2000/svg" xmlns:xlink="http://www.w3.org/1999/xlink" version="1.1">
<metadata>
Created by FontForge 20200427 at Tue Mar 21 16:28:59 2017
 By www
(c) 2011 Klim Type Foundry. All rights reserved.
</metadata>
<defs>
<font id="UntitledSans-Light" horiz-adv-x="565" >
  <font-face 
    font-family="Copyright Klim Type Foundry"
    font-weight="300"
    font-stretch="normal"
    units-per-em="1000"
    panose-1="2 11 3 3 3 2 2 6 2 3"
    ascent="800"
    descent="-200"
    x-height="500"
    cap-height="714"
    bbox="-196 -219 1043 954"
    underline-thickness="40"
    underline-position="-120"
    unicode-range="U+000D-F6C3"
  />
<missing-glyph horiz-adv-x="1178" 
d="M959 469q8 0 15.5 1t17.5 3v-55q-13 -4 -24.5 -6t-28.5 -2q-42 0 -63 21t-21 63v125h-36v52h36v65h74v-65h57v-52h-57v-116q0 -17 7.5 -25.5t22.5 -8.5zM245 671h75v-40q10 22 31 34.5t48 12.5q45 0 70 -26t25 -73v-165h-75v148q0 29 -12 44t-35 15q-25 0 -38.5 -17.5
t-13.5 -50.5v-139h-75v257zM667 409q-61 0 -97.5 36.5t-36.5 98.5q0 61 36.5 97.5t97.5 36.5q60 0 96.5 -36.5t36.5 -97.5t-36.5 -98t-96.5 -37zM667 624q-29 0 -44.5 -20.5t-15.5 -59.5q0 -40 15.5 -61t44.5 -21q27 0 42.5 21.5t15.5 60.5q0 38 -15 59t-43 21zM185 414h-85
v85h85v-85zM992 358v-55q-10 2 -17.5 3t-15.5 1q-15 0 -22.5 -8.5t-7.5 -25.5v-15h57v-52h-57v-206h-74v206h-36v52h36v24q0 42 21 63t63 21q17 0 28.5 -2t24.5 -6zM494 0h-74v41q-10 -21 -31.5 -34t-48.5 -13q-51 0 -82 37t-31 98q0 60 31 97.5t82 37.5q25 0 46.5 -12.5
t32.5 -33.5v145h75v-363zM722 81h72q-12 -42 -44 -64.5t-81 -22.5q-61 0 -98.5 36.5t-37.5 97.5q0 60 38.5 97.5t97.5 37.5t94 -36t35 -94v-23h-193q4 -31 20 -47t44 -16q21 0 34 8.5t19 25.5zM669 211q-25 0 -41 -14.5t-21 -41.5h118q-1 25 -16 40.5t-40 15.5zM361 47
q28 0 44 20.5t16 56.5v9q0 36 -16 56.5t-44 20.5t-44 -21.5t-16 -59.5t16 -60t44 -22z" />
    <glyph glyph-name="f_idieresis" unicode="f&#xef;" horiz-adv-x="552" 
d="M107 0v453h-74v47h74v78q0 75 42 118t115 43q19 0 41 -4.5t33 -11.5v-49q-12 6 -34.5 10t-44.5 4q-49 0 -72 -27.5t-23 -86.5v-74h110v-47h-110v-453h-57zM532 615h-67v88h67v-88zM398 0v500h59v-500h-59z" />
    <glyph glyph-name=".notdef" horiz-adv-x="1178" 
d="M959 469q8 0 15.5 1t17.5 3v-55q-13 -4 -24.5 -6t-28.5 -2q-42 0 -63 21t-21 63v125h-36v52h36v65h74v-65h57v-52h-57v-116q0 -17 7.5 -25.5t22.5 -8.5zM245 671h75v-40q10 22 31 34.5t48 12.5q45 0 70 -26t25 -73v-165h-75v148q0 29 -12 44t-35 15q-25 0 -38.5 -17.5
t-13.5 -50.5v-139h-75v257zM667 409q-61 0 -97.5 36.5t-36.5 98.5q0 61 36.5 97.5t97.5 36.5q60 0 96.5 -36.5t36.5 -97.5t-36.5 -98t-96.5 -37zM667 624q-29 0 -44.5 -20.5t-15.5 -59.5q0 -40 15.5 -61t44.5 -21q27 0 42.5 21.5t15.5 60.5q0 38 -15 59t-43 21zM185 414h-85
v85h85v-85zM992 358v-55q-10 2 -17.5 3t-15.5 1q-15 0 -22.5 -8.5t-7.5 -25.5v-15h57v-52h-57v-206h-74v206h-36v52h36v24q0 42 21 63t63 21q17 0 28.5 -2t24.5 -6zM494 0h-74v41q-10 -21 -31.5 -34t-48.5 -13q-51 0 -82 37t-31 98q0 60 31 97.5t82 37.5q25 0 46.5 -12.5
t32.5 -33.5v145h75v-363zM722 81h72q-12 -42 -44 -64.5t-81 -22.5q-61 0 -98.5 36.5t-37.5 97.5q0 60 38.5 97.5t97.5 37.5t94 -36t35 -94v-23h-193q4 -31 20 -47t44 -16q21 0 34 8.5t19 25.5zM669 211q-25 0 -41 -14.5t-21 -41.5h118q-1 25 -16 40.5t-40 15.5zM361 47
q28 0 44 20.5t16 56.5v9q0 36 -16 56.5t-44 20.5t-44 -21.5t-16 -59.5t16 -60t44 -22z" />
    <glyph glyph-name=".null" horiz-adv-x="0" 
 />
    <glyph glyph-name="nonmarkingreturn" unicode="&#xd;" horiz-adv-x="221" 
 />
    <glyph glyph-name="NULL" horiz-adv-x="0" 
 />
    <glyph glyph-name="NULL" horiz-adv-x="0" 
 />
    <glyph glyph-name="space" unicode=" " horiz-adv-x="220" 
 />
    <glyph glyph-name="exclam" unicode="!" horiz-adv-x="297" 
d="M126 207l-12 507h70l-12 -507h-46zM192 0h-87v87h87v-87z" />
    <glyph glyph-name="quotedbl" unicode="&#x22;" horiz-adv-x="392" 
d="M297 472h-49l-9 264h66zM145 472h-49l-9 264h66z" />
    <glyph glyph-name="numbersign" unicode="#" horiz-adv-x="722" 
d="M418 40h-55l49 196h-166l-49 -196h-56l49 196h-124l9 46h127l41 163h-133l8 47h137l49 196h56l-49 -196h166l49 196h55l-49 -196h124l-8 -47h-128l-41 -163h134l-9 -46h-137zM299 445l-41 -163h166l41 163h-166z" />
    <glyph glyph-name="dollar" unicode="$" horiz-adv-x="648" 
d="M579 192q0 -83 -63 -139.5t-162 -62.5v-99h-52v100q-107 9 -173 67t-70 150h57q7 -71 55.5 -113t130.5 -50v291l-48 10q-90 19 -131 63t-41 118q0 84 61 139t159 59v94h52v-96q94 -8 147.5 -55t62.5 -129h-57q-7 56 -46.5 89t-106.5 41v-284l55 -11q87 -19 128.5 -63.5
t41.5 -118.5zM139 527q0 -53 29 -81t102 -43l32 -7v275q-75 -4 -119 -43t-44 -101zM522 190q0 54 -32.5 85t-100.5 44l-35 7v-282q77 4 122.5 43.5t45.5 102.5z" />
    <glyph glyph-name="percent" unicode="%" horiz-adv-x="836" 
d="M230 416q-63 0 -108.5 45.5t-45.5 109.5t45.5 109.5t108.5 45.5q65 0 110.5 -45t45.5 -110t-45.5 -110t-110.5 -45zM163 1l450 713h62l-450 -713h-62zM230 675q-42 0 -71.5 -30.5t-29.5 -73.5q0 -44 29.5 -74t71.5 -30q44 0 73.5 30t29.5 74t-30 74t-73 30zM604 -13
q-64 0 -109 45t-45 109t45.5 110t108.5 46q65 0 110.5 -45.5t45.5 -110.5q0 -64 -45.5 -109t-110.5 -45zM604 246q-42 0 -71.5 -30.5t-29.5 -74.5q0 -43 29.5 -73t71.5 -30q44 0 73.5 30t29.5 73q0 44 -30 74.5t-73 30.5z" />
    <glyph glyph-name="ampersand" unicode="&#x26;" horiz-adv-x="712" 
d="M687 0h-79l-85 85q-47 -47 -107.5 -72t-128.5 -25q-98 0 -162 54t-64 139q0 64 36 110.5t127 93.5q-47 50 -67 90t-20 82q0 73 50 121t129 48q78 0 124 -43.5t46 -115.5q0 -57 -38.5 -101.5t-131.5 -90.5l209 -211q26 39 41.5 87.5t19.5 103.5h54q-4 -64 -24.5 -122
t-55.5 -105zM317 675q-52 0 -85.5 -32t-33.5 -85q0 -34 18 -67t64 -79q84 39 116 73.5t32 82.5q0 45 -31.5 76t-79.5 31zM121 183q0 -61 48.5 -102t117.5 -41q60 0 111 20.5t90 59.5l-228 228q-79 -40 -109 -77t-30 -88z" />
    <glyph glyph-name="quotesingle" unicode="'" horiz-adv-x="240" 
d="M145 472h-49l-9 264h66z" />
    <glyph glyph-name="parenleft" unicode="(" horiz-adv-x="374" 
d="M148 314q0 -106 41.5 -214t119.5 -208h-59q-80 100 -120.5 206.5t-40.5 215.5t41 216t120 206h59q-79 -108 -120 -215t-41 -207z" />
    <glyph glyph-name="parenright" unicode=")" horiz-adv-x="374" 
d="M226 314q0 100 -41 207t-120 215h59q79 -99 120 -206t41 -216t-40.5 -215.5t-120.5 -206.5h-59q78 100 119.5 208t41.5 214z" />
    <glyph glyph-name="asterisk" unicode="*" horiz-adv-x="400" 
d="M176 588v138h48v-138l128 43l15 -45l-130 -44l79 -108l-38 -30l-78 112l-78 -112l-38 30l79 108l-130 44l15 45z" />
    <glyph glyph-name="plus" unicode="+" horiz-adv-x="660" 
d="M588 360v-53h-231v-233h-53v233h-233v53h233v232h53v-232h231z" />
    <glyph glyph-name="comma" unicode="," horiz-adv-x="296" 
d="M142 0h-37v87h86v-108q0 -59 -33.5 -94.5t-90.5 -35.5v40q38 0 56.5 22t18.5 68v21z" />
    <glyph glyph-name="hyphen" unicode="-" horiz-adv-x="449" 
d="M362 251h-275v54h275v-54z" />
    <glyph glyph-name="period" unicode="." horiz-adv-x="296" 
d="M191 0h-86v87h86v-87z" />
    <glyph glyph-name="slash" unicode="/" horiz-adv-x="492" 
d="M112 -108h-58l326 844h58z" />
    <glyph glyph-name="zero" unicode="0" horiz-adv-x="664" 
d="M332 -12q-122 0 -197.5 102.5t-75.5 266.5t75.5 266.5t197.5 102.5t197.5 -102.5t75.5 -266.5t-75.5 -266.5t-197.5 -102.5zM332 669q-100 0 -156 -83.5t-56 -228.5t56 -228.5t156 -83.5t156 83.5t56 228.5t-56 228.5t-156 83.5z" />
    <glyph glyph-name="one" unicode="1" horiz-adv-x="342" 
d="M175 568h-152v41q85 0 126 24.5t55 84.5h31v-718h-60v568z" />
    <glyph glyph-name="two" unicode="2" horiz-adv-x="558" 
d="M290 726q98 0 157.5 -58t59.5 -146q0 -45 -18 -84t-56 -75q-29 -28 -86.5 -67.5t-58.5 -39.5q-116 -82 -150 -123.5t-33 -78.5h410v-54h-472v32q0 68 53 134.5t175 143.5q106 70 142 115.5t36 95.5q0 69 -42 109.5t-117 40.5q-74 0 -122 -48t-54 -124h-56
q5 100 68.5 163.5t163.5 63.5z" />
    <glyph glyph-name="three" unicode="3" horiz-adv-x="600" 
d="M396 365q63 -9 104 -57t41 -114q0 -90 -66 -148t-174 -58q-111 0 -178.5 58.5t-75.5 159.5h60q6 -77 57 -121t137 -44q84 0 133 41t49 111q0 66 -45 104.5t-122 38.5h-81v55h78q71 0 110.5 35t39.5 100q0 67 -43 107t-117 40q-77 0 -125.5 -47.5t-53.5 -123.5h-58
q7 102 70.5 163t166.5 61q101 0 161 -56.5t60 -144.5q0 -62 -36.5 -107t-91.5 -53z" />
    <glyph glyph-name="four" unicode="4" horiz-adv-x="648" 
d="M383 714h71v-458h159v-50h-159v-206h-59v206h-355v51zM395 256v389l-291 -389h291z" />
    <glyph glyph-name="five" unicode="5" horiz-adv-x="597" 
d="M485 231q0 84 -49 136t-133 52q-54 0 -97 -23.5t-69 -65.5h-54l39 384h388v-55h-344l-27 -264q25 34 70.5 55.5t92.5 21.5q107 0 174 -68.5t67 -173.5q0 -107 -66.5 -174.5t-173.5 -67.5q-104 0 -172.5 60.5t-76.5 161.5h59q6 -77 58 -123t133 -46q84 0 132.5 52.5
t48.5 137.5z" />
    <glyph glyph-name="six" unicode="6" horiz-adv-x="617" 
d="M332 671q-102 0 -159.5 -96t-57.5 -260q18 71 76 116.5t136 45.5q102 0 167 -68t65 -173q0 -110 -66 -179t-172 -69q-117 0 -189.5 98t-72.5 259q0 168 76.5 274.5t196.5 106.5q92 0 150.5 -51t70.5 -141h-56q-14 69 -55 103t-110 34zM139 233q0 -83 51 -137t131 -54
q81 0 130.5 53t49.5 138q0 84 -49.5 136.5t-130.5 52.5q-80 0 -131 -53t-51 -136z" />
    <glyph glyph-name="seven" unicode="7" horiz-adv-x="563" 
d="M446 659h-419v55h491v-38q-120 -146 -178.5 -310t-60.5 -366h-65q2 181 61.5 349.5t170.5 309.5z" />
    <glyph glyph-name="eight" unicode="8" horiz-adv-x="633" 
d="M89 531q0 87 63.5 141t163.5 54q101 0 164 -53.5t63 -141.5q0 -60 -31.5 -103.5t-89.5 -65.5q64 -11 109 -59.5t45 -108.5q0 -92 -71.5 -149t-188.5 -57t-188 57t-71 149q0 60 45 108.5t109 59.5q-59 22 -90.5 66t-31.5 103zM147 533q0 -66 46.5 -103.5t122.5 -37.5
q77 0 123.5 37.5t46.5 103.5q0 65 -46.5 102.5t-123.5 37.5q-76 0 -122.5 -37.5t-46.5 -102.5zM120 191q0 -69 53 -109.5t143 -40.5q91 0 144 40.5t53 109.5q0 68 -53 107.5t-144 39.5q-90 0 -143 -39.5t-53 -107.5z" />
    <glyph glyph-name="nine" unicode="9" horiz-adv-x="617" 
d="M285 43q102 0 159.5 96t57.5 260q-18 -71 -76 -116.5t-136 -45.5q-102 0 -167 68t-65 173q0 110 66 179t172 69q117 0 189.5 -98t72.5 -259q0 -168 -76.5 -274.5t-196.5 -106.5q-92 0 -150.5 51t-70.5 141h56q14 -69 55 -103t110 -34zM478 481q0 83 -51 137t-131 54
q-81 0 -130.5 -53t-49.5 -138q0 -84 49.5 -136.5t130.5 -52.5q80 0 131 53t51 136z" />
    <glyph glyph-name="colon" unicode=":" horiz-adv-x="296" 
d="M191 348h-86v87h86v-87zM191 0h-86v87h86v-87z" />
    <glyph glyph-name="semicolon" unicode=";" horiz-adv-x="296" 
d="M142 0h-37v87h86v-108q0 -59 -33.5 -94.5t-90.5 -35.5v40q38 0 56.5 22t18.5 68v21zM191 348h-86v87h86v-87z" />
    <glyph glyph-name="less" unicode="&#x3c;" horiz-adv-x="660" 
d="M537 74l-437 226v62l437 225v-63l-378 -193l378 -193v-64z" />
    <glyph glyph-name="equal" unicode="=" horiz-adv-x="660" 
d="M578 387h-497v55h497v-55zM578 207h-497v54h497v-54z" />
    <glyph glyph-name="greater" unicode="&#x3e;" horiz-adv-x="660" 
d="M559 362v-62l-437 -226v64l378 193l-378 193v63z" />
    <glyph glyph-name="question" unicode="?" horiz-adv-x="553" 
d="M285 726q98 0 157 -57.5t59 -145.5q0 -35 -11 -66t-33 -60q-14 -18 -32.5 -36t-66.5 -56q-45 -35 -59 -61t-16 -61h-59q2 48 26.5 88t83.5 86q63 48 86.5 85.5t23.5 79.5q0 68 -42 109t-117 41q-76 0 -123.5 -47.5t-52.5 -124.5h-57q6 101 69.5 163.5t163.5 62.5zM297 0
h-87v87h87v-87z" />
    <glyph glyph-name="at" unicode="@" horiz-adv-x="917" 
d="M597 436h54l-51 -290q-6 -32 7 -49.5t43 -17.5q67 0 110 63t43 166q0 127 -87 205t-229 78q-161 0 -265 -106t-104 -268q0 -157 102 -247t268 -90q59 0 116 11t104 31l17 -42q-51 -23 -113 -35.5t-124 -12.5q-189 0 -306 103t-117 282q0 88 31 166t89 137t135.5 90
t166.5 31q163 0 266.5 -94t103.5 -239q0 -122 -61.5 -198t-150.5 -76q-40 0 -68 19.5t-35 52.5q-18 -31 -51 -50t-71 -19q-67 0 -106.5 45.5t-39.5 120.5q0 100 58 171t145 71q37 0 67.5 -20t41.5 -50zM428 89q46 0 82.5 33t47.5 88l7 45q11 64 -12.5 101.5t-73.5 37.5
q-63 0 -106 -56t-43 -133q0 -54 26.5 -85t71.5 -31z" />
    <glyph glyph-name="A" unicode="A" horiz-adv-x="690" 
d="M670 0h-64l-85 213h-355l-85 -213h-61l291 714h68zM345 652h-3l-155 -387h313z" />
    <glyph glyph-name="B" unicode="B" horiz-adv-x="661" 
d="M612 198q0 -95 -64 -146.5t-182 -51.5h-266v714h230q119 0 183 -49t64 -140q0 -50 -32.5 -94.5t-79.5 -58.5q69 -16 108 -62.5t39 -111.5zM160 660v-268h179q85 0 130 34.5t45 100.5t-44 99.5t-130 33.5h-180zM363 340h-203v-286h205q88 0 136.5 37t48.5 105t-49 106
t-138 38z" />
    <glyph glyph-name="C" unicode="C" horiz-adv-x="674" 
d="M366 671q-115 0 -182 -84.5t-67 -228.5q0 -145 67 -230t182 -85q84 0 135 40.5t66 115.5h60q-17 -99 -86 -155t-175 -56q-137 0 -224.5 102.5t-87.5 267.5q0 164 87.5 266t224.5 102q106 0 175 -56t86 -155h-60q-15 75 -66 115.5t-135 40.5z" />
    <glyph glyph-name="D" unicode="D" horiz-adv-x="738" 
d="M100 714h241q153 0 248 -99t95 -258q0 -160 -95 -258.5t-248 -98.5h-241v714zM621 357q0 140 -75 221.5t-205 81.5h-181v-606h181q130 0 205 81.5t75 221.5z" />
    <glyph glyph-name="E" unicode="E" horiz-adv-x="633" 
d="M563 54v-54h-463v714h465v-54h-405v-277h361v-54h-361v-275h403z" />
    <glyph glyph-name="F" unicode="F" horiz-adv-x="605" 
d="M160 0h-60v714h437v-54h-377v-284h345v-54h-345v-322z" />
    <glyph glyph-name="G" unicode="G" horiz-adv-x="737" 
d="M375 -12q-141 0 -231 102.5t-90 267.5q0 163 90.5 265.5t231.5 102.5q109 0 179.5 -56t88.5 -156h-61q-15 75 -69 116t-138 41q-119 0 -189 -85t-70 -228q0 -144 68.5 -229.5t186.5 -85.5q100 0 163.5 58.5t63.5 153.5v44h-186v53h244v-352h-49l-8 129q-20 -61 -84 -101
t-141 -40z" />
    <glyph glyph-name="H" unicode="H" horiz-adv-x="767" 
d="M160 0h-60v714h60v-324h447v324h60v-714h-60v336h-447v-336z" />
    <glyph glyph-name="I" unicode="I" horiz-adv-x="260" 
d="M160 0h-60v714h60v-714z" />
    <glyph glyph-name="J" unicode="J" horiz-adv-x="549" 
d="M234 39q82 0 124.5 54.5t42.5 157.5v463h60v-463q0 -122 -60.5 -192.5t-166.5 -70.5q-96 0 -157.5 57t-65.5 152h60q4 -74 48 -116t115 -42z" />
    <glyph glyph-name="K" unicode="K" horiz-adv-x="691" 
d="M653 0h-73l-305 356l-115 -114v-242h-60v714h60v-403l401 403h77l-320 -316z" />
    <glyph glyph-name="L" unicode="L" horiz-adv-x="614" 
d="M552 0h-452v714h60v-660h392v-54z" />
    <glyph glyph-name="M" unicode="M" horiz-adv-x="873" 
d="M713 662l-249 -662h-55l-248 662h-2v-662h-59v714h102l236 -638h2l236 638h97v-714h-58v662h-2z" />
    <glyph glyph-name="N" unicode="N" horiz-adv-x="746" 
d="M100 714h78l407 -606h2v606h59v-714h-57l-428 640h-2v-640h-59v714z" />
    <glyph glyph-name="O" unicode="O" horiz-adv-x="741" 
d="M371 726q141 0 228.5 -103t87.5 -266q0 -164 -87.5 -266.5t-228.5 -102.5q-142 0 -229.5 102.5t-87.5 266.5t88 266.5t229 102.5zM371 43q118 0 185.5 84.5t67.5 229.5q0 144 -67.5 229t-185.5 85q-119 0 -186.5 -85t-67.5 -229q0 -145 67.5 -229.5t186.5 -84.5z" />
    <glyph glyph-name="P" unicode="P" horiz-adv-x="638" 
d="M589 508q0 -100 -62.5 -153.5t-179.5 -53.5h-187v-301h-60v714h247q117 0 179.5 -53t62.5 -153zM160 660v-305h189q89 0 134 38.5t45 114.5q0 75 -45 113.5t-134 38.5h-189z" />
    <glyph glyph-name="Q" unicode="Q" horiz-adv-x="741" 
d="M574 64l72 -77l-37 -36l-77 81q-35 -22 -76 -33t-85 -11q-142 0 -229.5 102.5t-87.5 266.5t88 266.5t229 102.5t228.5 -103t87.5 -266q0 -92 -29 -167.5t-84 -125.5zM371 671q-119 0 -186.5 -85t-67.5 -229q0 -145 67.5 -229.5t186.5 -84.5q34 0 64.5 7.5t58.5 22.5
l-90 95l38 37l94 -100q43 41 65.5 106t22.5 146q0 144 -67.5 229t-185.5 85z" />
    <glyph glyph-name="R" unicode="R" horiz-adv-x="677" 
d="M160 302v-302h-60v714h258q117 0 180 -53t63 -153q0 -77 -48 -131t-124 -67l205 -310h-70l-198 302h-206zM160 660v-305h198q87 0 134 40t47 113q0 72 -47.5 112t-133.5 40h-198z" />
    <glyph glyph-name="S" unicode="S" horiz-adv-x="650" 
d="M339 -12q-126 0 -202.5 58t-82.5 163h58q8 -82 66.5 -125t160.5 -43q87 0 139 40.5t52 108.5q0 53 -33.5 84t-103.5 44l-138 28q-92 18 -134.5 62t-42.5 118q0 87 66.5 143.5t171.5 56.5q114 0 181 -48.5t76 -139.5h-59q-10 63 -62.5 99t-135.5 36q-81 0 -130.5 -41
t-49.5 -106q0 -53 29 -80.5t105 -43.5l142 -29q92 -19 134 -63t42 -118q0 -89 -70 -146.5t-179 -57.5z" />
    <glyph glyph-name="T" unicode="T" horiz-adv-x="687" 
d="M373 0h-60v660h-272v54h605v-54h-273v-660z" />
    <glyph glyph-name="U" unicode="U" horiz-adv-x="736" 
d="M648 714v-421q0 -146 -73 -225.5t-207 -79.5t-207 80t-73 227v419h60v-430q0 -117 57.5 -179.5t162.5 -62.5t162.5 62.5t57.5 179.5v430h60z" />
    <glyph glyph-name="V" unicode="V" horiz-adv-x="695" 
d="M382 0h-70l-292 714h62l265 -656h2l265 656h61z" />
    <glyph glyph-name="W" unicode="W" horiz-adv-x="956" 
d="M723 0h-71l-173 627h-2l-174 -627h-70l-203 714h65l176 -637h2l173 637h68l174 -637h2l175 637h61z" />
    <glyph glyph-name="X" unicode="X" horiz-adv-x="686" 
d="M666 0h-72l-256 334l-251 -334h-67l285 377l-257 337h73l220 -291l218 291h67l-252 -332z" />
    <glyph glyph-name="Y" unicode="Y" horiz-adv-x="641" 
d="M350 298v-298h-60v298l-270 416h67l236 -361h2l229 361h67z" />
    <glyph glyph-name="Z" unicode="Z" horiz-adv-x="659" 
d="M597 714v-50l-461 -610h463v-54h-542v43l463 617h-447v54h524z" />
    <glyph glyph-name="bracketleft" unicode="[" horiz-adv-x="386" 
d="M310 687h-147v-746h147v-49h-201v844h201v-49z" />
    <glyph glyph-name="backslash" unicode="\" horiz-adv-x="492" 
d="M380 -108l-326 844h58l326 -844h-58z" />
    <glyph glyph-name="bracketright" unicode="]" horiz-adv-x="386" 
d="M76 736h201v-844h-201v49h147v746h-147v49z" />
    <glyph glyph-name="asciicircum" unicode="^" horiz-adv-x="422" 
d="M28 487l161 239h44l160 -239h-59l-123 183l-123 -183h-60z" />
    <glyph glyph-name="underscore" unicode="_" horiz-adv-x="436" 
d="M403 -111h-370v53h370v-53z" />
    <glyph glyph-name="grave" unicode="`" 
d="M295 736l58 -154h-35l-106 154h83z" />
    <glyph glyph-name="a" unicode="a" horiz-adv-x="540" 
d="M462 0h-60q-5 18 -7.5 42.5t-2.5 45.5q-16 -44 -65 -71.5t-113 -27.5q-69 0 -114 39.5t-45 103.5q0 63 42 100t127 48l168 22v33q0 61 -33.5 93.5t-96.5 32.5q-55 0 -88.5 -27t-38.5 -75h-57q7 70 57.5 111.5t126.5 41.5q90 0 138.5 -43.5t48.5 -125.5v-251
q0 -27 3.5 -50t9.5 -42zM115 131q0 -42 28.5 -67.5t77.5 -25.5q72 0 121.5 44.5t49.5 115.5v54l-151 -17q-71 -10 -98.5 -34.5t-27.5 -69.5z" />
    <glyph glyph-name="b" unicode="b" horiz-adv-x="605" 
d="M323 -12q-57 0 -104 28.5t-69 74.5v-91h-55v736h58v-329q20 47 65.5 76t104.5 29q98 0 161.5 -73t63.5 -189t-63.5 -189t-161.5 -73zM317 463q-78 0 -123 -56t-45 -151v-11q0 -95 45 -151.5t123 -56.5q79 0 125.5 58t46.5 155t-46.5 155t-125.5 58z" />
    <glyph glyph-name="c" unicode="c" horiz-adv-x="529" 
d="M284 -12q-102 0 -164.5 71.5t-62.5 190.5q0 118 62.5 190t164.5 72q79 0 129 -43t62 -120h-55q-13 56 -46.5 84t-89.5 28q-79 0 -124.5 -56.5t-45.5 -154.5t45 -154.5t125 -56.5q56 0 89.5 28t46.5 84h55q-12 -78 -62 -120.5t-129 -42.5z" />
    <glyph glyph-name="d" unicode="d" horiz-adv-x="605" 
d="M282 -12q-98 0 -161.5 73t-63.5 189t63.5 189t161.5 73q59 0 104.5 -29t65.5 -76v329h58v-736h-55v91q-22 -46 -69 -74.5t-104 -28.5zM288 463q-79 0 -125.5 -58t-46.5 -155t46.5 -155t125.5 -58q78 0 123 56.5t45 151.5v11q0 95 -45 151t-123 56z" />
    <glyph glyph-name="e" unicode="e" horiz-adv-x="547" 
d="M432 142h55q-16 -72 -69.5 -113t-127.5 -41q-105 0 -169 70.5t-64 188.5t63.5 191.5t163.5 73.5q96 0 151 -67t55 -177v-28h-376q1 -95 48 -148t128 -53q53 0 88 25.5t54 77.5zM284 461q-69 0 -113.5 -45.5t-54.5 -127.5h316q-3 82 -41.5 127.5t-106.5 45.5z" />
    <glyph glyph-name="f" unicode="f" horiz-adv-x="295" 
d="M107 0v453h-74v47h74v107q0 62 36.5 97t98.5 35q11 0 25 -1.5t22 -3.5v-49q-9 1 -23 2t-29 1q-34 0 -53.5 -20.5t-19.5 -59.5v-108h110v-47h-110v-453h-57z" />
    <glyph glyph-name="g" unicode="g" horiz-adv-x="602" 
d="M280 -141q82 0 125 44t43 128v74q-21 -45 -66 -72t-104 -27q-99 0 -161 70t-62 184q0 111 62.5 181.5t160.5 70.5q58 0 104.5 -28.5t68.5 -74.5v91h56v-469q0 -106 -60 -163.5t-167 -57.5q-88 0 -142 36t-68 104h60q12 -46 48.5 -68.5t101.5 -22.5zM282 57
q76 0 124.5 53.5t48.5 137.5v25q0 84 -48.5 137t-124.5 53q-78 0 -124 -55t-46 -148q0 -92 46.5 -147.5t123.5 -55.5z" />
    <glyph glyph-name="h" unicode="h" horiz-adv-x="583" 
d="M153 736v-332q18 51 61 79.5t102 28.5q83 0 130 -50t47 -139v-323h-58v311q0 75 -33 113.5t-98 38.5q-71 0 -111 -48t-40 -137v-278h-58v736h58z" />
    <glyph glyph-name="i" unicode="i" horiz-adv-x="248" 
d="M159 615h-71v88h71v-88zM153 0h-58v500h58v-500z" />
    <glyph glyph-name="j" unicode="j" horiz-adv-x="248" 
d="M159 615h-71v88h71v-88zM33 -184q-9 0 -17.5 1t-16.5 3v49q11 -1 15.5 -1.5t9.5 -0.5q40 0 55.5 16t15.5 56v561h58v-555q0 -67 -29 -98t-91 -31z" />
    <glyph glyph-name="k" unicode="k" horiz-adv-x="536" 
d="M500 0h-75l-203 249l-69 -65v-184h-58v736h58v-488l265 252h74l-227 -213z" />
    <glyph glyph-name="l" unicode="l" horiz-adv-x="248" 
d="M153 736v-736h-58v736h58z" />
    <glyph glyph-name="m" unicode="m" horiz-adv-x="888" 
d="M310 512q59 0 96.5 -27.5t54.5 -84.5q22 53 66.5 82.5t101.5 29.5q83 0 126.5 -48.5t43.5 -140.5v-323h-59v311q0 78 -29 115t-89 37q-68 0 -107 -49t-39 -136v-278h-59v311q0 78 -29 115t-89 37q-68 0 -107 -49t-39 -136v-278h-58v500h55v-96q18 50 61 79t99 29z" />
    <glyph glyph-name="n" unicode="n" horiz-adv-x="583" 
d="M95 500h55v-96q17 49 62 78.5t104 29.5q83 0 130 -50t47 -139v-323h-58v311q0 75 -33 113.5t-98 38.5q-71 0 -111 -48t-40 -137v-278h-58v500z" />
    <glyph glyph-name="o" unicode="o" horiz-adv-x="572" 
d="M286 512q102 0 165.5 -72.5t63.5 -189.5q0 -118 -63.5 -190t-165.5 -72t-165.5 72t-63.5 190q0 117 63.5 189.5t165.5 72.5zM286 461q-80 0 -126 -56.5t-46 -154.5t46 -154.5t126 -56.5t126 56.5t46 154.5t-46 154.5t-126 56.5z" />
    <glyph glyph-name="p" unicode="p" horiz-adv-x="605" 
d="M323 -12q-56 0 -101.5 28.5t-68.5 74.5v-269h-58v678h55v-96q20 47 67 77.5t106 30.5q98 0 161.5 -73t63.5 -189t-63.5 -189t-161.5 -73zM317 463q-78 0 -123 -56t-45 -151v-11q0 -95 45 -151.5t123 -56.5q79 0 125.5 58t46.5 155t-46.5 155t-125.5 58z" />
    <glyph glyph-name="q" unicode="q" horiz-adv-x="605" 
d="M282 -12q-98 0 -161.5 73t-63.5 189t63.5 189t161.5 73q59 0 106 -30.5t67 -77.5v96h55v-678h-58v269q-23 -46 -68.5 -74.5t-101.5 -28.5zM288 463q-79 0 -125.5 -58t-46.5 -155t46.5 -155t125.5 -58q78 0 123 56.5t45 151.5v11q0 95 -45 151t-123 56z" />
    <glyph glyph-name="r" unicode="r" horiz-adv-x="367" 
d="M312 512q10 0 20 -1l20 -2v-54q-7 2 -18 3t-22 1q-69 0 -114 -56t-45 -148v-255h-58v500h55v-122q15 61 59 97.5t103 36.5z" />
    <glyph glyph-name="s" unicode="s" horiz-adv-x="505" 
d="M259 -12q-91 0 -146.5 42t-61.5 116h56q5 -52 45.5 -80.5t106.5 -28.5q59 0 95.5 26.5t36.5 71.5q0 33 -23 53t-71 30l-88 18q-75 15 -106 46t-31 85q0 62 50 103.5t126 41.5q83 0 131 -35.5t55 -103.5h-55q-5 43 -39 66.5t-92 23.5q-55 0 -88.5 -26t-33.5 -69
q0 -33 21.5 -51.5t72.5 -28.5l100 -20q66 -14 96 -46t30 -86q0 -63 -53 -105.5t-134 -42.5z" />
    <glyph glyph-name="t" unicode="t" horiz-adv-x="357" 
d="M233 43q17 0 36 3.5t41 10.5v-51q-21 -7 -41.5 -10.5t-39.5 -3.5q-64 0 -96.5 33t-32.5 99v329h-76v47h76v129h58v-129h138v-47h-139v-334q0 -39 18.5 -57.5t57.5 -18.5z" />
    <glyph glyph-name="u" unicode="u" horiz-adv-x="578" 
d="M483 500v-500h-55v95q-18 -50 -61 -78.5t-101 -28.5q-85 0 -130.5 49t-45.5 140v323h59v-313q0 -76 32.5 -114.5t96.5 -38.5q70 0 108.5 49t38.5 139v278h58z" />
    <glyph glyph-name="v" unicode="v" horiz-adv-x="526" 
d="M301 0h-67l-201 500h60l173 -442h2l166 442h59z" />
    <glyph glyph-name="w" unicode="w" horiz-adv-x="739" 
d="M339 500h64l123 -433h2l124 433h55l-150 -500h-62l-124 430h-3l-122 -430h-64l-149 500h57l125 -433h2z" />
    <glyph glyph-name="x" unicode="x" horiz-adv-x="540" 
d="M265 218l-157 -218h-63l190 258l-180 242h70l147 -200l144 200h63l-176 -239l193 -261h-70z" />
    <glyph glyph-name="y" unicode="y" horiz-adv-x="524" 
d="M128 -134q34 0 56.5 25.5t52.5 101.5l-204 507h62l171 -427h2l161 427h62l-205 -519q-40 -104 -72 -135t-86 -32q-9 0 -20.5 1.5t-22.5 3.5v52q11 -3 21 -4t22 -1z" />
    <glyph glyph-name="z" unicode="z" horiz-adv-x="510" 
d="M443 500v-45l-315 -408h326v-47h-399v38l317 415h-304v47h375z" />
    <glyph glyph-name="braceleft" unicode="{" horiz-adv-x="409" 
d="M88 289h-55v50h55q25 0 37.5 13.5t12.5 39.5v245q0 51 25.5 75t79.5 24h90v-49h-85q-32 0 -44 -11t-12 -36v-248q0 -33 -14.5 -51.5t-45.5 -26.5q31 -8 45.5 -26.5t14.5 -51.5v-248q0 -25 12 -36t44 -11h85v-49h-90q-54 0 -79.5 24t-25.5 75v245q0 26 -12.5 39.5
t-37.5 13.5z" />
    <glyph glyph-name="bar" unicode="|" horiz-adv-x="294" 
d="M120 -108v844h54v-844h-54z" />
    <glyph glyph-name="braceright" unicode="}" horiz-adv-x="409" 
d="M321 289q-25 0 -37.5 -13.5t-12.5 -39.5v-245q0 -51 -25.5 -75t-79.5 -24h-90v49h85q32 0 44 11t12 36v248q0 33 14.5 51.5t45.5 26.5q-31 8 -45.5 26.5t-14.5 51.5v248q0 25 -12 36t-44 11h-85v49h90q54 0 79.5 -24t25.5 -75v-245q0 -26 12.5 -39.5t37.5 -13.5h55v-50
h-55v0z" />
    <glyph glyph-name="asciitilde" unicode="~" horiz-adv-x="488" 
d="M229 287q-23 20 -33.5 26t-20.5 6q-21 0 -32 -18.5t-13 -58.5h-43q0 61 23 95t65 34q18 0 35.5 -8.5t48.5 -35.5q23 -20 33.5 -26t20.5 -6q22 0 33 19t12 58h43q0 -61 -23 -95t-65 -34q-18 0 -35.5 8.5t-48.5 35.5z" />
    <glyph glyph-name="twosuperior" horiz-adv-x="352" 
d="M181 722q57 0 93 -33t36 -82q0 -25 -9.5 -46.5t-29.5 -40.5q-11 -10 -24.5 -20.5t-56.5 -37.5q-51 -31 -71.5 -52.5t-20.5 -41.5h223v-45h-282v23q0 40 27.5 76t97.5 80q57 36 75.5 58t18.5 47q0 32 -21 51t-57 19t-59 -23.5t-25 -59.5h-52q3 57 40.5 92.5t96.5 35.5z
" />
    <glyph glyph-name="threesuperior" horiz-adv-x="370" 
d="M245 519q36 -5 58 -30t22 -60q0 -50 -38 -81.5t-101 -31.5q-64 0 -103 32.5t-44 88.5h52q3 -36 28.5 -57t66.5 -21q40 0 63.5 19.5t23.5 52.5q0 31 -22 49t-60 18h-41v43h39q34 0 54 17.5t20 48.5q0 32 -21 52t-56 20q-37 0 -60 -22.5t-25 -58.5h-51q3 56 40 90.5
t96 34.5t94 -32t35 -83q0 -34 -19.5 -59t-50.5 -30z" />
    <glyph glyph-name="onesuperior" horiz-adv-x="327" 
d="M201 366h104v-43h-261v43h103v251h-101v40q61 0 87 11.5t35 47.5h33v-350z" />
    <glyph glyph-name="uni00A0" unicode="&#xa0;" horiz-adv-x="220" 
 />
    <glyph glyph-name="exclamdown" unicode="&#xa1;" horiz-adv-x="297" 
d="M172 507l12 -507h-70l12 507h46zM192 627h-87v87h87v-87z" />
    <glyph glyph-name="cent" unicode="&#xa2;" horiz-adv-x="550" 
d="M443 154h54q-12 -72 -59 -114.5t-120 -47.5v-98h-50v99q-94 10 -150.5 80.5t-56.5 180.5q0 108 56.5 179t150.5 82v123h50v-122q72 -5 119.5 -48t59.5 -114h-54q-11 51 -43 80t-82 33v-426q50 4 82 33t43 80zM118 254q0 -88 40 -145t110 -67v424q-70 -11 -110 -68
t-40 -144z" />
    <glyph glyph-name="sterling" unicode="&#xa3;" horiz-adv-x="624" 
d="M178 54h391v-54h-504v54h11q51 0 83.5 50t32.5 125q0 18 -3 35.5t-9 37.5h-96v51h75q0 1 -15.5 30.5t-23.5 50.5q-8 22 -12 43.5t-4 44.5q0 82 63 143t160 61q102 0 161.5 -60.5t64.5 -165.5h-56q-6 83 -50 127.5t-120 44.5q-73 0 -118 -43.5t-45 -107.5q0 -21 4.5 -42
t14.5 -45q6 -15 19.5 -42t18.5 -39h221v-51h-202q5 -18 7.5 -36.5t2.5 -37.5q0 -52 -19.5 -99t-52.5 -75z" />
    <glyph glyph-name="yen" unicode="&#xa5;" horiz-adv-x="649" 
d="M566 215v-51h-212v-164h-59v164h-212v51h212v100h-212v52h186l-234 347h66l225 -334h2l219 334h67l-234 -347h187v-52h-213v-100h212z" />
    <glyph glyph-name="section" unicode="&#xa7;" horiz-adv-x="562" 
d="M403 115q24 -22 35 -48.5t11 -60.5q0 -63 -48.5 -104t-126.5 -41q-81 0 -131.5 39.5t-57.5 109.5h54q6 -44 43 -71.5t92 -27.5t88 26t33 69q0 32 -16.5 55t-60.5 50l-115 71q-71 43 -99 80.5t-28 85.5q0 37 18.5 68.5t54.5 55.5q-24 23 -35 49.5t-11 60.5q0 63 48 103.5
t125 40.5q83 0 131 -35.5t55 -103.5h-54q-6 42 -41 65.5t-91 23.5q-54 0 -86 -25.5t-32 -68.5q0 -33 16 -56t60 -50l115 -70q71 -44 99 -81.5t28 -85.5q0 -37 -18.5 -68.5t-54.5 -55.5zM225 232l107 -66q1 -1 12.5 -8t18.5 -12q30 15 45.5 38.5t15.5 54.5q0 33 -20 57.5
t-77 59.5l-106 65q-1 1 -12.5 8t-18.5 12q-30 -15 -46 -39t-16 -54q0 -33 20 -57.5t77 -58.5z" />
    <glyph glyph-name="dieresis" unicode="&#xa8;" 
d="M402 615h-66v88h66v-88zM229 615h-66v88h66v-88z" />
    <glyph glyph-name="copyright" unicode="&#xa9;" horiz-adv-x="870" 
d="M435 727q153 0 261 -108.5t108 -262.5q0 -152 -108 -260t-261 -108q-74 0 -141.5 28t-119.5 80t-80.5 119.5t-28.5 140.5q0 74 28.5 142t80.5 120q52 53 119.5 81t141.5 28zM435 684q-135 0 -230.5 -96t-95.5 -232q0 -134 95.5 -229.5t230.5 -95.5t230.5 95.5t95.5 229.5
q0 136 -95.5 232t-230.5 96zM441 524q-66 0 -103.5 -44.5t-37.5 -121.5t37.5 -121t103.5 -44q48 0 78 22.5t38 62.5h56q-12 -67 -57 -103.5t-115 -36.5q-88 0 -144 61.5t-56 158.5t56 158.5t144 61.5q71 0 115.5 -36.5t56.5 -103.5h-56q-9 41 -38.5 63.5t-77.5 22.5z" />
    <glyph glyph-name="ordfeminine" unicode="&#xaa;" horiz-adv-x="390" 
d="M270 441q-12 -30 -43 -47t-73 -17q-47 0 -77 26.5t-30 69.5q0 42 28 66.5t86 32.5l107 13v20q0 38 -20 57t-58 19q-33 0 -53.5 -16.5t-23.5 -45.5h-51q4 49 39.5 77.5t89.5 28.5q63 0 96.5 -30.5t33.5 -87.5v-154q0 -20 2 -37t6 -31h-53q-3 11 -4.5 25t-1.5 31zM165 417
q43 0 73 27.5t30 70.5v32l-91 -11q-42 -6 -59 -20.5t-17 -41.5q0 -26 17 -41.5t47 -15.5zM335 258h-280v43h280v-43z" />
    <glyph glyph-name="guillemotleft" unicode="&#xab;" horiz-adv-x="491" 
d="M318 237l108 -191h-47l-129 191l129 192h47zM134 237l107 -191h-46l-130 191l130 192h46z" />
    <glyph glyph-name="registered" unicode="&#xae;" horiz-adv-x="571" 
d="M55 495q0 98 67 164.5t164 66.5t163.5 -66t66.5 -165t-66.5 -165.5t-163.5 -66.5t-164 66.5t-67 165.5zM88 495q0 -87 57 -144.5t141 -57.5t141 57.5t57 144.5q0 86 -57 143.5t-141 57.5t-141 -57.5t-57 -143.5zM240 467v-91h-43v245h102q42 0 65 -19.5t23 -56.5
q0 -26 -13 -44t-37 -26l60 -99h-48l-56 91h-53zM240 585v-81h53q26 0 38 10t12 31q0 20 -12.5 30t-37.5 10h-53z" />
    <glyph glyph-name="macron" unicode="&#xaf;" 
d="M420 615h-274v50h274v-50z" />
    <glyph glyph-name="degree" unicode="&#xb0;" horiz-adv-x="352" 
d="M313 591q0 -58 -39 -96.5t-98 -38.5t-98 38.5t-39 96.5t39 96.5t98 38.5t98 -38.5t39 -96.5zM267 591q0 39 -26 64t-65 25t-65 -25t-26 -64q0 -38 26 -63.5t65 -25.5t65 25.5t26 63.5z" />
    <glyph glyph-name="acute" unicode="&#xb4;" 
d="M353 736l-106 -154h-35l58 154h83z" />
    <glyph glyph-name="paragraph" unicode="&#xb6;" horiz-adv-x="597" 
d="M333 -127h-58v465q-111 0 -173.5 49.5t-62.5 138.5t62 138.5t174 49.5h224v-841h-58v784h-108v-784z" />
    <glyph glyph-name="periodcentered" unicode="&#xb7;" horiz-adv-x="260" 
d="M173 237h-86v87h86v-87z" />
    <glyph glyph-name="cedilla" unicode="&#xb8;" 
d="M380 -108q0 -38 -30.5 -60t-77.5 -22q-23 0 -44.5 5t-38.5 14v43q19 -10 40 -15.5t43 -5.5q27 0 43 9.5t16 26.5q0 25 -27 32t-61 -4l-18 19l58 96h39l-45 -71q44 4 73.5 -14t29.5 -53z" />
    <glyph glyph-name="ordmasculine" unicode="&#xba;" horiz-adv-x="410" 
d="M205 376q-70 0 -113.5 48t-43.5 127q0 78 43.5 126t113.5 48t114 -48t44 -126q0 -79 -44 -127t-114 -48zM205 681q-48 0 -76 -35t-28 -95q0 -62 27.5 -97t76.5 -35t76.5 35t27.5 97q0 60 -28 95t-76 35zM345 258h-280v43h280v-43z" />
    <glyph glyph-name="guillemotright" unicode="&#xbb;" horiz-adv-x="491" 
d="M65 425h47l129 -192l-129 -191h-47l108 191zM250 425h46l130 -192l-130 -191h-46l107 191z" />
    <glyph glyph-name="onequarter" unicode="&#xbc;" horiz-adv-x="928" 
d="M741 727l-515 -739h-60l516 739h59zM231 366h104v-43h-261v43h103v251h-101v40q61 0 87 11.5t35 47.5h33v-350zM703 391h61v-251h82v-42h-82v-98h-52v98h-195v43zM712 140v197l-144 -197h144z" />
    <glyph glyph-name="onehalf" unicode="&#xbd;" horiz-adv-x="939" 
d="M231 366h104v-43h-261v43h103v251h-101v40q61 0 87 11.5t35 47.5h33v-350zM751 727l-515 -739h-60l516 739h59zM725 399q57 0 93 -33t36 -82q0 -25 -9.5 -46.5t-29.5 -40.5q-11 -10 -24.5 -20.5t-56.5 -37.5q-51 -31 -71.5 -52.5t-20.5 -41.5h223v-45h-282v23
q0 40 27.5 76t97.5 80q57 36 75.5 58t18.5 47q0 32 -21 51t-57 19t-59 -23.5t-25 -59.5h-52q3 57 40.5 92.5t96.5 35.5z" />
    <glyph glyph-name="threequarters" unicode="&#xbe;" horiz-adv-x="947" 
d="M732 391h61v-251h82v-42h-82v-98h-52v98h-195v43zM741 140v197l-144 -197h144zM770 727l-515 -739h-60l516 739h59zM275 519q36 -5 58 -30t22 -60q0 -50 -38 -81.5t-101 -31.5q-64 0 -103 32.5t-44 88.5h52q3 -36 28.5 -57t66.5 -21q40 0 63.5 19.5t23.5 52.5
q0 31 -22 49t-60 18h-41v43h39q34 0 54 17.5t20 48.5q0 32 -21 52t-56 20q-37 0 -60 -22.5t-25 -58.5h-51q3 56 40 90.5t96 34.5t94 -32t35 -83q0 -34 -19.5 -59t-50.5 -30z" />
    <glyph glyph-name="questiondown" unicode="&#xbf;" horiz-adv-x="553" 
d="M268 -12q-98 0 -157 57.5t-59 145.5q0 35 11 66t33 60q14 18 32.5 36t66.5 56q45 35 59 61t16 61h59q-2 -48 -26.5 -88t-83.5 -86q-63 -48 -86.5 -85.5t-23.5 -79.5q0 -68 42 -109t117 -41q76 0 123.5 47.5t52.5 124.5h57q-6 -101 -69.5 -163.5t-163.5 -62.5zM256 714h87
v-87h-87v87z" />
    <glyph glyph-name="Agrave" unicode="&#xc0;" horiz-adv-x="690" 
d="M670 0h-64l-85 213h-355l-85 -213h-61l291 714h68zM345 652h-3l-155 -387h313zM307 913l58 -144h-35l-109 144h86z" />
    <glyph glyph-name="Aacute" unicode="&#xc1;" horiz-adv-x="690" 
d="M670 0h-64l-85 213h-355l-85 -213h-61l291 714h68zM345 652h-3l-155 -387h313zM472 913l-109 -144h-35l58 144h86z" />
    <glyph glyph-name="Acircumflex" unicode="&#xc2;" horiz-adv-x="690" 
d="M670 0h-64l-85 213h-355l-85 -213h-61l291 714h68zM345 652h-3l-155 -387h313zM218 767l90 146h76l89 -146h-40l-87 99l-87 -99h-41z" />
    <glyph glyph-name="Atilde" unicode="&#xc3;" horiz-adv-x="690" 
d="M670 0h-64l-85 213h-355l-85 -213h-61l291 714h68zM345 652h-3l-155 -387h313zM330 817q-23 20 -33.5 26t-20.5 6q-21 0 -32 -18.5t-13 -58.5h-43q0 61 23 95t65 34q18 0 35.5 -8.5t48.5 -35.5q23 -20 33.5 -26t20.5 -6q22 0 33 19.5t12 58.5h43q0 -62 -23 -96t-65 -34
q-18 0 -35.5 8.5t-48.5 35.5z" />
    <glyph glyph-name="Adieresis" unicode="&#xc4;" horiz-adv-x="690" 
d="M670 0h-64l-85 213h-355l-85 -213h-61l291 714h68zM345 652h-3l-155 -387h313zM465 791h-66v88h66v-88zM292 791h-66v88h66v-88z" />
    <glyph glyph-name="Aring" unicode="&#xc5;" horiz-adv-x="690" 
d="M521 213h-355l-85 -213h-61l277 679q-31 15 -50 44.5t-19 63.5q0 49 35 84t83 35q49 0 83 -35t34 -84q0 -35 -19 -64.5t-50 -44.5l276 -678h-64zM417 787q0 30 -20.5 51t-50.5 21q-29 0 -50.5 -21.5t-21.5 -50.5t21.5 -50.5t50.5 -21.5q30 0 50.5 21t20.5 51zM345 652h-3
l-155 -387h313z" />
    <glyph glyph-name="AE" unicode="&#xc6;" horiz-adv-x="1083" 
d="M1013 0h-463v213h-318l-148 -213h-64l499 714h496v-54h-405v-277h361v-54h-361v-275h403v-54zM550 265v404l-281 -404h281z" />
    <glyph glyph-name="Ccedilla" unicode="&#xc7;" horiz-adv-x="674" 
d="M460 -108q0 -38 -30.5 -60t-77.5 -22q-23 0 -44.5 5t-38.5 14v43q19 -10 40 -15.5t43 -5.5q27 0 43 9.5t16 26.5q0 25 -27 32t-61 -4l-18 19l33 55q-127 11 -205.5 112.5t-78.5 256.5q0 164 87.5 266t224.5 102q106 0 175 -56t86 -155h-60q-15 75 -66 115.5t-135 40.5
q-115 0 -182 -84.5t-67 -228.5q0 -145 67 -230t182 -85q84 0 135 40.5t66 115.5h60q-17 -97 -83.5 -152.5t-168.5 -58.5l-18 -29q44 4 73.5 -14t29.5 -53z" />
    <glyph glyph-name="Egrave" unicode="&#xc8;" horiz-adv-x="633" 
d="M563 54v-54h-463v714h465v-54h-405v-277h361v-54h-361v-275h403zM300 913l58 -144h-35l-109 144h86z" />
    <glyph glyph-name="Eacute" unicode="&#xc9;" horiz-adv-x="633" 
d="M563 54v-54h-463v714h465v-54h-405v-277h361v-54h-361v-275h403zM453 913l-109 -144h-35l58 144h86z" />
    <glyph glyph-name="Ecircumflex" unicode="&#xca;" horiz-adv-x="633" 
d="M563 54v-54h-463v714h465v-54h-405v-277h361v-54h-361v-275h403zM205 767l90 146h76l89 -146h-40l-87 99l-87 -99h-41z" />
    <glyph glyph-name="Edieresis" unicode="&#xcb;" horiz-adv-x="633" 
d="M563 54v-54h-463v714h465v-54h-405v-277h361v-54h-361v-275h403zM452 791h-66v88h66v-88zM279 791h-66v88h66v-88z" />
    <glyph glyph-name="Igrave" unicode="&#xcc;" horiz-adv-x="260" 
d="M160 0h-60v714h60v-714zM96 913l58 -144h-35l-109 144h86z" />
    <glyph glyph-name="Iacute" unicode="&#xcd;" horiz-adv-x="260" 
d="M160 0h-60v714h60v-714zM256 913l-109 -144h-35l58 144h86z" />
    <glyph glyph-name="Icircumflex" unicode="&#xce;" horiz-adv-x="260" 
d="M160 0h-60v714h60v-714zM3 767l90 146h76l89 -146h-40l-87 99l-87 -99h-41z" />
    <glyph glyph-name="Idieresis" unicode="&#xcf;" horiz-adv-x="260" 
d="M160 0h-60v714h60v-714zM250 791h-66v88h66v-88zM77 791h-66v88h66v-88z" />
    <glyph glyph-name="Eth" unicode="&#xd0;" horiz-adv-x="748" 
d="M694 357q0 -160 -95 -258.5t-248 -98.5h-241v336h-85v54h85v324h241q153 0 248 -99t95 -258zM170 336v-282h181q130 0 205 81.5t75 221.5t-75 221.5t-205 81.5h-181v-270h167v-54h-167z" />
    <glyph glyph-name="Ntilde" unicode="&#xd1;" horiz-adv-x="746" 
d="M100 714h78l407 -606h2v606h59v-714h-57l-428 640h-2v-640h-59v714zM355 817q-23 20 -33.5 26t-20.5 6q-21 0 -32 -18.5t-13 -58.5h-43q0 61 23 95t65 34q18 0 35.5 -8.5t48.5 -35.5q23 -20 33.5 -26t20.5 -6q22 0 33 19.5t12 58.5h43q0 -62 -23 -96t-65 -34
q-18 0 -35.5 8.5t-48.5 35.5z" />
    <glyph glyph-name="Ograve" unicode="&#xd2;" horiz-adv-x="741" 
d="M371 726q141 0 228.5 -103t87.5 -266q0 -164 -87.5 -266.5t-228.5 -102.5q-142 0 -229.5 102.5t-87.5 266.5t88 266.5t229 102.5zM371 43q118 0 185.5 84.5t67.5 229.5q0 144 -67.5 229t-185.5 85q-119 0 -186.5 -85t-67.5 -229q0 -145 67.5 -229.5t186.5 -84.5zM341 913
l58 -144h-35l-109 144h86z" />
    <glyph glyph-name="Oacute" unicode="&#xd3;" horiz-adv-x="741" 
d="M371 726q141 0 228.5 -103t87.5 -266q0 -164 -87.5 -266.5t-228.5 -102.5q-142 0 -229.5 102.5t-87.5 266.5t88 266.5t229 102.5zM371 43q118 0 185.5 84.5t67.5 229.5q0 144 -67.5 229t-185.5 85q-119 0 -186.5 -85t-67.5 -229q0 -145 67.5 -229.5t186.5 -84.5zM494 913
l-109 -144h-35l58 144h86z" />
    <glyph glyph-name="Ocircumflex" unicode="&#xd4;" horiz-adv-x="741" 
d="M371 726q141 0 228.5 -103t87.5 -266q0 -164 -87.5 -266.5t-228.5 -102.5q-142 0 -229.5 102.5t-87.5 266.5t88 266.5t229 102.5zM371 43q118 0 185.5 84.5t67.5 229.5q0 144 -67.5 229t-185.5 85q-119 0 -186.5 -85t-67.5 -229q0 -145 67.5 -229.5t186.5 -84.5zM243 767
l90 146h76l89 -146h-40l-87 99l-87 -99h-41z" />
    <glyph glyph-name="Otilde" unicode="&#xd5;" horiz-adv-x="741" 
d="M371 726q141 0 228.5 -103t87.5 -266q0 -164 -87.5 -266.5t-228.5 -102.5q-142 0 -229.5 102.5t-87.5 266.5t88 266.5t229 102.5zM371 43q118 0 185.5 84.5t67.5 229.5q0 144 -67.5 229t-185.5 85q-119 0 -186.5 -85t-67.5 -229q0 -145 67.5 -229.5t186.5 -84.5zM355 817
q-23 20 -33.5 26t-20.5 6q-21 0 -32 -18.5t-13 -58.5h-43q0 61 23 95t65 34q18 0 35.5 -8.5t48.5 -35.5q23 -20 33.5 -26t20.5 -6q22 0 33 19.5t12 58.5h43q0 -62 -23 -96t-65 -34q-18 0 -35.5 8.5t-48.5 35.5z" />
    <glyph glyph-name="Odieresis" unicode="&#xd6;" horiz-adv-x="741" 
d="M371 726q141 0 228.5 -103t87.5 -266q0 -164 -87.5 -266.5t-228.5 -102.5q-142 0 -229.5 102.5t-87.5 266.5t88 266.5t229 102.5zM371 43q118 0 185.5 84.5t67.5 229.5q0 144 -67.5 229t-185.5 85q-119 0 -186.5 -85t-67.5 -229q0 -145 67.5 -229.5t186.5 -84.5zM490 791
h-66v88h66v-88zM317 791h-66v88h66v-88z" />
    <glyph glyph-name="multiply" unicode="&#xd7;" horiz-adv-x="660" 
d="M556 144l-37 -37l-186 186l-188 -188l-38 38l188 188l-188 188l37 37l188 -188l187 187l38 -38l-187 -187z" />
    <glyph glyph-name="Oslash" unicode="&#xd8;" horiz-adv-x="741" 
d="M687 357q0 -164 -87.5 -266.5t-228.5 -102.5q-56 0 -105 17t-88 50l-63 -85l-39 29l67 90q-43 50 -66 118.5t-23 149.5q0 164 88 266.5t229 102.5q55 0 104 -17t89 -50l62 84l39 -29l-66 -90q43 -49 65.5 -118t22.5 -149zM371 671q-119 0 -186.5 -85t-67.5 -229
q0 -68 15.5 -124t45.5 -96l353 477q-32 28 -72.5 42.5t-87.5 14.5zM371 43q118 0 185.5 84.5t67.5 229.5q0 67 -15 123t-45 97l-353 -477q31 -28 71.5 -42.5t88.5 -14.5z" />
    <glyph glyph-name="Ugrave" unicode="&#xd9;" horiz-adv-x="736" 
d="M648 714v-421q0 -146 -73 -225.5t-207 -79.5t-207 80t-73 227v419h60v-430q0 -117 57.5 -179.5t162.5 -62.5t162.5 62.5t57.5 179.5v430h60zM343 913l58 -144h-35l-109 144h86z" />
    <glyph glyph-name="Uacute" unicode="&#xda;" horiz-adv-x="736" 
d="M648 714v-421q0 -146 -73 -225.5t-207 -79.5t-207 80t-73 227v419h60v-430q0 -117 57.5 -179.5t162.5 -62.5t162.5 62.5t57.5 179.5v430h60zM476 913l-109 -144h-35l58 144h86z" />
    <glyph glyph-name="Ucircumflex" unicode="&#xdb;" horiz-adv-x="736" 
d="M648 714v-421q0 -146 -73 -225.5t-207 -79.5t-207 80t-73 227v419h60v-430q0 -117 57.5 -179.5t162.5 -62.5t162.5 62.5t57.5 179.5v430h60zM241 767l90 146h76l89 -146h-40l-87 99l-87 -99h-41z" />
    <glyph glyph-name="Udieresis" unicode="&#xdc;" horiz-adv-x="736" 
d="M648 714v-421q0 -146 -73 -225.5t-207 -79.5t-207 80t-73 227v419h60v-430q0 -117 57.5 -179.5t162.5 -62.5t162.5 62.5t57.5 179.5v430h60zM488 791h-66v88h66v-88zM315 791h-66v88h66v-88z" />
    <glyph glyph-name="Yacute" unicode="&#xdd;" horiz-adv-x="641" 
d="M350 298v-298h-60v298l-270 416h67l236 -361h2l229 361h67zM442 913l-109 -144h-35l58 144h86z" />
    <glyph glyph-name="Thorn" unicode="&#xde;" horiz-adv-x="638" 
d="M589 367q0 -100 -62.5 -153.5t-179.5 -53.5h-187v-160h-60v714h60v-141h187q117 0 179.5 -53t62.5 -153zM160 519v-305h189q89 0 134 38.5t45 114.5q0 75 -45 113.5t-134 38.5h-189z" />
    <glyph glyph-name="germandbls" unicode="&#xdf;" horiz-adv-x="608" 
d="M495 584q0 -54 -31 -94.5t-76 -51.5q71 -16 117 -74t46 -134q0 -109 -67.5 -173t-173.5 -64q-17 0 -31 1.5t-27 5.5v51q13 -4 26 -5.5t29 -1.5q82 0 135.5 51t53.5 135q0 77 -52.5 127t-135.5 50h-41v53h41q60 0 96 33t36 89q0 54 -34 85t-96 31q-73 0 -115.5 -54
t-42.5 -146v-498h-57v500q0 111 59 179.5t156 68.5q84 0 134.5 -45t50.5 -119z" />
    <glyph glyph-name="agrave" unicode="&#xe0;" horiz-adv-x="540" 
d="M462 0h-60q-5 18 -7.5 42.5t-2.5 45.5q-16 -44 -65 -71.5t-113 -27.5q-69 0 -114 39.5t-45 103.5q0 63 42 100t127 48l168 22v33q0 61 -33.5 93.5t-96.5 32.5q-55 0 -88.5 -27t-38.5 -75h-57q7 70 57.5 111.5t126.5 41.5q90 0 138.5 -43.5t48.5 -125.5v-251
q0 -27 3.5 -50t9.5 -42zM115 131q0 -42 28.5 -67.5t77.5 -25.5q72 0 121.5 44.5t49.5 115.5v54l-151 -17q-71 -10 -98.5 -34.5t-27.5 -69.5zM237 736l58 -154h-35l-106 154h83z" />
    <glyph glyph-name="aacute" unicode="&#xe1;" horiz-adv-x="540" 
d="M462 0h-60q-5 18 -7.5 42.5t-2.5 45.5q-16 -44 -65 -71.5t-113 -27.5q-69 0 -114 39.5t-45 103.5q0 63 42 100t127 48l168 22v33q0 61 -33.5 93.5t-96.5 32.5q-55 0 -88.5 -27t-38.5 -75h-57q7 70 57.5 111.5t126.5 41.5q90 0 138.5 -43.5t48.5 -125.5v-251
q0 -27 3.5 -50t9.5 -42zM115 131q0 -42 28.5 -67.5t77.5 -25.5q72 0 121.5 44.5t49.5 115.5v54l-151 -17q-71 -10 -98.5 -34.5t-27.5 -69.5zM384 736l-106 -154h-35l58 154h83z" />
    <glyph glyph-name="acircumflex" unicode="&#xe2;" horiz-adv-x="540" 
d="M462 0h-60q-5 18 -7.5 42.5t-2.5 45.5q-16 -44 -65 -71.5t-113 -27.5q-69 0 -114 39.5t-45 103.5q0 63 42 100t127 48l168 22v33q0 61 -33.5 93.5t-96.5 32.5q-55 0 -88.5 -27t-38.5 -75h-57q7 70 57.5 111.5t126.5 41.5q90 0 138.5 -43.5t48.5 -125.5v-251
q0 -27 3.5 -50t9.5 -42zM115 131q0 -42 28.5 -67.5t77.5 -25.5q72 0 121.5 44.5t49.5 115.5v54l-151 -17q-71 -10 -98.5 -34.5t-27.5 -69.5zM140 579l92 157h71l92 -157h-40l-87 114l-87 -114h-41z" />
    <glyph glyph-name="atilde" unicode="&#xe3;" horiz-adv-x="540" 
d="M462 0h-60q-5 18 -7.5 42.5t-2.5 45.5q-16 -44 -65 -71.5t-113 -27.5q-69 0 -114 39.5t-45 103.5q0 63 42 100t127 48l168 22v33q0 61 -33.5 93.5t-96.5 32.5q-55 0 -88.5 -27t-38.5 -75h-57q7 70 57.5 111.5t126.5 41.5q90 0 138.5 -43.5t48.5 -125.5v-251
q0 -27 3.5 -50t9.5 -42zM115 131q0 -42 28.5 -67.5t77.5 -25.5q72 0 121.5 44.5t49.5 115.5v54l-151 -17q-71 -10 -98.5 -34.5t-27.5 -69.5zM253 638q-23 21 -33.5 27.5t-20.5 6.5q-21 0 -32 -19.5t-13 -62.5h-43q0 61 23 95t65 34q18 0 35.5 -9t48.5 -37q23 -21 33.5 -27.5
t20.5 -6.5q22 0 33 20t12 61h43q0 -61 -23 -95t-65 -34q-18 0 -35.5 9t-48.5 38z" />
    <glyph glyph-name="adieresis" unicode="&#xe4;" horiz-adv-x="540" 
d="M462 0h-60q-5 18 -7.5 42.5t-2.5 45.5q-16 -44 -65 -71.5t-113 -27.5q-69 0 -114 39.5t-45 103.5q0 63 42 100t127 48l168 22v33q0 61 -33.5 93.5t-96.5 32.5q-55 0 -88.5 -27t-38.5 -75h-57q7 70 57.5 111.5t126.5 41.5q90 0 138.5 -43.5t48.5 -125.5v-251
q0 -27 3.5 -50t9.5 -42zM115 131q0 -42 28.5 -67.5t77.5 -25.5q72 0 121.5 44.5t49.5 115.5v54l-151 -17q-71 -10 -98.5 -34.5t-27.5 -69.5zM387 615h-66v88h66v-88zM214 615h-66v88h66v-88z" />
    <glyph glyph-name="aring" unicode="&#xe5;" horiz-adv-x="540" 
d="M462 0h-60q-5 18 -7.5 42.5t-2.5 45.5q-16 -44 -65 -71.5t-113 -27.5q-69 0 -114 39.5t-45 103.5q0 63 42 100t127 48l168 22v33q0 61 -33.5 93.5t-96.5 32.5q-55 0 -88.5 -27t-38.5 -75h-57q7 70 57.5 111.5t126.5 41.5q90 0 138.5 -43.5t48.5 -125.5v-251
q0 -27 3.5 -50t9.5 -42zM115 131q0 -42 28.5 -67.5t77.5 -25.5q72 0 121.5 44.5t49.5 115.5v54l-151 -17q-71 -10 -98.5 -34.5t-27.5 -69.5zM268 575q-38 0 -66 27.5t-28 65.5q0 39 27.5 67t66.5 28t66 -27.5t27 -67.5q0 -39 -27 -66t-66 -27zM268 616q21 0 36.5 15.5
t15.5 36.5q0 23 -15 38.5t-37 15.5t-37.5 -16t-15.5 -38q0 -21 15.5 -36.5t37.5 -15.5z" />
    <glyph glyph-name="ae" unicode="&#xe6;" horiz-adv-x="878" 
d="M762 142h55q-16 -72 -69 -113t-127 -41q-68 0 -120.5 29.5t-80.5 84.5q-31 -56 -81.5 -84.5t-117.5 -28.5q-72 0 -119 40t-47 105q0 70 54 110t145 40h138v52q0 61 -33.5 93.5t-96.5 32.5q-55 0 -88.5 -27t-38.5 -75h-57q7 70 57.5 111.5t126.5 41.5q63 0 107 -27.5
t62 -77.5q32 50 79.5 77.5t103.5 27.5q96 0 151.5 -68.5t55.5 -180.5v-28h-376q2 -93 49 -145t127 -52q53 0 87.5 25t53.5 78zM614 462q-69 0 -114 -47t-53 -131h315q-2 83 -41 130.5t-107 47.5zM115 133q0 -43 29.5 -68.5t81.5 -25.5q75 0 120.5 43t45.5 117v37h-134
q-71 0 -107 -26t-36 -77z" />
    <glyph glyph-name="ccedilla" unicode="&#xe7;" horiz-adv-x="529" 
d="M375 -108q0 -38 -30.5 -60t-77.5 -22q-23 0 -44.5 5t-38.5 14v43q19 -10 40 -15.5t43 -5.5q27 0 43 9.5t16 26.5q0 25 -27 32t-61 -4l-18 19l34 56q-91 11 -144 81t-53 179q0 118 62.5 190t164.5 72q79 0 129 -43t62 -120h-55q-13 56 -46.5 84t-89.5 28
q-79 0 -124.5 -56.5t-45.5 -154.5t45 -154.5t125 -56.5q56 0 89.5 28t46.5 84h55q-12 -76 -60 -118.5t-125 -44.5l-18 -29q44 4 73.5 -14t29.5 -53z" />
    <glyph glyph-name="egrave" unicode="&#xe8;" horiz-adv-x="547" 
d="M432 142h55q-16 -72 -69.5 -113t-127.5 -41q-105 0 -169 70.5t-64 188.5t63.5 191.5t163.5 73.5q96 0 151 -67t55 -177v-28h-376q1 -95 48 -148t128 -53q53 0 88 25.5t54 77.5zM284 461q-69 0 -113.5 -45.5t-54.5 -127.5h316q-3 82 -41.5 127.5t-106.5 45.5zM250 736
l58 -154h-35l-106 154h83z" />
    <glyph glyph-name="eacute" unicode="&#xe9;" horiz-adv-x="547" 
d="M432 142h55q-16 -72 -69.5 -113t-127.5 -41q-105 0 -169 70.5t-64 188.5t63.5 191.5t163.5 73.5q96 0 151 -67t55 -177v-28h-376q1 -95 48 -148t128 -53q53 0 88 25.5t54 77.5zM284 461q-69 0 -113.5 -45.5t-54.5 -127.5h316q-3 82 -41.5 127.5t-106.5 45.5zM405 736
l-106 -154h-35l58 154h83z" />
    <glyph glyph-name="ecircumflex" unicode="&#xea;" horiz-adv-x="547" 
d="M432 142h55q-16 -72 -69.5 -113t-127.5 -41q-105 0 -169 70.5t-64 188.5t63.5 191.5t163.5 73.5q96 0 151 -67t55 -177v-28h-376q1 -95 48 -148t128 -53q53 0 88 25.5t54 77.5zM284 461q-69 0 -113.5 -45.5t-54.5 -127.5h316q-3 82 -41.5 127.5t-106.5 45.5zM157 579
l92 157h71l92 -157h-40l-87 114l-87 -114h-41z" />
    <glyph glyph-name="edieresis" unicode="&#xeb;" horiz-adv-x="547" 
d="M432 142h55q-16 -72 -69.5 -113t-127.5 -41q-105 0 -169 70.5t-64 188.5t63.5 191.5t163.5 73.5q96 0 151 -67t55 -177v-28h-376q1 -95 48 -148t128 -53q53 0 88 25.5t54 77.5zM284 461q-69 0 -113.5 -45.5t-54.5 -127.5h316q-3 82 -41.5 127.5t-106.5 45.5zM404 615h-66
v88h66v-88zM231 615h-66v88h66v-88z" />
    <glyph glyph-name="igrave" unicode="&#xec;" horiz-adv-x="248" 
d="M95 0v500h58v-500h-58zM89 736l58 -154h-35l-106 154h83z" />
    <glyph glyph-name="iacute" unicode="&#xed;" horiz-adv-x="248" 
d="M95 0v500h58v-500h-58zM241 736l-106 -154h-35l58 154h83z" />
    <glyph glyph-name="icircumflex" unicode="&#xee;" horiz-adv-x="248" 
d="M95 0v500h58v-500h-58zM-3 579l92 157h71l92 -157h-40l-87 114l-87 -114h-41z" />
    <glyph glyph-name="idieresis" unicode="&#xef;" horiz-adv-x="248" 
d="M95 0v500h58v-500h-58zM244 615h-66v88h66v-88zM71 615h-66v88h66v-88z" />
    <glyph glyph-name="eth" unicode="&#xf0;" horiz-adv-x="572" 
d="M515 262q0 -124 -63.5 -199t-165.5 -75t-165.5 72.5t-63.5 190.5q0 117 63.5 189t165.5 72q39 0 74.5 -14.5t60.5 -41.5q-27 48 -53.5 85t-56.5 69l-151 -48l-11 38l130 41q-25 23 -54.5 45t-65.5 44v6h74q26 -16 51 -35.5t49 -42.5l90 29l11 -38l-70 -22
q72 -80 111.5 -175t39.5 -190zM286 461q-80 0 -126 -56.5t-46 -153.5q0 -98 46 -155t126 -57q79 0 125 57t46 155q0 97 -46 153.5t-125 56.5z" />
    <glyph glyph-name="ntilde" unicode="&#xf1;" horiz-adv-x="583" 
d="M95 500h55v-96q17 49 62 78.5t104 29.5q83 0 130 -50t47 -139v-323h-58v311q0 75 -33 113.5t-98 38.5q-71 0 -111 -48t-40 -137v-278h-58v500zM283 638q-23 21 -33.5 27.5t-20.5 6.5q-21 0 -32 -19.5t-13 -62.5h-43q0 61 23 95t65 34q18 0 35.5 -9t48.5 -37
q23 -21 33.5 -27.5t20.5 -6.5q22 0 33 20t12 61h43q0 -61 -23 -95t-65 -34q-18 0 -35.5 9t-48.5 38z" />
    <glyph glyph-name="ograve" unicode="&#xf2;" horiz-adv-x="572" 
d="M286 512q102 0 165.5 -72.5t63.5 -189.5q0 -118 -63.5 -190t-165.5 -72t-165.5 72t-63.5 190q0 117 63.5 189.5t165.5 72.5zM286 461q-80 0 -126 -56.5t-46 -154.5t46 -154.5t126 -56.5t126 56.5t46 154.5t-46 154.5t-126 56.5zM265 736l58 -154h-35l-106 154h83z" />
    <glyph glyph-name="oacute" unicode="&#xf3;" horiz-adv-x="572" 
d="M286 512q102 0 165.5 -72.5t63.5 -189.5q0 -118 -63.5 -190t-165.5 -72t-165.5 72t-63.5 190q0 117 63.5 189.5t165.5 72.5zM286 461q-80 0 -126 -56.5t-46 -154.5t46 -154.5t126 -56.5t126 56.5t46 154.5t-46 154.5t-126 56.5zM396 736l-106 -154h-35l58 154h83z" />
    <glyph glyph-name="ocircumflex" unicode="&#xf4;" horiz-adv-x="572" 
d="M286 512q102 0 165.5 -72.5t63.5 -189.5q0 -118 -63.5 -190t-165.5 -72t-165.5 72t-63.5 190q0 117 63.5 189.5t165.5 72.5zM286 461q-80 0 -126 -56.5t-46 -154.5t46 -154.5t126 -56.5t126 56.5t46 154.5t-46 154.5t-126 56.5zM159 579l92 157h71l92 -157h-40l-87 114
l-87 -114h-41z" />
    <glyph glyph-name="otilde" unicode="&#xf5;" horiz-adv-x="572" 
d="M286 512q102 0 165.5 -72.5t63.5 -189.5q0 -118 -63.5 -190t-165.5 -72t-165.5 72t-63.5 190q0 117 63.5 189.5t165.5 72.5zM286 461q-80 0 -126 -56.5t-46 -154.5t46 -154.5t126 -56.5t126 56.5t46 154.5t-46 154.5t-126 56.5zM271 638q-23 21 -33.5 27.5t-20.5 6.5
q-21 0 -32 -19.5t-13 -62.5h-43q0 61 23 95t65 34q18 0 35.5 -9t48.5 -37q23 -21 33.5 -27.5t20.5 -6.5q22 0 33 20t12 61h43q0 -61 -23 -95t-65 -34q-18 0 -35.5 9t-48.5 38z" />
    <glyph glyph-name="odieresis" unicode="&#xf6;" horiz-adv-x="572" 
d="M286 512q102 0 165.5 -72.5t63.5 -189.5q0 -118 -63.5 -190t-165.5 -72t-165.5 72t-63.5 190q0 117 63.5 189.5t165.5 72.5zM286 461q-80 0 -126 -56.5t-46 -154.5t46 -154.5t126 -56.5t126 56.5t46 154.5t-46 154.5t-126 56.5zM406 615h-66v88h66v-88zM233 615h-66v88
h66v-88z" />
    <glyph glyph-name="divide" unicode="&#xf7;" horiz-adv-x="660" 
d="M373 502h-85v85h85v-85zM588 306h-517v54h517v-54zM373 78h-85v85h85v-85z" />
    <glyph glyph-name="oslash" unicode="&#xf8;" horiz-adv-x="572" 
d="M515 250q0 -118 -63.5 -190t-165.5 -72q-39 0 -73 11t-62 33l-49 -66l-35 24l53 71q-31 35 -47 83t-16 106q0 117 63.5 189.5t165.5 72.5q40 0 74.5 -11.5t62.5 -34.5l47 63l35 -24l-51 -68q30 -36 45.5 -84t15.5 -103zM286 461q-80 0 -126 -56.5t-46 -154.5
q0 -44 10 -80.5t29 -64.5l239 320q-22 18 -48.5 27t-57.5 9zM286 39q80 0 126 56.5t46 154.5q0 43 -9.5 79t-27.5 63l-239 -319q21 -17 47.5 -25.5t56.5 -8.5z" />
    <glyph glyph-name="ugrave" unicode="&#xf9;" horiz-adv-x="578" 
d="M483 500v-500h-55v95q-18 -50 -61 -78.5t-101 -28.5q-85 0 -130.5 49t-45.5 140v323h59v-313q0 -76 32.5 -114.5t96.5 -38.5q70 0 108.5 49t38.5 139v278h58zM254 736l58 -154h-35l-106 154h83z" />
    <glyph glyph-name="uacute" unicode="&#xfa;" horiz-adv-x="578" 
d="M483 500v-500h-55v95q-18 -50 -61 -78.5t-101 -28.5q-85 0 -130.5 49t-45.5 140v323h59v-313q0 -76 32.5 -114.5t96.5 -38.5q70 0 108.5 49t38.5 139v278h58zM406 736l-106 -154h-35l58 154h83z" />
    <glyph glyph-name="ucircumflex" unicode="&#xfb;" horiz-adv-x="578" 
d="M483 500v-500h-55v95q-18 -50 -61 -78.5t-101 -28.5q-85 0 -130.5 49t-45.5 140v323h59v-313q0 -76 32.5 -114.5t96.5 -38.5q70 0 108.5 49t38.5 139v278h58zM162 579l92 157h71l92 -157h-40l-87 114l-87 -114h-41z" />
    <glyph glyph-name="udieresis" unicode="&#xfc;" horiz-adv-x="578" 
d="M483 500v-500h-55v95q-18 -50 -61 -78.5t-101 -28.5q-85 0 -130.5 49t-45.5 140v323h59v-313q0 -76 32.5 -114.5t96.5 -38.5q70 0 108.5 49t38.5 139v278h58zM409 615h-66v88h66v-88zM236 615h-66v88h66v-88z" />
    <glyph glyph-name="yacute" unicode="&#xfd;" horiz-adv-x="524" 
d="M128 -134q34 0 56.5 25.5t52.5 101.5l-204 507h62l171 -427h2l161 427h62l-205 -519q-40 -104 -72 -135t-86 -32q-9 0 -20.5 1.5t-22.5 3.5v52q11 -3 21 -4t22 -1zM384 736l-106 -154h-35l58 154h83z" />
    <glyph glyph-name="thorn" unicode="&#xfe;" horiz-adv-x="605" 
d="M323 -12q-56 0 -101.5 28.5t-68.5 74.5v-269h-58v914h58v-329q20 47 65.5 76t104.5 29q98 0 161.5 -73t63.5 -189t-63.5 -189t-161.5 -73zM317 463q-78 0 -123 -56t-45 -151v-11q0 -95 45 -151.5t123 -56.5q79 0 125.5 58t46.5 155t-46.5 155t-125.5 58z" />
    <glyph glyph-name="ydieresis" unicode="&#xff;" horiz-adv-x="524" 
d="M128 -134q34 0 56.5 25.5t52.5 101.5l-204 507h62l171 -427h2l161 427h62l-205 -519q-40 -104 -72 -135t-86 -32q-9 0 -20.5 1.5t-22.5 3.5v52q11 -3 21 -4t22 -1zM387 615h-66v88h66v-88zM214 615h-66v88h66v-88z" />
    <glyph glyph-name="Amacron" unicode="&#x100;" horiz-adv-x="690" 
d="M670 0h-64l-85 213h-355l-85 -213h-61l291 714h68zM345 652h-3l-155 -387h313zM482 790h-274v50h274v-50z" />
    <glyph glyph-name="amacron" unicode="&#x101;" horiz-adv-x="540" 
d="M462 0h-60q-5 18 -7.5 42.5t-2.5 45.5q-16 -44 -65 -71.5t-113 -27.5q-69 0 -114 39.5t-45 103.5q0 63 42 100t127 48l168 22v33q0 61 -33.5 93.5t-96.5 32.5q-55 0 -88.5 -27t-38.5 -75h-57q7 70 57.5 111.5t126.5 41.5q90 0 138.5 -43.5t48.5 -125.5v-251
q0 -27 3.5 -50t9.5 -42zM115 131q0 -42 28.5 -67.5t77.5 -25.5q72 0 121.5 44.5t49.5 115.5v54l-151 -17q-71 -10 -98.5 -34.5t-27.5 -69.5zM405 615h-274v50h274v-50z" />
    <glyph glyph-name="Abreve" unicode="&#x102;" horiz-adv-x="690" 
d="M670 0h-64l-85 213h-355l-85 -213h-61l291 714h68zM345 652h-3l-155 -387h313zM346 765q-58 0 -93.5 40.5t-35.5 107.5h51q0 -46 20 -71t58 -25q37 0 57 24.5t20 71.5h51q0 -68 -35 -108t-93 -40z" />
    <glyph glyph-name="abreve" unicode="&#x103;" horiz-adv-x="540" 
d="M462 0h-60q-5 18 -7.5 42.5t-2.5 45.5q-16 -44 -65 -71.5t-113 -27.5q-69 0 -114 39.5t-45 103.5q0 63 42 100t127 48l168 22v33q0 61 -33.5 93.5t-96.5 32.5q-55 0 -88.5 -27t-38.5 -75h-57q7 70 57.5 111.5t126.5 41.5q90 0 138.5 -43.5t48.5 -125.5v-251
q0 -27 3.5 -50t9.5 -42zM115 131q0 -42 28.5 -67.5t77.5 -25.5q72 0 121.5 44.5t49.5 115.5v54l-151 -17q-71 -10 -98.5 -34.5t-27.5 -69.5zM268 588q-58 0 -93.5 40.5t-35.5 107.5h47q2 -49 22.5 -74.5t59.5 -25.5q38 0 58.5 25.5t22.5 74.5h47q0 -68 -35 -108t-93 -40z
" />
    <glyph glyph-name="Aogonek" unicode="&#x104;" horiz-adv-x="690" 
d="M656 -143v-42q-8 -3 -17.5 -4t-23.5 -1q-35 0 -57.5 20t-22.5 54q0 25 12.5 51.5t54.5 75.5l-81 202h-355l-85 -213h-61l291 714h68l291 -714h-29q-34 -43 -45.5 -65.5t-11.5 -42.5q0 -18 11.5 -28.5t32.5 -10.5q9 0 16 1t12 3zM345 652h-3l-155 -387h313z" />
    <glyph glyph-name="aogonek" unicode="&#x105;" horiz-adv-x="540" 
d="M454 -143v-42q-8 -3 -17.5 -4t-23.5 -1q-35 0 -57.5 20t-22.5 54q0 25 12 50.5t54 76.5q-3 17 -5 37.5t-2 39.5q-16 -44 -65 -71.5t-113 -27.5q-69 0 -114 39.5t-45 103.5q0 63 42 100t127 48l168 22v33q0 61 -33.5 93.5t-96.5 32.5q-55 0 -88.5 -27t-38.5 -75h-57
q7 70 57.5 111.5t126.5 41.5q90 0 138.5 -43.5t48.5 -125.5v-251q0 -27 3.5 -50t9.5 -42h-23q-34 -43 -45.5 -65.5t-11.5 -42.5q0 -18 11.5 -28.5t32.5 -10.5q9 0 16 1t12 3zM115 131q0 -42 28.5 -67.5t77.5 -25.5q72 0 121.5 44.5t49.5 115.5v54l-151 -17
q-71 -10 -98.5 -34.5t-27.5 -69.5z" />
    <glyph glyph-name="Cacute" unicode="&#x106;" horiz-adv-x="674" 
d="M366 671q-115 0 -182 -84.5t-67 -228.5q0 -145 67 -230t182 -85q84 0 135 40.5t66 115.5h60q-17 -99 -86 -155t-175 -56q-137 0 -224.5 102.5t-87.5 267.5q0 164 87.5 266t224.5 102q106 0 175 -56t86 -155h-60q-15 75 -66 115.5t-135 40.5zM485 913l-109 -144h-35
l58 144h86z" />
    <glyph glyph-name="cacute" unicode="&#x107;" horiz-adv-x="529" 
d="M284 -12q-102 0 -164.5 71.5t-62.5 190.5q0 118 62.5 190t164.5 72q79 0 129 -43t62 -120h-55q-13 56 -46.5 84t-89.5 28q-79 0 -124.5 -56.5t-45.5 -154.5t45 -154.5t125 -56.5q56 0 89.5 28t46.5 84h55q-12 -78 -62 -120.5t-129 -42.5zM406 736l-106 -154h-35l58 154
h83z" />
    <glyph glyph-name="Ccircumflex" unicode="&#x108;" horiz-adv-x="674" 
d="M366 671q-115 0 -182 -84.5t-67 -228.5q0 -145 67 -230t182 -85q84 0 135 40.5t66 115.5h60q-17 -99 -86 -155t-175 -56q-137 0 -224.5 102.5t-87.5 267.5q0 164 87.5 266t224.5 102q106 0 175 -56t86 -155h-60q-15 75 -66 115.5t-135 40.5zM237 767l90 146h76l89 -146
h-40l-87 99l-87 -99h-41z" />
    <glyph glyph-name="ccircumflex" unicode="&#x109;" horiz-adv-x="529" 
d="M284 -12q-102 0 -164.5 71.5t-62.5 190.5q0 118 62.5 190t164.5 72q79 0 129 -43t62 -120h-55q-13 56 -46.5 84t-89.5 28q-79 0 -124.5 -56.5t-45.5 -154.5t45 -154.5t125 -56.5q56 0 89.5 28t46.5 84h55q-12 -78 -62 -120.5t-129 -42.5zM158 579l92 157h71l92 -157h-40
l-87 114l-87 -114h-41z" />
    <glyph glyph-name="Cdotaccent" unicode="&#x10a;" horiz-adv-x="674" 
d="M366 671q-115 0 -182 -84.5t-67 -228.5q0 -145 67 -230t182 -85q84 0 135 40.5t66 115.5h60q-17 -99 -86 -155t-175 -56q-137 0 -224.5 102.5t-87.5 267.5q0 164 87.5 266t224.5 102q106 0 175 -56t86 -155h-60q-15 75 -66 115.5t-135 40.5zM400 791h-70v88h70v-88z" />
    <glyph glyph-name="cdotaccent" unicode="&#x10b;" horiz-adv-x="529" 
d="M284 -12q-102 0 -164.5 71.5t-62.5 190.5q0 118 62.5 190t164.5 72q79 0 129 -43t62 -120h-55q-13 56 -46.5 84t-89.5 28q-79 0 -124.5 -56.5t-45.5 -154.5t45 -154.5t125 -56.5q56 0 89.5 28t46.5 84h55q-12 -78 -62 -120.5t-129 -42.5zM321 615h-70v88h70v-88z" />
    <glyph glyph-name="Ccaron" unicode="&#x10c;" horiz-adv-x="674" 
d="M366 671q-115 0 -182 -84.5t-67 -228.5q0 -145 67 -230t182 -85q84 0 135 40.5t66 115.5h60q-17 -99 -86 -155t-175 -56q-137 0 -224.5 102.5t-87.5 267.5q0 164 87.5 266t224.5 102q106 0 175 -56t86 -155h-60q-15 75 -66 115.5t-135 40.5zM278 913l87 -99l87 99h40
l-89 -146h-76l-90 146h41z" />
    <glyph glyph-name="ccaron" unicode="&#x10d;" horiz-adv-x="529" 
d="M284 -12q-102 0 -164.5 71.5t-62.5 190.5q0 118 62.5 190t164.5 72q79 0 129 -43t62 -120h-55q-13 56 -46.5 84t-89.5 28q-79 0 -124.5 -56.5t-45.5 -154.5t45 -154.5t125 -56.5q56 0 89.5 28t46.5 84h55q-12 -78 -62 -120.5t-129 -42.5zM199 736l87 -114l87 114h40
l-92 -157h-71l-92 157h41z" />
    <glyph glyph-name="Dcaron" unicode="&#x10e;" horiz-adv-x="738" 
d="M100 714h241q153 0 248 -99t95 -258q0 -160 -95 -258.5t-248 -98.5h-241v714zM621 357q0 140 -75 221.5t-205 81.5h-181v-606h181q130 0 205 81.5t75 221.5zM253 913l87 -99l87 99h40l-89 -146h-76l-90 146h41z" />
    <glyph glyph-name="dcaron" unicode="&#x10f;" horiz-adv-x="605" 
d="M282 -12q-98 0 -161.5 73t-63.5 189t63.5 189t161.5 73q59 0 104.5 -29t65.5 -76v329h58v-736h-55v91q-22 -46 -69 -74.5t-104 -28.5zM288 463q-79 0 -125.5 -58t-46.5 -155t46.5 -155t125.5 -58q78 0 123 56.5t45 151.5v11q0 95 -45 151t-123 56zM692 736l-72 -210h-30
l27 210h75z" />
    <glyph glyph-name="Dcroat" unicode="&#x110;" horiz-adv-x="748" 
d="M694 357q0 -160 -95 -258.5t-248 -98.5h-241v336h-85v54h85v324h241q153 0 248 -99t95 -258zM170 336v-282h181q130 0 205 81.5t75 221.5t-75 221.5t-205 81.5h-181v-270h167v-54h-167z" />
    <glyph glyph-name="dcroat" unicode="&#x111;" horiz-adv-x="615" 
d="M455 0v91q-22 -46 -69 -74.5t-104 -28.5q-98 0 -161.5 73t-63.5 189t63.5 189t161.5 73q59 0 104.5 -29t65.5 -76v187h-132v44h132v98h58v-98h84v-44h-84v-594h-55zM288 37q78 0 123 56.5t45 151.5v11q0 95 -45 151t-123 56q-79 0 -125.5 -58t-46.5 -155t46.5 -155
t125.5 -58z" />
    <glyph glyph-name="Emacron" unicode="&#x112;" horiz-adv-x="633" 
d="M563 54v-54h-463v714h465v-54h-405v-277h361v-54h-361v-275h403zM470 790h-274v50h274v-50z" />
    <glyph glyph-name="emacron" unicode="&#x113;" horiz-adv-x="547" 
d="M432 142h55q-16 -72 -69.5 -113t-127.5 -41q-105 0 -169 70.5t-64 188.5t63.5 191.5t163.5 73.5q96 0 151 -67t55 -177v-28h-376q1 -95 48 -148t128 -53q53 0 88 25.5t54 77.5zM284 461q-69 0 -113.5 -45.5t-54.5 -127.5h316q-3 82 -41.5 127.5t-106.5 45.5zM422 615
h-274v50h274v-50z" />
    <glyph glyph-name="Ebreve" unicode="&#x114;" horiz-adv-x="633" 
d="M563 54v-54h-463v714h465v-54h-405v-277h361v-54h-361v-275h403zM333 765q-58 0 -93.5 40.5t-35.5 107.5h51q0 -46 20 -71t58 -25q37 0 57 24.5t20 71.5h51q0 -68 -35 -108t-93 -40z" />
    <glyph glyph-name="ebreve" unicode="&#x115;" horiz-adv-x="547" 
d="M432 142h55q-16 -72 -69.5 -113t-127.5 -41q-105 0 -169 70.5t-64 188.5t63.5 191.5t163.5 73.5q96 0 151 -67t55 -177v-28h-376q1 -95 48 -148t128 -53q53 0 88 25.5t54 77.5zM284 461q-69 0 -113.5 -45.5t-54.5 -127.5h316q-3 82 -41.5 127.5t-106.5 45.5zM285 588
q-58 0 -93.5 40.5t-35.5 107.5h47q2 -49 22.5 -74.5t59.5 -25.5q38 0 58.5 25.5t22.5 74.5h47q0 -68 -35 -108t-93 -40z" />
    <glyph glyph-name="Edotaccent" unicode="&#x116;" horiz-adv-x="633" 
d="M563 54v-54h-463v714h465v-54h-405v-277h361v-54h-361v-275h403zM368 791h-70v88h70v-88z" />
    <glyph glyph-name="edotaccent" unicode="&#x117;" horiz-adv-x="547" 
d="M432 142h55q-16 -72 -69.5 -113t-127.5 -41q-105 0 -169 70.5t-64 188.5t63.5 191.5t163.5 73.5q96 0 151 -67t55 -177v-28h-376q1 -95 48 -148t128 -53q53 0 88 25.5t54 77.5zM284 461q-69 0 -113.5 -45.5t-54.5 -127.5h316q-3 82 -41.5 127.5t-106.5 45.5zM320 615h-70
v88h70v-88z" />
    <glyph glyph-name="Eogonek" unicode="&#x118;" horiz-adv-x="633" 
d="M529 -143v-42q-8 -3 -17.5 -4t-23.5 -1q-35 0 -57.5 20t-22.5 54q0 24 11.5 48.5t45.5 67.5h-365v714h465v-54h-405v-277h361v-54h-361v-275h403v-54h-49q-34 -43 -45.5 -65.5t-11.5 -42.5q0 -18 11.5 -28.5t32.5 -10.5q9 0 16 1t12 3z" />
    <glyph glyph-name="eogonek" unicode="&#x119;" horiz-adv-x="547" 
d="M395 -143v-42q-8 -3 -17.5 -4t-23.5 -1q-35 0 -57.5 20t-22.5 54q0 27 12.5 53t37.5 53q-12 -1 -20 -1.5t-14 -0.5q-105 0 -169 70.5t-64 188.5t63.5 191.5t163.5 73.5q96 0 151 -67t55 -177v-28h-376q1 -94 48 -147.5t128 -53.5q53 0 88 25.5t54 77.5h55
q-9 -37 -30.5 -68t-69.5 -69q-31 -25 -47.5 -53t-16.5 -57q0 -20 11.5 -31t32.5 -11q9 0 16 1t12 3zM284 461q-69 0 -113.5 -45.5t-54.5 -127.5h316q-3 82 -41.5 127.5t-106.5 45.5z" />
    <glyph glyph-name="Ecaron" unicode="&#x11a;" horiz-adv-x="633" 
d="M563 54v-54h-463v714h465v-54h-405v-277h361v-54h-361v-275h403zM246 913l87 -99l87 99h40l-89 -146h-76l-90 146h41z" />
    <glyph glyph-name="ecaron" unicode="&#x11b;" horiz-adv-x="547" 
d="M432 142h55q-16 -72 -69.5 -113t-127.5 -41q-105 0 -169 70.5t-64 188.5t63.5 191.5t163.5 73.5q96 0 151 -67t55 -177v-28h-376q1 -95 48 -148t128 -53q53 0 88 25.5t54 77.5zM284 461q-69 0 -113.5 -45.5t-54.5 -127.5h316q-3 82 -41.5 127.5t-106.5 45.5zM198 736
l87 -114l87 114h40l-92 -157h-71l-92 157h41z" />
    <glyph glyph-name="Gcircumflex" unicode="&#x11c;" horiz-adv-x="737" 
d="M375 -12q-141 0 -231 102.5t-90 267.5q0 163 90.5 265.5t231.5 102.5q109 0 179.5 -56t88.5 -156h-61q-15 75 -69 116t-138 41q-119 0 -189 -85t-70 -228q0 -144 68.5 -229.5t186.5 -85.5q100 0 163.5 58.5t63.5 153.5v44h-186v53h244v-352h-49l-8 129q-20 -61 -84 -101
t-141 -40zM253 767l90 146h76l89 -146h-40l-87 99l-87 -99h-41z" />
    <glyph glyph-name="gcircumflex" unicode="&#x11d;" horiz-adv-x="602" 
d="M280 -141q82 0 125 44t43 128v74q-21 -45 -66 -72t-104 -27q-99 0 -161 70t-62 184q0 111 62.5 181.5t160.5 70.5q58 0 104.5 -28.5t68.5 -74.5v91h56v-469q0 -106 -60 -163.5t-167 -57.5q-88 0 -142 36t-68 104h60q12 -46 48.5 -68.5t101.5 -22.5zM282 57
q76 0 124.5 53.5t48.5 137.5v25q0 84 -48.5 137t-124.5 53q-78 0 -124 -55t-46 -148q0 -92 46.5 -147.5t123.5 -55.5zM159 579l92 157h71l92 -157h-40l-87 114l-87 -114h-41z" />
    <glyph glyph-name="Gbreve" unicode="&#x11e;" horiz-adv-x="737" 
d="M375 -12q-141 0 -231 102.5t-90 267.5q0 163 90.5 265.5t231.5 102.5q109 0 179.5 -56t88.5 -156h-61q-15 75 -69 116t-138 41q-119 0 -189 -85t-70 -228q0 -144 68.5 -229.5t186.5 -85.5q100 0 163.5 58.5t63.5 153.5v44h-186v53h244v-352h-49l-8 129q-20 -61 -84 -101
t-141 -40zM381 765q-58 0 -93.5 40.5t-35.5 107.5h51q0 -46 20 -71t58 -25q37 0 57 24.5t20 71.5h51q0 -68 -35 -108t-93 -40z" />
    <glyph glyph-name="gbreve" unicode="&#x11f;" horiz-adv-x="602" 
d="M280 -141q82 0 125 44t43 128v74q-21 -45 -66 -72t-104 -27q-99 0 -161 70t-62 184q0 111 62.5 181.5t160.5 70.5q58 0 104.5 -28.5t68.5 -74.5v91h56v-469q0 -106 -60 -163.5t-167 -57.5q-88 0 -142 36t-68 104h60q12 -46 48.5 -68.5t101.5 -22.5zM282 57
q76 0 124.5 53.5t48.5 137.5v25q0 84 -48.5 137t-124.5 53q-78 0 -124 -55t-46 -148q0 -92 46.5 -147.5t123.5 -55.5zM287 588q-58 0 -93.5 40.5t-35.5 107.5h47q2 -49 22.5 -74.5t59.5 -25.5q38 0 58.5 25.5t22.5 74.5h47q0 -68 -35 -108t-93 -40z" />
    <glyph glyph-name="Gdotaccent" unicode="&#x120;" horiz-adv-x="737" 
d="M375 -12q-141 0 -231 102.5t-90 267.5q0 163 90.5 265.5t231.5 102.5q109 0 179.5 -56t88.5 -156h-61q-15 75 -69 116t-138 41q-119 0 -189 -85t-70 -228q0 -144 68.5 -229.5t186.5 -85.5q100 0 163.5 58.5t63.5 153.5v44h-186v53h244v-352h-49l-8 129q-20 -61 -84 -101
t-141 -40zM415 791h-70v88h70v-88z" />
    <glyph glyph-name="gdotaccent" unicode="&#x121;" horiz-adv-x="602" 
d="M280 -141q82 0 125 44t43 128v74q-21 -45 -66 -72t-104 -27q-99 0 -161 70t-62 184q0 111 62.5 181.5t160.5 70.5q58 0 104.5 -28.5t68.5 -74.5v91h56v-469q0 -106 -60 -163.5t-167 -57.5q-88 0 -142 36t-68 104h60q12 -46 48.5 -68.5t101.5 -22.5zM282 57
q76 0 124.5 53.5t48.5 137.5v25q0 84 -48.5 137t-124.5 53q-78 0 -124 -55t-46 -148q0 -92 46.5 -147.5t123.5 -55.5zM322 615h-70v88h70v-88z" />
    <glyph glyph-name="Gcommaaccent" unicode="&#x122;" horiz-adv-x="737" 
d="M375 -12q-141 0 -231 102.5t-90 267.5q0 163 90.5 265.5t231.5 102.5q109 0 179.5 -56t88.5 -156h-61q-15 75 -69 116t-138 41q-119 0 -189 -85t-70 -228q0 -144 68.5 -229.5t186.5 -85.5q100 0 163.5 58.5t63.5 153.5v44h-186v53h244v-352h-49l-8 129q-20 -61 -84 -101
t-141 -40zM379 -121h-42v65h84v-66q0 -49 -22 -73t-67 -24v33q25 0 36 15t11 50z" />
    <glyph glyph-name="gcommaaccent" unicode="&#x123;" horiz-adv-x="602" 
d="M280 -141q82 0 125 44t43 128v74q-21 -45 -66 -72t-104 -27q-99 0 -161 70t-62 184q0 111 62.5 181.5t160.5 70.5q58 0 104.5 -28.5t68.5 -74.5v91h56v-469q0 -106 -60 -163.5t-167 -57.5q-88 0 -142 36t-68 104h60q12 -46 48.5 -68.5t101.5 -22.5zM282 57
q76 0 124.5 53.5t48.5 137.5v25q0 84 -48.5 137t-124.5 53q-78 0 -124 -55t-46 -148q0 -92 46.5 -147.5t123.5 -55.5zM284 652h42v-65h-84v66q0 49 22 73t67 24v-33q-25 0 -36 -15t-11 -50z" />
    <glyph glyph-name="Hcircumflex" unicode="&#x124;" horiz-adv-x="767" 
d="M160 0h-60v714h60v-324h447v324h60v-714h-60v336h-447v-336zM256 767l90 146h76l89 -146h-40l-87 99l-87 -99h-41z" />
    <glyph glyph-name="hcircumflex" unicode="&#x125;" horiz-adv-x="583" 
d="M153 736v-332q18 51 61 79.5t102 28.5q83 0 130 -50t47 -139v-323h-58v311q0 75 -33 113.5t-98 38.5q-71 0 -111 -48t-40 -137v-278h-58v736h58zM170 767l90 146h76l89 -146h-40l-87 99l-87 -99h-41z" />
    <glyph glyph-name="Hbar" unicode="&#x126;" horiz-adv-x="787" 
d="M617 296h-447v-296h-60v506h-85v54h85v154h60v-154h447v154h60v-154h85v-54h-85v-506h-60v296zM170 506v-156h447v156h-447z" />
    <glyph glyph-name="hbar" unicode="&#x127;" horiz-adv-x="593" 
d="M314 463q-71 0 -111 -48t-40 -137v-278h-58v594h-84v43h84v99h58v-99h132v-43h-132v-190q18 51 61 79.5t102 28.5q83 0 130 -50t47 -139v-323h-58v311q0 75 -33 113.5t-98 38.5z" />
    <glyph glyph-name="Itilde" unicode="&#x128;" horiz-adv-x="260" 
d="M160 0h-60v714h60v-714zM114 817q-23 20 -33.5 26t-20.5 6q-21 0 -32 -18.5t-13 -58.5h-43q0 61 23 95t65 34q18 0 35.5 -8.5t48.5 -35.5q23 -20 33.5 -26t20.5 -6q22 0 33 19.5t12 58.5h43q0 -62 -23 -96t-65 -34q-18 0 -35.5 8.5t-48.5 35.5z" />
    <glyph glyph-name="itilde" unicode="&#x129;" horiz-adv-x="248" 
d="M109 639q-15 21 -23 27t-16 6q-21 0 -32 -19.5t-13 -62.5h-43q0 61 23 95t65 34q18 0 33 -9.5t36 -38.5q15 -20 23 -26t16 -6q22 0 33 20t12 61h43q0 -61 -23 -95t-65 -34q-18 0 -33 9.5t-36 38.5zM95 0v500h58v-500h-58z" />
    <glyph glyph-name="Imacron" unicode="&#x12a;" horiz-adv-x="260" 
d="M160 0h-60v714h60v-714zM267 790h-274v50h274v-50z" />
    <glyph glyph-name="imacron" unicode="&#x12b;" horiz-adv-x="248" 
d="M241 615h-234v50h234v-50zM95 0v500h58v-500h-58z" />
    <glyph glyph-name="Ibreve" unicode="&#x12c;" horiz-adv-x="260" 
d="M160 0h-60v714h60v-714zM131 765q-58 0 -93.5 40.5t-35.5 107.5h51q0 -46 20 -71t58 -25q37 0 57 24.5t20 71.5h51q0 -68 -35 -108t-93 -40z" />
    <glyph glyph-name="ibreve" unicode="&#x12d;" horiz-adv-x="248" 
d="M95 0v500h58v-500h-58zM125 588q-58 0 -93.5 40.5t-35.5 107.5h47q2 -49 22.5 -74.5t59.5 -25.5q38 0 58.5 25.5t22.5 74.5h47q0 -68 -35 -108t-93 -40z" />
    <glyph glyph-name="Iogonek" unicode="&#x12e;" horiz-adv-x="260" 
d="M161 -143v-42q-8 -3 -17.5 -4t-23.5 -1q-35 0 -57.5 20t-22.5 54q0 26 13.5 52t48.5 64h-2v714h60v-714q-34 -27 -52.5 -55t-18.5 -53q0 -18 11.5 -28.5t32.5 -10.5q9 0 16 1t12 3z" />
    <glyph glyph-name="iogonek" unicode="&#x12f;" horiz-adv-x="248" 
d="M159 615h-71v88h71v-88zM118 -190q-35 0 -57.5 20t-22.5 54q0 27 13.5 54t45.5 62h-2v500h58v-500q-32 -25 -49 -53t-17 -55q0 -18 11.5 -28.5t32.5 -10.5q9 0 16 1t12 3v-42q-8 -3 -17.5 -4t-23.5 -1z" />
    <glyph glyph-name="Idotaccent" unicode="&#x130;" horiz-adv-x="260" 
d="M160 0h-60v714h60v-714zM165 791h-70v88h70v-88z" />
    <glyph glyph-name="dotlessi" unicode="&#x131;" horiz-adv-x="248" 
d="M95 0v500h58v-500h-58z" />
    <glyph glyph-name="Jcircumflex" unicode="&#x134;" horiz-adv-x="549" 
d="M234 39q82 0 124.5 54.5t42.5 157.5v463h60v-463q0 -122 -60.5 -192.5t-166.5 -70.5q-96 0 -157.5 57t-65.5 152h60q4 -74 48 -116t115 -42zM299 767l90 146h76l89 -146h-40l-87 99l-87 -99h-41z" />
    <glyph glyph-name="jcircumflex" unicode="&#x135;" horiz-adv-x="248" 
d="M33 -184q-9 0 -17.5 1t-16.5 3v49q11 -1 15.5 -1.5t9.5 -0.5q40 0 55.5 16t15.5 56v561h58v-555q0 -67 -29 -98t-91 -31zM-5 579l92 157h71l92 -157h-40l-87 114l-87 -114h-41z" />
    <glyph glyph-name="Kcommaaccent" unicode="&#x136;" horiz-adv-x="691" 
d="M653 0h-73l-305 356l-115 -114v-242h-60v714h60v-403l401 403h77l-320 -316zM337 -121h-42v65h84v-66q0 -49 -22 -73t-67 -24v33q25 0 36 15t11 50z" />
    <glyph glyph-name="kcommaaccent" unicode="&#x137;" horiz-adv-x="536" 
d="M500 0h-75l-203 249l-69 -65v-184h-58v736h58v-488l265 252h74l-227 -213zM293 -121h-42v65h84v-66q0 -49 -22 -73t-67 -24v33q25 0 36 15t11 50z" />
    <glyph glyph-name="kgreenlandic" unicode="&#x138;" horiz-adv-x="536" 
d="M500 0h-75l-203 249l-69 -65v-184h-58v500h58v-252l265 252h74l-227 -213z" />
    <glyph glyph-name="Lacute" unicode="&#x139;" horiz-adv-x="614" 
d="M552 0h-452v714h60v-660h392v-54zM265 913l-109 -144h-35l58 144h86z" />
    <glyph glyph-name="lacute" unicode="&#x13a;" horiz-adv-x="248" 
d="M153 736v-736h-58v736h58zM261 913l-109 -144h-35l58 144h86z" />
    <glyph glyph-name="Lcommaaccent" unicode="&#x13b;" horiz-adv-x="614" 
d="M552 0h-452v714h60v-660h392v-54zM329 -121h-42v65h84v-66q0 -49 -22 -73t-67 -24v33q25 0 36 15t11 50z" />
    <glyph glyph-name="lcommaaccent" unicode="&#x13c;" horiz-adv-x="248" 
d="M153 736v-736h-58v736h58zM126 -121h-42v65h84v-66q0 -49 -22 -73t-67 -24v33q25 0 36 15t11 50z" />
    <glyph glyph-name="Lcaron" unicode="&#x13d;" horiz-adv-x="614" 
d="M552 0h-452v714h60v-660h392v-54zM424 714l-72 -210h-30l27 210h75z" />
    <glyph glyph-name="lcaron" unicode="&#x13e;" horiz-adv-x="249" 
d="M153 736v-736h-58v736h58zM335 736l-72 -210h-30l27 210h75z" />
    <glyph glyph-name="Ldot" unicode="&#x13f;" horiz-adv-x="614" 
d="M552 0h-452v714h60v-660h392v-54zM472 346h-70v88h70v-88z" />
    <glyph glyph-name="ldot" unicode="&#x140;" horiz-adv-x="387" 
d="M153 736v-736h-58v736h58zM345 296h-70v88h70v-88z" />
    <glyph glyph-name="Lslash" unicode="&#x141;" horiz-adv-x="624" 
d="M170 54h392v-54h-452v311l-85 -31v50l85 31v353h60v-335l171 61v-50l-171 -61v-275z" />
    <glyph glyph-name="lslash" unicode="&#x142;" horiz-adv-x="323" 
d="M294 513v-57l-104 -60v-396h-58v369l-103 -60v56l103 60v311h58v-284z" />
    <glyph glyph-name="Nacute" unicode="&#x143;" horiz-adv-x="746" 
d="M100 714h78l407 -606h2v606h59v-714h-57l-428 640h-2v-640h-59v714zM490 913l-109 -144h-35l58 144h86z" />
    <glyph glyph-name="nacute" unicode="&#x144;" horiz-adv-x="583" 
d="M95 500h55v-96q17 49 62 78.5t104 29.5q83 0 130 -50t47 -139v-323h-58v311q0 75 -33 113.5t-98 38.5q-71 0 -111 -48t-40 -137v-278h-58v500zM414 736l-106 -154h-35l58 154h83z" />
    <glyph glyph-name="Ncommaaccent" unicode="&#x145;" horiz-adv-x="746" 
d="M100 714h78l407 -606h2v606h59v-714h-57l-428 640h-2v-640h-59v714zM372 -121h-42v65h84v-66q0 -49 -22 -73t-67 -24v33q25 0 36 15t11 50z" />
    <glyph glyph-name="ncommaaccent" unicode="&#x146;" horiz-adv-x="583" 
d="M95 500h55v-96q17 49 62 78.5t104 29.5q83 0 130 -50t47 -139v-323h-58v311q0 75 -33 113.5t-98 38.5q-71 0 -111 -48t-40 -137v-278h-58v500zM300 -121h-42v65h84v-66q0 -49 -22 -73t-67 -24v33q25 0 36 15t11 50z" />
    <glyph glyph-name="Ncaron" unicode="&#x147;" horiz-adv-x="746" 
d="M100 714h78l407 -606h2v606h59v-714h-57l-428 640h-2v-640h-59v714zM283 913l87 -99l87 99h40l-89 -146h-76l-90 146h41z" />
    <glyph glyph-name="ncaron" unicode="&#x148;" horiz-adv-x="583" 
d="M95 500h55v-96q17 49 62 78.5t104 29.5q83 0 130 -50t47 -139v-323h-58v311q0 75 -33 113.5t-98 38.5q-71 0 -111 -48t-40 -137v-278h-58v500zM211 736l87 -114l87 114h40l-92 -157h-71l-92 157h41z" />
    <glyph glyph-name="Eng" unicode="&#x14a;" horiz-adv-x="746" 
d="M526 -184q-9 0 -17.5 1t-16.5 3v49q11 -1 15.5 -1.5t9.5 -0.5q40 0 55 16t15 56v64l-426 637h-2v-640h-59v714h78l407 -606h2v606h59v-769q0 -67 -29 -98t-91 -31z" />
    <glyph glyph-name="eng" unicode="&#x14b;" horiz-adv-x="583" 
d="M373 -184q-9 0 -17.5 1t-16.5 3v49q11 -1 15.5 -1.5t9.5 -0.5q40 0 55.5 16t15.5 56v372q0 75 -33 113.5t-98 38.5q-71 0 -111 -48t-40 -137v-278h-58v500h55v-96q17 49 62 78.5t104 29.5q83 0 130 -50t47 -139v-378q0 -67 -29 -98t-91 -31z" />
    <glyph glyph-name="Omacron" unicode="&#x14c;" horiz-adv-x="741" 
d="M371 726q141 0 228.5 -103t87.5 -266q0 -164 -87.5 -266.5t-228.5 -102.5q-142 0 -229.5 102.5t-87.5 266.5t88 266.5t229 102.5zM371 43q118 0 185.5 84.5t67.5 229.5q0 144 -67.5 229t-185.5 85q-119 0 -186.5 -85t-67.5 -229q0 -145 67.5 -229.5t186.5 -84.5zM507 790
h-274v50h274v-50z" />
    <glyph glyph-name="omacron" unicode="&#x14d;" horiz-adv-x="572" 
d="M286 512q102 0 165.5 -72.5t63.5 -189.5q0 -118 -63.5 -190t-165.5 -72t-165.5 72t-63.5 190q0 117 63.5 189.5t165.5 72.5zM286 461q-80 0 -126 -56.5t-46 -154.5t46 -154.5t126 -56.5t126 56.5t46 154.5t-46 154.5t-126 56.5zM423 615h-274v50h274v-50z" />
    <glyph glyph-name="Obreve" unicode="&#x14e;" horiz-adv-x="741" 
d="M371 726q141 0 228.5 -103t87.5 -266q0 -164 -87.5 -266.5t-228.5 -102.5q-142 0 -229.5 102.5t-87.5 266.5t88 266.5t229 102.5zM371 43q118 0 185.5 84.5t67.5 229.5q0 144 -67.5 229t-185.5 85q-119 0 -186.5 -85t-67.5 -229q0 -145 67.5 -229.5t186.5 -84.5zM371 765
q-58 0 -93.5 40.5t-35.5 107.5h51q0 -46 20 -71t58 -25q37 0 57 24.5t20 71.5h51q0 -68 -35 -108t-93 -40z" />
    <glyph glyph-name="obreve" unicode="&#x14f;" horiz-adv-x="572" 
d="M286 512q102 0 165.5 -72.5t63.5 -189.5q0 -118 -63.5 -190t-165.5 -72t-165.5 72t-63.5 190q0 117 63.5 189.5t165.5 72.5zM286 461q-80 0 -126 -56.5t-46 -154.5t46 -154.5t126 -56.5t126 56.5t46 154.5t-46 154.5t-126 56.5zM287 588q-58 0 -93.5 40.5t-35.5 107.5h47
q2 -49 22.5 -74.5t59.5 -25.5q38 0 58.5 25.5t22.5 74.5h47q0 -68 -35 -108t-93 -40z" />
    <glyph glyph-name="Ohungarumlaut" unicode="&#x150;" horiz-adv-x="741" 
d="M371 726q141 0 228.5 -103t87.5 -266q0 -164 -87.5 -266.5t-228.5 -102.5q-142 0 -229.5 102.5t-87.5 266.5t88 266.5t229 102.5zM371 43q118 0 185.5 84.5t67.5 229.5q0 144 -67.5 229t-185.5 85q-119 0 -186.5 -85t-67.5 -229q0 -145 67.5 -229.5t186.5 -84.5zM446 769
h-34l58 144h80zM305 769h-35l59 144h79z" />
    <glyph glyph-name="ohungarumlaut" unicode="&#x151;" horiz-adv-x="572" 
d="M286 512q102 0 165.5 -72.5t63.5 -189.5q0 -118 -63.5 -190t-165.5 -72t-165.5 72t-63.5 190q0 117 63.5 189.5t165.5 72.5zM286 461q-80 0 -126 -56.5t-46 -154.5t46 -154.5t126 -56.5t126 56.5t46 154.5t-46 154.5t-126 56.5zM372 582h-34l58 154h80zM231 582h-35
l59 154h79z" />
    <glyph glyph-name="OE" unicode="&#x152;" horiz-adv-x="1111" 
d="M1041 0h-644q-153 0 -248 99t-95 258q0 160 95 258.5t248 98.5h646v-54h-405v-277h361v-54h-361v-275h403v-54zM117 357q0 -140 75 -221.5t205 -81.5h181v606h-181q-130 0 -205 -81.5t-75 -221.5z" />
    <glyph glyph-name="oe" unicode="&#x153;" horiz-adv-x="943" 
d="M827 142h56q-16 -72 -69.5 -113t-127.5 -41q-68 0 -119 32.5t-84 97.5q-35 -66 -83.5 -98t-113.5 -32q-102 0 -165.5 72t-63.5 190q0 117 63.5 189.5t165.5 72.5q65 0 114.5 -33t83.5 -100q33 66 82 99.5t113 33.5q97 0 152 -67.5t55 -179.5v-28h-376q2 -93 49 -145.5
t127 -52.5q53 0 87.5 25t53.5 78zM679 461q-69 0 -113.5 -46.5t-53.5 -129.5h315q-2 83 -41 129.5t-107 46.5zM286 461q-80 0 -126 -56.5t-46 -154.5t46 -154.5t126 -56.5q79 0 125 57t46 155q0 97 -46 153.5t-125 56.5z" />
    <glyph glyph-name="Racute" unicode="&#x154;" horiz-adv-x="677" 
d="M160 302v-302h-60v714h258q117 0 180 -53t63 -153q0 -77 -48 -131t-124 -67l205 -310h-70l-198 302h-206zM160 660v-305h198q87 0 134 40t47 113q0 72 -47.5 112t-133.5 40h-198zM450 913l-109 -144h-35l58 144h86z" />
    <glyph glyph-name="racute" unicode="&#x155;" horiz-adv-x="367" 
d="M312 512q10 0 20 -1l20 -2v-54q-7 2 -18 3t-22 1q-69 0 -114 -56t-45 -148v-255h-58v500h55v-122q15 61 59 97.5t103 36.5zM327 736l-106 -154h-35l58 154h83z" />
    <glyph glyph-name="Rcommaaccent" unicode="&#x156;" horiz-adv-x="677" 
d="M160 302v-302h-60v714h258q117 0 180 -53t63 -153q0 -77 -48 -131t-124 -67l205 -310h-70l-198 302h-206zM160 660v-305h198q87 0 134 40t47 113q0 72 -47.5 112t-133.5 40h-198zM332 -121h-42v65h84v-66q0 -49 -22 -73t-67 -24v33q25 0 36 15t11 50z" />
    <glyph glyph-name="rcommaaccent" unicode="&#x157;" horiz-adv-x="367" 
d="M312 512q10 0 20 -1l20 -2v-54q-7 2 -18 3t-22 1q-69 0 -114 -56t-45 -148v-255h-58v500h55v-122q15 61 59 97.5t103 36.5zM127 -121h-42v65h84v-66q0 -49 -22 -73t-67 -24v33q25 0 36 15t11 50z" />
    <glyph glyph-name="Rcaron" unicode="&#x158;" horiz-adv-x="677" 
d="M160 302v-302h-60v714h258q117 0 180 -53t63 -153q0 -77 -48 -131t-124 -67l205 -310h-70l-198 302h-206zM160 660v-305h198q87 0 134 40t47 113q0 72 -47.5 112t-133.5 40h-198zM243 913l87 -99l87 99h40l-89 -146h-76l-90 146h41z" />
    <glyph glyph-name="rcaron" unicode="&#x159;" horiz-adv-x="367" 
d="M312 512q10 0 20 -1l20 -2v-54q-7 2 -18 3t-22 1q-69 0 -114 -56t-45 -148v-255h-58v500h55v-122q15 61 59 97.5t103 36.5zM124 736l87 -114l87 114h40l-92 -157h-71l-92 157h41z" />
    <glyph glyph-name="Sacute" unicode="&#x15a;" horiz-adv-x="650" 
d="M339 -12q-126 0 -202.5 58t-82.5 163h58q8 -82 66.5 -125t160.5 -43q87 0 139 40.5t52 108.5q0 53 -33.5 84t-103.5 44l-138 28q-92 18 -134.5 62t-42.5 118q0 87 66.5 143.5t171.5 56.5q114 0 181 -48.5t76 -139.5h-59q-10 63 -62.5 99t-135.5 36q-81 0 -130.5 -41
t-49.5 -106q0 -53 29 -80.5t105 -43.5l142 -29q92 -19 134 -63t42 -118q0 -89 -70 -146.5t-179 -57.5zM444 913l-109 -144h-35l58 144h86z" />
    <glyph glyph-name="sacute" unicode="&#x15b;" horiz-adv-x="505" 
d="M259 -12q-91 0 -146.5 42t-61.5 116h56q5 -52 45.5 -80.5t106.5 -28.5q59 0 95.5 26.5t36.5 71.5q0 33 -23 53t-71 30l-88 18q-75 15 -106 46t-31 85q0 62 50 103.5t126 41.5q83 0 131 -35.5t55 -103.5h-55q-5 43 -39 66.5t-92 23.5q-55 0 -88.5 -26t-33.5 -69
q0 -33 21.5 -51.5t72.5 -28.5l100 -20q66 -14 96 -46t30 -86q0 -63 -53 -105.5t-134 -42.5zM372 736l-106 -154h-35l58 154h83z" />
    <glyph glyph-name="Scircumflex" unicode="&#x15c;" horiz-adv-x="650" 
d="M339 -12q-126 0 -202.5 58t-82.5 163h58q8 -82 66.5 -125t160.5 -43q87 0 139 40.5t52 108.5q0 53 -33.5 84t-103.5 44l-138 28q-92 18 -134.5 62t-42.5 118q0 87 66.5 143.5t171.5 56.5q114 0 181 -48.5t76 -139.5h-59q-10 63 -62.5 99t-135.5 36q-81 0 -130.5 -41
t-49.5 -106q0 -53 29 -80.5t105 -43.5l142 -29q92 -19 134 -63t42 -118q0 -89 -70 -146.5t-179 -57.5zM206 767l90 146h76l89 -146h-40l-87 99l-87 -99h-41z" />
    <glyph glyph-name="scircumflex" unicode="&#x15d;" horiz-adv-x="505" 
d="M259 -12q-91 0 -146.5 42t-61.5 116h56q5 -52 45.5 -80.5t106.5 -28.5q59 0 95.5 26.5t36.5 71.5q0 33 -23 53t-71 30l-88 18q-75 15 -106 46t-31 85q0 62 50 103.5t126 41.5q83 0 131 -35.5t55 -103.5h-55q-5 43 -39 66.5t-92 23.5q-55 0 -88.5 -26t-33.5 -69
q0 -33 21.5 -51.5t72.5 -28.5l100 -20q66 -14 96 -46t30 -86q0 -63 -53 -105.5t-134 -42.5zM128 579l92 157h71l92 -157h-40l-87 114l-87 -114h-41z" />
    <glyph glyph-name="Scedilla" unicode="&#x15e;" horiz-adv-x="650" 
d="M423 -108q0 -38 -30.5 -60t-77.5 -22q-23 0 -44.5 5t-38.5 14v43q19 -10 40 -15.5t43 -5.5q27 0 43 9.5t16 26.5q0 25 -27 32t-61 -4l-18 19l34 55q-112 9 -177.5 66.5t-70.5 153.5h58q8 -82 66.5 -125t160.5 -43q87 0 139 40.5t52 108.5q0 53 -33.5 84t-103.5 44
l-138 28q-92 18 -134.5 62t-42.5 118q0 87 66.5 143.5t171.5 56.5q114 0 181 -48.5t76 -139.5h-59q-10 63 -62.5 99t-135.5 36q-81 0 -130.5 -41t-49.5 -106q0 -53 29 -80.5t105 -43.5l142 -29q92 -19 134 -63t42 -118q0 -89 -70 -146.5t-179 -57.5h-1l-18 -29
q44 4 73.5 -14t29.5 -53z" />
    <glyph glyph-name="scedilla" unicode="&#x15f;" horiz-adv-x="505" 
d="M345 -108q0 -38 -30.5 -60t-77.5 -22q-23 0 -44.5 5t-38.5 14v43q19 -10 40 -15.5t43 -5.5q27 0 43 9.5t16 26.5q0 25 -27 32t-61 -4l-18 19l34 56q-77 8 -122.5 48.5t-50.5 107.5h56q5 -52 45.5 -80.5t106.5 -28.5q59 0 95.5 26.5t36.5 71.5q0 33 -23 53t-71 30l-88 18
q-75 15 -106 46t-31 85q0 62 50 103.5t126 41.5q83 0 131 -35.5t55 -103.5h-55q-5 43 -39 66.5t-92 23.5q-55 0 -88.5 -26t-33.5 -69q0 -33 21.5 -51.5t72.5 -28.5l100 -20q66 -14 96 -46t30 -86q0 -63 -53 -105.5t-133 -42.5l-18 -29q44 4 73.5 -14t29.5 -53z" />
    <glyph glyph-name="Scaron" unicode="&#x160;" horiz-adv-x="650" 
d="M339 -12q-126 0 -202.5 58t-82.5 163h58q8 -82 66.5 -125t160.5 -43q87 0 139 40.5t52 108.5q0 53 -33.5 84t-103.5 44l-138 28q-92 18 -134.5 62t-42.5 118q0 87 66.5 143.5t171.5 56.5q114 0 181 -48.5t76 -139.5h-59q-10 63 -62.5 99t-135.5 36q-81 0 -130.5 -41
t-49.5 -106q0 -53 29 -80.5t105 -43.5l142 -29q92 -19 134 -63t42 -118q0 -89 -70 -146.5t-179 -57.5zM247 913l87 -99l87 99h40l-89 -146h-76l-90 146h41z" />
    <glyph glyph-name="scaron" unicode="&#x161;" horiz-adv-x="505" 
d="M259 -12q-91 0 -146.5 42t-61.5 116h56q5 -52 45.5 -80.5t106.5 -28.5q59 0 95.5 26.5t36.5 71.5q0 33 -23 53t-71 30l-88 18q-75 15 -106 46t-31 85q0 62 50 103.5t126 41.5q83 0 131 -35.5t55 -103.5h-55q-5 43 -39 66.5t-92 23.5q-55 0 -88.5 -26t-33.5 -69
q0 -33 21.5 -51.5t72.5 -28.5l100 -20q66 -14 96 -46t30 -86q0 -63 -53 -105.5t-134 -42.5zM161 736l87 -114l87 114h40l-92 -157h-71l-92 157h41z" />
    <glyph glyph-name="Tcommaaccent" unicode="&#x162;" horiz-adv-x="687" 
d="M425 -108q0 -38 -30.5 -60t-77.5 -22q-23 0 -44.5 5t-38.5 14v43q19 -10 40 -15.5t43 -5.5q27 0 43 9.5t16 26.5q0 25 -27 32t-61 -4l-18 19l43 71v655h-272v54h605v-54h-273v-660h-25l-26 -41q44 4 73.5 -14t29.5 -53z" />
    <glyph glyph-name="tcommaaccent" unicode="&#x163;" horiz-adv-x="357" 
d="M284 -108q0 -38 -30.5 -60t-77.5 -22q-23 0 -44.5 5t-38.5 14v43q19 -10 40 -15.5t43 -5.5q27 0 43 9.5t16 26.5q0 25 -27 32t-61 -4l-18 19l41 67q-35 13 -52.5 44t-17.5 79v329h-76v47h76v129h58v-129h138v-47h-139v-334q0 -39 18.5 -57.5t57.5 -18.5q17 0 36 3.5
t41 10.5v-51q-21 -7 -41.5 -10.5t-39.5 -3.5q-5 0 -11 0.5t-15 1.5l-22 -35q44 4 73.5 -14t29.5 -53z" />
    <glyph glyph-name="Tcaron" unicode="&#x164;" horiz-adv-x="687" 
d="M373 0h-60v660h-272v54h605v-54h-273v-660zM257 913l87 -99l87 99h40l-89 -146h-76l-90 146h41z" />
    <glyph glyph-name="tcaron" unicode="&#x165;" horiz-adv-x="357" 
d="M233 43q17 0 36 3.5t41 10.5v-51q-21 -7 -41.5 -10.5t-39.5 -3.5q-64 0 -96.5 33t-32.5 99v329h-76v47h76v129h58v-129h138v-47h-139v-334q0 -39 18.5 -57.5t57.5 -18.5zM321 776l-72 -210h-30l27 210h75z" />
    <glyph glyph-name="Tbar" unicode="&#x166;" horiz-adv-x="687" 
d="M503 390v-54h-130v-336h-60v336h-130v54h130v270h-272v54h605v-54h-273v-270h130z" />
    <glyph glyph-name="tbar" unicode="&#x167;" horiz-adv-x="389" 
d="M332 57v-51q-21 -7 -41.5 -10.5t-39.5 -3.5q-64 0 -96.5 33t-32.5 99v153h-76v47h76v129h-76v47h76v129h58v-129h138v-47h-139v-129h136v-47h-136v-158q0 -39 18.5 -57.5t57.5 -18.5q17 0 36 3.5t41 10.5z" />
    <glyph glyph-name="Utilde" unicode="&#x168;" horiz-adv-x="736" 
d="M648 714v-421q0 -146 -73 -225.5t-207 -79.5t-207 80t-73 227v419h60v-430q0 -117 57.5 -179.5t162.5 -62.5t162.5 62.5t57.5 179.5v430h60zM353 817q-23 20 -33.5 26t-20.5 6q-21 0 -32 -18.5t-13 -58.5h-43q0 61 23 95t65 34q18 0 35.5 -8.5t48.5 -35.5
q23 -20 33.5 -26t20.5 -6q22 0 33 19.5t12 58.5h43q0 -62 -23 -96t-65 -34q-18 0 -35.5 8.5t-48.5 35.5z" />
    <glyph glyph-name="utilde" unicode="&#x169;" horiz-adv-x="578" 
d="M483 500v-500h-55v95q-18 -50 -61 -78.5t-101 -28.5q-85 0 -130.5 49t-45.5 140v323h59v-313q0 -76 32.5 -114.5t96.5 -38.5q70 0 108.5 49t38.5 139v278h58zM275 638q-23 21 -33.5 27.5t-20.5 6.5q-21 0 -32 -19.5t-13 -62.5h-43q0 61 23 95t65 34q18 0 35.5 -9
t48.5 -37q23 -21 33.5 -27.5t20.5 -6.5q22 0 33 20t12 61h43q0 -61 -23 -95t-65 -34q-18 0 -35.5 9t-48.5 38z" />
    <glyph glyph-name="Umacron" unicode="&#x16a;" horiz-adv-x="736" 
d="M648 714v-421q0 -146 -73 -225.5t-207 -79.5t-207 80t-73 227v419h60v-430q0 -117 57.5 -179.5t162.5 -62.5t162.5 62.5t57.5 179.5v430h60zM505 790h-274v50h274v-50z" />
    <glyph glyph-name="umacron" unicode="&#x16b;" horiz-adv-x="578" 
d="M483 500v-500h-55v95q-18 -50 -61 -78.5t-101 -28.5q-85 0 -130.5 49t-45.5 140v323h59v-313q0 -76 32.5 -114.5t96.5 -38.5q70 0 108.5 49t38.5 139v278h58zM427 615h-274v50h274v-50z" />
    <glyph glyph-name="Ubreve" unicode="&#x16c;" horiz-adv-x="736" 
d="M648 714v-421q0 -146 -73 -225.5t-207 -79.5t-207 80t-73 227v419h60v-430q0 -117 57.5 -179.5t162.5 -62.5t162.5 62.5t57.5 179.5v430h60zM369 765q-58 0 -93.5 40.5t-35.5 107.5h51q0 -46 20 -71t58 -25q37 0 57 24.5t20 71.5h51q0 -68 -35 -108t-93 -40z" />
    <glyph glyph-name="ubreve" unicode="&#x16d;" horiz-adv-x="578" 
d="M483 500v-500h-55v95q-18 -50 -61 -78.5t-101 -28.5q-85 0 -130.5 49t-45.5 140v323h59v-313q0 -76 32.5 -114.5t96.5 -38.5q70 0 108.5 49t38.5 139v278h58zM290 588q-58 0 -93.5 40.5t-35.5 107.5h47q2 -49 22.5 -74.5t59.5 -25.5q38 0 58.5 25.5t22.5 74.5h47
q0 -68 -35 -108t-93 -40z" />
    <glyph glyph-name="Uring" unicode="&#x16e;" horiz-adv-x="736" 
d="M648 714v-421q0 -146 -73 -225.5t-207 -79.5t-207 80t-73 227v419h60v-430q0 -117 57.5 -179.5t162.5 -62.5t162.5 62.5t57.5 179.5v430h60zM486 835q0 -49 -34 -84t-83 -35q-48 0 -83 35t-35 84t35 84t83 35q49 0 83 -35t34 -84zM440 835q0 30 -20.5 51t-50.5 21
q-29 0 -50.5 -21.5t-21.5 -50.5t21.5 -50.5t50.5 -21.5q30 0 50.5 21t20.5 51z" />
    <glyph glyph-name="uring" unicode="&#x16f;" horiz-adv-x="578" 
d="M483 500v-500h-55v95q-18 -50 -61 -78.5t-101 -28.5q-85 0 -130.5 49t-45.5 140v323h59v-313q0 -76 32.5 -114.5t96.5 -38.5q70 0 108.5 49t38.5 139v278h58zM290 575q-38 0 -66 27.5t-28 65.5q0 39 27.5 67t66.5 28t66 -27.5t27 -67.5q0 -39 -27 -66t-66 -27zM290 616
q21 0 36.5 15.5t15.5 36.5q0 23 -15 38.5t-37 15.5t-37.5 -16t-15.5 -38q0 -21 15.5 -36.5t37.5 -15.5z" />
    <glyph glyph-name="Uhungarumlaut" unicode="&#x170;" horiz-adv-x="736" 
d="M648 714v-421q0 -146 -73 -225.5t-207 -79.5t-207 80t-73 227v419h60v-430q0 -117 57.5 -179.5t162.5 -62.5t162.5 62.5t57.5 179.5v430h60zM434 769h-34l58 144h80zM293 769h-35l59 144h79z" />
    <glyph glyph-name="uhungarumlaut" unicode="&#x171;" horiz-adv-x="578" 
d="M483 500v-500h-55v95q-18 -50 -61 -78.5t-101 -28.5q-85 0 -130.5 49t-45.5 140v323h59v-313q0 -76 32.5 -114.5t96.5 -38.5q70 0 108.5 49t38.5 139v278h58zM362 582h-34l58 154h80zM221 582h-35l59 154h79z" />
    <glyph glyph-name="Uogonek" unicode="&#x172;" horiz-adv-x="736" 
d="M502 -143v-42q-8 -3 -17.5 -4t-23.5 -1q-34 0 -57 20.5t-23 54.5q0 27 11.5 52.5t37.5 55.5q-16 -2 -31.5 -3.5t-30.5 -1.5q-134 0 -207 80t-73 227v419h60v-430q0 -117 57.5 -179.5t162.5 -62.5t162.5 62.5t57.5 179.5v430h60v-421q0 -106 -39 -177.5t-114 -103.5
q-31 -25 -48 -57t-17 -63q0 -18 11.5 -28.5t32.5 -10.5q9 0 16 1t12 3z" />
    <glyph glyph-name="uogonek" unicode="&#x173;" horiz-adv-x="578" 
d="M482 -143v-42q-8 -3 -17.5 -4t-23.5 -1q-35 0 -57.5 20t-22.5 54q0 25 12.5 51t54.5 77v83q-18 -50 -61 -78.5t-101 -28.5q-85 0 -130.5 49t-45.5 140v323h59v-313q0 -76 32.5 -114.5t96.5 -38.5q70 0 108.5 49t38.5 139v278h58v-500h-16q-34 -43 -45.5 -65.5
t-11.5 -42.5q0 -18 11.5 -28.5t32.5 -10.5q9 0 16 1t12 3z" />
    <glyph glyph-name="Wcircumflex" unicode="&#x174;" horiz-adv-x="956" 
d="M723 0h-71l-173 627h-2l-174 -627h-70l-203 714h65l176 -637h2l173 637h68l174 -637h2l175 637h61zM351 767l90 146h76l89 -146h-40l-87 99l-87 -99h-41z" />
    <glyph glyph-name="wcircumflex" unicode="&#x175;" horiz-adv-x="739" 
d="M339 500h64l123 -433h2l124 433h55l-150 -500h-62l-124 430h-3l-122 -430h-64l-149 500h57l125 -433h2zM243 579l92 157h71l92 -157h-40l-87 114l-87 -114h-41z" />
    <glyph glyph-name="Ycircumflex" unicode="&#x176;" horiz-adv-x="641" 
d="M350 298v-298h-60v298l-270 416h67l236 -361h2l229 361h67zM193 767l90 146h76l89 -146h-40l-87 99l-87 -99h-41z" />
    <glyph glyph-name="ycircumflex" unicode="&#x177;" horiz-adv-x="524" 
d="M128 -134q34 0 56.5 25.5t52.5 101.5l-204 507h62l171 -427h2l161 427h62l-205 -519q-40 -104 -72 -135t-86 -32q-9 0 -20.5 1.5t-22.5 3.5v52q11 -3 21 -4t22 -1zM140 579l92 157h71l92 -157h-40l-87 114l-87 -114h-41z" />
    <glyph glyph-name="Ydieresis" unicode="&#x178;" horiz-adv-x="641" 
d="M350 298v-298h-60v298l-270 416h67l236 -361h2l229 361h67zM440 791h-66v88h66v-88zM267 791h-66v88h66v-88z" />
    <glyph glyph-name="Zacute" unicode="&#x179;" horiz-adv-x="659" 
d="M597 714v-50l-461 -610h463v-54h-542v43l463 617h-447v54h524zM449 913l-109 -144h-35l58 144h86z" />
    <glyph glyph-name="zacute" unicode="&#x17a;" horiz-adv-x="510" 
d="M443 500v-45l-315 -408h326v-47h-399v38l317 415h-304v47h375zM378 736l-106 -154h-35l58 154h83z" />
    <glyph glyph-name="Zdotaccent" unicode="&#x17b;" horiz-adv-x="659" 
d="M597 714v-50l-461 -610h463v-54h-542v43l463 617h-447v54h524zM364 791h-70v88h70v-88z" />
    <glyph glyph-name="zdotaccent" unicode="&#x17c;" horiz-adv-x="510" 
d="M443 500v-45l-315 -408h326v-47h-399v38l317 415h-304v47h375zM296 615h-70v88h70v-88z" />
    <glyph glyph-name="Zcaron" unicode="&#x17d;" horiz-adv-x="659" 
d="M597 714v-50l-461 -610h463v-54h-542v43l463 617h-447v54h524zM242 913l87 -99l87 99h40l-89 -146h-76l-90 146h41z" />
    <glyph glyph-name="zcaron" unicode="&#x17e;" horiz-adv-x="510" 
d="M443 500v-45l-315 -408h326v-47h-399v38l317 415h-304v47h375zM174 736l87 -114l87 114h40l-92 -157h-71l-92 157h41z" />
    <glyph glyph-name="florin" unicode="&#x192;" horiz-adv-x="505" 
d="M382 404v-46h-127l-84 -468h-57l84 468h-90v46h98l35 197q13 68 53 107.5t98 39.5q15 0 31.5 -3.5t33.5 -9.5v-55q-16 8 -31.5 11.5t-33.5 3.5q-37 0 -61.5 -26.5t-33.5 -77.5l-34 -187h119z" />
    <glyph glyph-name="AEacute" unicode="&#x1fc;" horiz-adv-x="1083" 
d="M1013 0h-463v213h-318l-148 -213h-64l499 714h496v-54h-405v-277h361v-54h-361v-275h403v-54zM550 265v404l-281 -404h281zM868 913l-109 -144h-35l58 144h86z" />
    <glyph glyph-name="aeacute" unicode="&#x1fd;" horiz-adv-x="878" 
d="M762 142h55q-16 -72 -69 -113t-127 -41q-68 0 -120.5 29.5t-80.5 84.5q-31 -56 -81.5 -84.5t-117.5 -28.5q-72 0 -119 40t-47 105q0 70 54 110t145 40h138v52q0 61 -33.5 93.5t-96.5 32.5q-55 0 -88.5 -27t-38.5 -75h-57q7 70 57.5 111.5t126.5 41.5q63 0 107 -27.5
t62 -77.5q32 50 79.5 77.5t103.5 27.5q96 0 151.5 -68.5t55.5 -180.5v-28h-376q2 -93 49 -145t127 -52q53 0 87.5 25t53.5 78zM614 462q-69 0 -114 -47t-53 -131h315q-2 83 -41 130.5t-107 47.5zM115 133q0 -43 29.5 -68.5t81.5 -25.5q75 0 120.5 43t45.5 117v37h-134
q-71 0 -107 -26t-36 -77zM545 736l-106 -154h-35l58 154h83z" />
    <glyph glyph-name="Oslashacute" unicode="&#x1fe;" horiz-adv-x="741" 
d="M687 357q0 -164 -87.5 -266.5t-228.5 -102.5q-56 0 -105 17t-88 50l-63 -85l-39 29l67 90q-43 50 -66 118.5t-23 149.5q0 164 88 266.5t229 102.5q55 0 104 -17t89 -50l62 84l39 -29l-66 -90q43 -49 65.5 -118t22.5 -149zM371 671q-119 0 -186.5 -85t-67.5 -229
q0 -68 15.5 -124t45.5 -96l353 477q-32 28 -72.5 42.5t-87.5 14.5zM371 43q118 0 185.5 84.5t67.5 229.5q0 67 -15 123t-45 97l-353 -477q31 -28 71.5 -42.5t88.5 -14.5zM494 913l-109 -144h-35l58 144h86z" />
    <glyph glyph-name="oslashacute" unicode="&#x1ff;" horiz-adv-x="572" 
d="M515 250q0 -118 -63.5 -190t-165.5 -72q-39 0 -73 11t-62 33l-49 -66l-35 24l53 71q-31 35 -47 83t-16 106q0 117 63.5 189.5t165.5 72.5q40 0 74.5 -11.5t62.5 -34.5l47 63l35 -24l-51 -68q30 -36 45.5 -84t15.5 -103zM286 461q-80 0 -126 -56.5t-46 -154.5
q0 -44 10 -80.5t29 -64.5l239 320q-22 18 -48.5 27t-57.5 9zM286 39q80 0 126 56.5t46 154.5q0 43 -9.5 79t-27.5 63l-239 -319q21 -17 47.5 -25.5t56.5 -8.5zM408 736l-106 -154h-35l58 154h83z" />
    <glyph glyph-name="Scommaaccent" unicode="&#x218;" horiz-adv-x="650" 
d="M339 -12q-126 0 -202.5 58t-82.5 163h58q8 -82 66.5 -125t160.5 -43q87 0 139 40.5t52 108.5q0 53 -33.5 84t-103.5 44l-138 28q-92 18 -134.5 62t-42.5 118q0 87 66.5 143.5t171.5 56.5q114 0 181 -48.5t76 -139.5h-59q-10 63 -62.5 99t-135.5 36q-81 0 -130.5 -41
t-49.5 -106q0 -53 29 -80.5t105 -43.5l142 -29q92 -19 134 -63t42 -118q0 -89 -70 -146.5t-179 -57.5zM326 -121h-42v65h84v-66q0 -49 -22 -73t-67 -24v33q25 0 36 15t11 50z" />
    <glyph glyph-name="scommaaccent" unicode="&#x219;" horiz-adv-x="505" 
d="M259 -12q-91 0 -146.5 42t-61.5 116h56q5 -52 45.5 -80.5t106.5 -28.5q59 0 95.5 26.5t36.5 71.5q0 33 -23 53t-71 30l-88 18q-75 15 -106 46t-31 85q0 62 50 103.5t126 41.5q83 0 131 -35.5t55 -103.5h-55q-5 43 -39 66.5t-92 23.5q-55 0 -88.5 -26t-33.5 -69
q0 -33 21.5 -51.5t72.5 -28.5l100 -20q66 -14 96 -46t30 -86q0 -63 -53 -105.5t-134 -42.5zM262 -121h-42v65h84v-66q0 -49 -22 -73t-67 -24v33q25 0 36 15t11 50z" />
    <glyph glyph-name="uni021A" unicode="&#x21a;" horiz-adv-x="687" 
d="M373 0h-60v660h-272v54h605v-54h-273v-660zM341 -121h-42v65h84v-66q0 -49 -22 -73t-67 -24v33q25 0 36 15t11 50z" />
    <glyph glyph-name="uni021B" unicode="&#x21b;" horiz-adv-x="357" 
d="M233 43q17 0 36 3.5t41 10.5v-51q-21 -7 -41.5 -10.5t-39.5 -3.5q-64 0 -96.5 33t-32.5 99v329h-76v47h76v129h58v-129h138v-47h-139v-334q0 -39 18.5 -57.5t57.5 -18.5zM206 -121h-42v65h84v-66q0 -49 -22 -73t-67 -24v33q25 0 36 15t11 50z" />
    <glyph glyph-name="uni0237" unicode="&#x237;" horiz-adv-x="248" 
d="M33 -184q-9 0 -17.5 1t-16.5 3v49q11 -1 15.5 -1.5t9.5 -0.5q40 0 55.5 16t15.5 56v561h58v-555q0 -67 -29 -98t-91 -31z" />
    <glyph glyph-name="circumflex" unicode="&#x2c6;" 
d="M155 579l92 157h71l92 -157h-40l-87 114l-87 -114h-41z" />
    <glyph glyph-name="caron" unicode="&#x2c7;" 
d="M196 736l87 -114l87 114h40l-92 -157h-71l-92 157h41z" />
    <glyph glyph-name="breve" unicode="&#x2d8;" 
d="M283 588q-58 0 -93.5 40.5t-35.5 107.5h47q2 -49 22.5 -74.5t59.5 -25.5q38 0 58.5 25.5t22.5 74.5h47q0 -68 -35 -108t-93 -40z" />
    <glyph glyph-name="dotaccent" unicode="&#x2d9;" 
d="M318 615h-70v88h70v-88z" />
    <glyph glyph-name="ring" unicode="&#x2da;" 
d="M283 575q-38 0 -66 27.5t-28 65.5q0 39 27.5 67t66.5 28t66 -27.5t27 -67.5q0 -39 -27 -66t-66 -27zM283 616q21 0 36.5 15.5t15.5 36.5q0 23 -15 38.5t-37 15.5t-37.5 -16t-15.5 -38q0 -21 15.5 -36.5t37.5 -15.5z" />
    <glyph glyph-name="ogonek" unicode="&#x2db;" 
d="M316 -190q-35 0 -57.5 20t-22.5 54q0 25 12.5 51t55.5 78h48q-41 -53 -54 -76.5t-13 -44.5q0 -18 11.5 -28.5t32.5 -10.5q9 0 16 1t12 3v-42q-8 -3 -17.5 -4t-23.5 -1z" />
    <glyph glyph-name="tilde" unicode="&#x2dc;" 
d="M267 638q-23 21 -33.5 27.5t-20.5 6.5q-21 0 -32 -19.5t-13 -62.5h-43q0 61 23 95t65 34q18 0 35.5 -9t48.5 -37q23 -21 33.5 -27.5t20.5 -6.5q22 0 33 20t12 61h43q0 -61 -23 -95t-65 -34q-18 0 -35.5 9t-48.5 38z" />
    <glyph glyph-name="hungarumlaut" unicode="&#x2dd;" 
d="M317 582h-34l58 154h80zM176 582h-35l59 154h79z" />
    <glyph glyph-name="Wgrave" unicode="&#x1e80;" horiz-adv-x="956" 
d="M723 0h-71l-173 627h-2l-174 -627h-70l-203 714h65l176 -637h2l173 637h68l174 -637h2l175 637h61zM449 913l58 -144h-35l-109 144h86z" />
    <glyph glyph-name="wgrave" unicode="&#x1e81;" horiz-adv-x="739" 
d="M339 500h64l123 -433h2l124 433h55l-150 -500h-62l-124 430h-3l-122 -430h-64l-149 500h57l125 -433h2zM342 736l58 -154h-35l-106 154h83z" />
    <glyph glyph-name="Wacute" unicode="&#x1e82;" horiz-adv-x="956" 
d="M723 0h-71l-173 627h-2l-174 -627h-70l-203 714h65l176 -637h2l173 637h68l174 -637h2l175 637h61zM607 913l-109 -144h-35l58 144h86z" />
    <glyph glyph-name="wacute" unicode="&#x1e83;" horiz-adv-x="739" 
d="M339 500h64l123 -433h2l124 433h55l-150 -500h-62l-124 430h-3l-122 -430h-64l-149 500h57l125 -433h2zM483 736l-106 -154h-35l58 154h83z" />
    <glyph glyph-name="Wdieresis" unicode="&#x1e84;" horiz-adv-x="956" 
d="M723 0h-71l-173 627h-2l-174 -627h-70l-203 714h65l176 -637h2l173 637h68l174 -637h2l175 637h61zM598 791h-66v88h66v-88zM425 791h-66v88h66v-88z" />
    <glyph glyph-name="wdieresis" unicode="&#x1e85;" horiz-adv-x="739" 
d="M339 500h64l123 -433h2l124 433h55l-150 -500h-62l-124 430h-3l-122 -430h-64l-149 500h57l125 -433h2zM490 615h-66v88h66v-88zM317 615h-66v88h66v-88z" />
    <glyph glyph-name="Ygrave" unicode="&#x1ef2;" horiz-adv-x="641" 
d="M350 298v-298h-60v298l-270 416h67l236 -361h2l229 361h67zM284 913l58 -144h-35l-109 144h86z" />
    <glyph glyph-name="ygrave" unicode="&#x1ef3;" horiz-adv-x="524" 
d="M128 -134q34 0 56.5 25.5t52.5 101.5l-204 507h62l171 -427h2l161 427h62l-205 -519q-40 -104 -72 -135t-86 -32q-9 0 -20.5 1.5t-22.5 3.5v52q11 -3 21 -4t22 -1zM233 736l58 -154h-35l-106 154h83z" />
    <glyph glyph-name="endash" unicode="&#x2013;" horiz-adv-x="677" 
d="M590 251h-503v51h503v-51z" />
    <glyph glyph-name="emdash" unicode="&#x2014;" horiz-adv-x="1003" 
d="M916 251h-829v51h829v-51z" />
    <glyph glyph-name="quoteleft" unicode="&#x2018;" horiz-adv-x="296" 
d="M151 591h40v-80h-87v95q0 59 33.5 94.5t90.5 35.5v-40q-39 0 -58 -22.5t-19 -67.5v-15z" />
    <glyph glyph-name="quoteright" unicode="&#x2019;" horiz-adv-x="296" 
d="M145 656h-40v80h87v-95q0 -59 -33.5 -94.5t-90.5 -35.5v40q39 0 58 22.5t19 67.5v15z" />
    <glyph glyph-name="quotesinglbase" unicode="&#x201a;" horiz-adv-x="296" 
d="M145 32h-40v80h87v-95q0 -59 -33.5 -94.5t-90.5 -35.5v40q39 0 58 22.5t19 67.5v15z" />
    <glyph glyph-name="quotedblleft" unicode="&#x201c;" horiz-adv-x="498" 
d="M353 591h40v-80h-87v95q0 59 33.5 94.5t90.5 35.5v-40q-39 0 -58 -22.5t-19 -67.5v-15zM151 591h40v-80h-87v95q0 59 33.5 94.5t90.5 35.5v-40q-39 0 -58 -22.5t-19 -67.5v-15z" />
    <glyph glyph-name="quotedblright" unicode="&#x201d;" horiz-adv-x="498" 
d="M145 656h-40v80h87v-95q0 -59 -33.5 -94.5t-90.5 -35.5v40q39 0 58 22.5t19 67.5v15zM347 656h-40v80h87v-95q0 -59 -33.5 -94.5t-90.5 -35.5v40q39 0 58 22.5t19 67.5v15z" />
    <glyph glyph-name="quotedblbase" unicode="&#x201e;" horiz-adv-x="498" 
d="M145 32h-40v80h87v-95q0 -59 -33.5 -94.5t-90.5 -35.5v40q39 0 58 22.5t19 67.5v15zM347 32h-40v80h87v-95q0 -59 -33.5 -94.5t-90.5 -35.5v40q39 0 58 22.5t19 67.5v15z" />
    <glyph glyph-name="dagger" unicode="&#x2020;" horiz-adv-x="359" 
d="M321 610v-46h-118v-262h-48v262h-117v46h117v116h48v-116h118z" />
    <glyph glyph-name="daggerdbl" unicode="&#x2021;" horiz-adv-x="359" 
d="M321 464v-46h-118v-116h-48v116h-117v46h117v100h-117v46h117v116h48v-116h118v-46h-118v-100h118z" />
    <glyph glyph-name="bullet" unicode="&#x2022;" horiz-adv-x="416" 
d="M209 173q-50 0 -86 35.5t-36 85.5q0 49 36 84.5t86 35.5t85 -35t35 -85t-35 -85.5t-85 -35.5z" />
    <glyph glyph-name="ellipsis" unicode="&#x2026;" horiz-adv-x="656" 
d="M551 0h-86v87h86v-87zM371 0h-86v87h86v-87zM191 0h-86v87h86v-87z" />
    <glyph glyph-name="guilsinglleft" unicode="&#x2039;" horiz-adv-x="306" 
d="M134 237l107 -191h-46l-130 191l130 192h46z" />
    <glyph glyph-name="guilsinglright" unicode="&#x203a;" horiz-adv-x="306" 
d="M65 425h46l130 -192l-130 -191h-46l107 191z" />
    <glyph glyph-name="fraction" unicode="&#x2044;" horiz-adv-x="184" 
d="M379 727l-515 -739h-60l516 739h59z" />
    <glyph glyph-name="uni2070" unicode="&#x2070;" horiz-adv-x="410" 
d="M364 519q0 -90 -44.5 -146.5t-115.5 -56.5q-70 0 -114 56.5t-44 146.5t43.5 147t114.5 57t115.5 -57t44.5 -147zM101 519q0 -73 27 -115t76 -42q50 0 77.5 41.5t27.5 115.5q0 75 -27.5 116.5t-77.5 41.5q-49 0 -76 -42t-27 -116z" />
    <glyph glyph-name="uni2074" unicode="&#x2074;" horiz-adv-x="401" 
d="M223 714h61v-251h82v-42h-82v-98h-52v98h-195v43zM232 463v197l-144 -197h144z" />
    <glyph glyph-name="uni2075" unicode="&#x2075;" horiz-adv-x="371" 
d="M274 450q0 41 -23 65.5t-63 24.5q-26 0 -46.5 -10.5t-33.5 -30.5h-49l21 215h227v-45h-186l-13 -122q13 16 36.5 26t48.5 10q60 0 97 -37t37 -96t-38.5 -97t-100.5 -38t-101.5 33.5t-44.5 90.5h56q2 -36 27 -58.5t63 -22.5q40 0 63 25t23 67z" />
    <glyph glyph-name="uni2076" unicode="&#x2076;" horiz-adv-x="380" 
d="M202 678q-49 0 -77 -45.5t-28 -121.5q11 33 40 53t67 20q58 0 94.5 -36.5t36.5 -94.5q0 -60 -38.5 -98.5t-99.5 -38.5q-67 0 -109 54t-42 142q0 93 43.5 152t112.5 59q53 0 87.5 -29t42.5 -80h-50q-8 32 -27.5 48t-52.5 16zM109 451q0 -40 25 -66t63 -26q39 0 63.5 26
t24.5 66t-24.5 65.5t-63.5 25.5t-63.5 -25.5t-24.5 -65.5z" />
    <glyph glyph-name="uni2077" unicode="&#x2077;" horiz-adv-x="350" 
d="M253 670h-220v44h278v-39q-65 -79 -95 -162.5t-31 -189.5h-57q1 94 32.5 181.5t92.5 165.5z" />
    <glyph glyph-name="uni2078" unicode="&#x2078;" horiz-adv-x="388" 
d="M343 430q0 -52 -41 -83t-109 -31q-67 0 -107.5 31.5t-40.5 82.5q0 33 24 60t57 33q-30 12 -47 35.5t-17 54.5q0 49 37 79.5t94 30.5q58 0 95 -30.5t37 -79.5q0 -31 -16.5 -54.5t-46.5 -35.5q33 -6 57 -33t24 -60zM275 613q0 31 -22 49t-60 18q-37 0 -59 -18t-22 -49
q0 -32 22.5 -50.5t58.5 -18.5q37 0 59.5 18.5t22.5 50.5zM289 431q0 34 -25.5 53t-70.5 19q-44 0 -69 -19.5t-25 -52.5q0 -34 25.5 -53.5t68.5 -19.5q45 0 70.5 19.5t25.5 53.5z" />
    <glyph glyph-name="uni2079" unicode="&#x2079;" horiz-adv-x="380" 
d="M179 361q49 0 77.5 45.5t28.5 121.5q-12 -34 -41.5 -54t-67.5 -20q-57 0 -93.5 38t-36.5 95q0 60 38.5 98t99.5 38q67 0 109 -54t42 -142q0 -93 -44 -152t-113 -59q-53 0 -87 29t-42 80h51q7 -33 26.5 -48.5t52.5 -15.5zM273 588q0 40 -25 65.5t-64 25.5t-63 -25.5
t-24 -65.5q0 -42 23.5 -67t63.5 -25q39 0 64 25.5t25 66.5z" />
    <glyph glyph-name="uni2080" unicode="&#x2080;" horiz-adv-x="410" 
d="M364 56q0 -90 -44.5 -146.5t-115.5 -56.5q-70 0 -114 56.5t-44 146.5t43.5 147t114.5 57t115.5 -57t44.5 -147zM101 56q0 -73 27 -115t76 -42q50 0 77.5 41.5t27.5 115.5q0 75 -27.5 116.5t-77.5 41.5q-49 0 -76 -42t-27 -116z" />
    <glyph glyph-name="uni2081" unicode="&#x2081;" horiz-adv-x="327" 
d="M201 -97h104v-43h-261v43h103v251h-101v40q61 0 87 11.5t35 47.5h33v-350z" />
    <glyph glyph-name="uni2082" unicode="&#x2082;" horiz-adv-x="352" 
d="M181 259q57 0 93 -33t36 -82q0 -25 -9.5 -46.5t-29.5 -40.5q-11 -10 -24.5 -20.5t-56.5 -37.5q-51 -31 -71.5 -52.5t-20.5 -41.5h223v-45h-282v23q0 40 27.5 76t97.5 80q57 36 75.5 58t18.5 47q0 32 -21 51t-57 19t-59 -23.5t-25 -59.5h-52q3 57 40.5 92.5t96.5 35.5z
" />
    <glyph glyph-name="uni2083" unicode="&#x2083;" horiz-adv-x="370" 
d="M245 56q36 -5 58 -30t22 -60q0 -50 -38 -81.5t-101 -31.5q-64 0 -103 32.5t-44 88.5h52q3 -36 28.5 -57t66.5 -21q40 0 63.5 19.5t23.5 52.5q0 31 -22 49t-60 18h-41v43h39q34 0 54 17.5t20 48.5q0 32 -21 52t-56 20q-37 0 -60 -22.5t-25 -58.5h-51q3 56 40 90.5t96 34.5
t94 -32t35 -83q0 -34 -19.5 -59t-50.5 -30z" />
    <glyph glyph-name="uni2084" unicode="&#x2084;" horiz-adv-x="401" 
d="M223 251h61v-251h82v-42h-82v-98h-52v98h-195v43zM232 0v197l-144 -197h144z" />
    <glyph glyph-name="uni2085" unicode="&#x2085;" horiz-adv-x="371" 
d="M274 -12q0 41 -23 65.5t-63 24.5q-26 0 -46.5 -10.5t-33.5 -30.5h-49l21 215h227v-45h-186l-13 -122q13 16 36.5 26t48.5 10q60 0 97 -37t37 -96t-38.5 -97t-100.5 -38t-101.5 33.5t-44.5 90.5h56q2 -36 27 -58.5t63 -22.5q40 0 63 25t23 67z" />
    <glyph glyph-name="uni2086" unicode="&#x2086;" horiz-adv-x="380" 
d="M202 215q-49 0 -77 -45.5t-28 -121.5q11 33 40 53t67 20q58 0 94.5 -36.5t36.5 -94.5q0 -60 -38.5 -98.5t-99.5 -38.5q-67 0 -109 54t-42 142q0 93 43.5 152t112.5 59q53 0 87.5 -29t42.5 -80h-50q-8 32 -27.5 48t-52.5 16zM109 -12q0 -40 25 -66t63 -26q39 0 63.5 26
t24.5 66t-24.5 65.5t-63.5 25.5t-63.5 -25.5t-24.5 -65.5z" />
    <glyph glyph-name="uni2087" unicode="&#x2087;" horiz-adv-x="350" 
d="M253 207h-220v44h278v-39q-65 -79 -95 -162.5t-31 -189.5h-57q1 94 32.5 181.5t92.5 165.5z" />
    <glyph glyph-name="uni2088" unicode="&#x2088;" horiz-adv-x="388" 
d="M343 -33q0 -52 -41 -83t-109 -31q-67 0 -107.5 31.5t-40.5 82.5q0 33 24 60t57 33q-30 12 -47 35.5t-17 54.5q0 49 37 79.5t94 30.5q58 0 95 -30.5t37 -79.5q0 -31 -16.5 -54.5t-46.5 -35.5q33 -6 57 -33t24 -60zM275 150q0 31 -22 49t-60 18q-37 0 -59 -18t-22 -49
q0 -32 22.5 -50.5t58.5 -18.5q37 0 59.5 18.5t22.5 50.5zM289 -32q0 34 -25.5 53t-70.5 19q-44 0 -69 -19.5t-25 -52.5q0 -34 25.5 -53.5t68.5 -19.5q45 0 70.5 19.5t25.5 53.5z" />
    <glyph glyph-name="uni2089" unicode="&#x2089;" horiz-adv-x="380" 
d="M179 -102q49 0 77.5 45.5t28.5 121.5q-12 -34 -41.5 -54t-67.5 -20q-57 0 -93.5 38t-36.5 95q0 60 38.5 98t99.5 38q67 0 109 -54t42 -142q0 -93 -44 -152t-113 -59q-53 0 -87 29t-42 80h51q7 -33 26.5 -48.5t52.5 -15.5zM273 125q0 40 -25 65.5t-64 25.5t-63 -25.5
t-24 -65.5q0 -42 23.5 -67t63.5 -25q39 0 64 25.5t25 66.5z" />
    <glyph glyph-name="Euro" unicode="&#x20ac;" horiz-adv-x="697" 
d="M590 199h58q-16 -100 -79 -155.5t-162 -55.5q-107 0 -183.5 73.5t-98.5 198.5h-75v51h68q-1 17 -1.5 27.5t-0.5 19.5q0 8 0.5 17t1.5 26h-68v51h74q22 126 98.5 200t184.5 74q99 0 162 -55.5t79 -154.5h-58q-14 76 -60 115.5t-123 39.5q-87 0 -144.5 -57.5t-76.5 -161.5
h262l-11 -51h-257q-1 -17 -1.5 -26t-0.5 -17q0 -9 0.5 -19.5t1.5 -27.5h236l-11 -51h-218q19 -103 76.5 -160t143.5 -57q76 0 122.5 40t60.5 116z" />
    <glyph glyph-name="trademark" unicode="&#x2122;" horiz-adv-x="826" 
d="M210 668v-265h-55v265h-109v46h274v-46h-110zM640 664l-82 -261h-42l-83 261h-3v-261h-47v311h80l74 -240h3l74 240h80v-311h-52v261h-2z" />
    <glyph glyph-name="uni2153" unicode="&#x2153;" horiz-adv-x="926" 
d="M751 727l-515 -739h-60l516 739h59zM231 366h104v-43h-261v43h103v251h-101v40q61 0 87 11.5t35 47.5h33v-350zM778 196q36 -5 58 -30t22 -60q0 -50 -38 -81.5t-101 -31.5q-64 0 -103 32.5t-44 88.5h52q3 -36 28.5 -57t66.5 -21q40 0 63.5 19.5t23.5 52.5q0 31 -22 49
t-60 18h-41v43h39q34 0 54 17.5t20 48.5q0 32 -21 52t-56 20q-37 0 -60 -22.5t-25 -58.5h-51q3 56 40 90.5t96 34.5t94 -32t35 -83q0 -34 -19.5 -59t-50.5 -30z" />
    <glyph glyph-name="uni2154" unicode="&#x2154;" horiz-adv-x="945" 
d="M770 727l-515 -739h-60l516 739h59zM797 196q36 -5 58 -30t22 -60q0 -50 -38 -81.5t-101 -31.5q-64 0 -103 32.5t-44 88.5h52q3 -36 28.5 -57t66.5 -21q40 0 63.5 19.5t23.5 52.5q0 31 -22 49t-60 18h-41v43h39q34 0 54 17.5t20 48.5q0 32 -21 52t-56 20q-37 0 -60 -22.5
t-25 -58.5h-51q3 56 40 90.5t96 34.5t94 -32t35 -83q0 -34 -19.5 -59t-50.5 -30zM211 722q57 0 93 -33t36 -82q0 -25 -9.5 -46.5t-29.5 -40.5q-11 -10 -24.5 -20.5t-56.5 -37.5q-51 -31 -71.5 -52.5t-20.5 -41.5h223v-45h-282v23q0 40 27.5 76t97.5 80q57 36 75.5 58
t18.5 47q0 32 -21 51t-57 19t-59 -23.5t-25 -59.5h-52q3 57 40.5 92.5t96.5 35.5z" />
    <glyph glyph-name="uni215B" unicode="&#x215b;" horiz-adv-x="943" 
d="M876 107q0 -52 -41 -83t-109 -31q-67 0 -107.5 31.5t-40.5 82.5q0 33 24 60t57 33q-30 12 -47 35.5t-17 54.5q0 49 37 79.5t94 30.5q58 0 95 -30.5t37 -79.5q0 -31 -16.5 -54.5t-46.5 -35.5q33 -6 57 -33t24 -60zM808 290q0 31 -22 49t-60 18q-37 0 -59 -18t-22 -49
q0 -32 22.5 -50.5t58.5 -18.5q37 0 59.5 18.5t22.5 50.5zM822 108q0 34 -25.5 53t-70.5 19q-44 0 -69 -19.5t-25 -52.5q0 -34 25.5 -53.5t68.5 -19.5q45 0 70.5 19.5t25.5 53.5zM751 727l-515 -739h-60l516 739h59zM231 366h104v-43h-261v43h103v251h-101v40q61 0 87 11.5
t35 47.5h33v-350z" />
    <glyph glyph-name="uni215C" unicode="&#x215c;" horiz-adv-x="962" 
d="M895 107q0 -52 -41 -83t-109 -31q-67 0 -107.5 31.5t-40.5 82.5q0 33 24 60t57 33q-30 12 -47 35.5t-17 54.5q0 49 37 79.5t94 30.5q58 0 95 -30.5t37 -79.5q0 -31 -16.5 -54.5t-46.5 -35.5q33 -6 57 -33t24 -60zM827 290q0 31 -22 49t-60 18q-37 0 -59 -18t-22 -49
q0 -32 22.5 -50.5t58.5 -18.5q37 0 59.5 18.5t22.5 50.5zM841 108q0 34 -25.5 53t-70.5 19q-44 0 -69 -19.5t-25 -52.5q0 -34 25.5 -53.5t68.5 -19.5q45 0 70.5 19.5t25.5 53.5zM770 727l-515 -739h-60l516 739h59zM275 519q36 -5 58 -30t22 -60q0 -50 -38 -81.5t-101 -31.5
q-64 0 -103 32.5t-44 88.5h52q3 -36 28.5 -57t66.5 -21q40 0 63.5 19.5t23.5 52.5q0 31 -22 49t-60 18h-41v43h39q34 0 54 17.5t20 48.5q0 32 -21 52t-56 20q-37 0 -60 -22.5t-25 -58.5h-51q3 56 40 90.5t96 34.5t94 -32t35 -83q0 -34 -19.5 -59t-50.5 -30z" />
    <glyph glyph-name="uni215D" unicode="&#x215d;" horiz-adv-x="948" 
d="M756 727l-515 -739h-60l516 739h59zM881 107q0 -52 -41 -83t-109 -31q-67 0 -107.5 31.5t-40.5 82.5q0 33 24 60t57 33q-30 12 -47 35.5t-17 54.5q0 49 37 79.5t94 30.5q58 0 95 -30.5t37 -79.5q0 -31 -16.5 -54.5t-46.5 -35.5q33 -6 57 -33t24 -60zM813 290q0 31 -22 49
t-60 18q-37 0 -59 -18t-22 -49q0 -32 22.5 -50.5t58.5 -18.5q37 0 59.5 18.5t22.5 50.5zM827 108q0 34 -25.5 53t-70.5 19q-44 0 -69 -19.5t-25 -52.5q0 -34 25.5 -53.5t68.5 -19.5q45 0 70.5 19.5t25.5 53.5zM304 450q0 41 -23 65.5t-63 24.5q-26 0 -46.5 -10.5
t-33.5 -30.5h-49l21 215h227v-45h-186l-13 -122q13 16 36.5 26t48.5 10q60 0 97 -37t37 -96t-38.5 -97t-100.5 -38t-101.5 33.5t-44.5 90.5h56q2 -36 27 -58.5t63 -22.5q40 0 63 25t23 67z" />
    <glyph glyph-name="uni215E" unicode="&#x215e;" horiz-adv-x="883" 
d="M816 107q0 -52 -41 -83t-109 -31q-67 0 -107.5 31.5t-40.5 82.5q0 33 24 60t57 33q-30 12 -47 35.5t-17 54.5q0 49 37 79.5t94 30.5q58 0 95 -30.5t37 -79.5q0 -31 -16.5 -54.5t-46.5 -35.5q33 -6 57 -33t24 -60zM748 290q0 31 -22 49t-60 18q-37 0 -59 -18t-22 -49
q0 -32 22.5 -50.5t58.5 -18.5q37 0 59.5 18.5t22.5 50.5zM762 108q0 34 -25.5 53t-70.5 19q-44 0 -69 -19.5t-25 -52.5q0 -34 25.5 -53.5t68.5 -19.5q45 0 70.5 19.5t25.5 53.5zM691 727l-515 -739h-60l516 739h59zM283 670h-220v44h278v-39q-65 -79 -95 -162.5t-31 -189.5
h-57q1 94 32.5 181.5t92.5 165.5z" />
    <glyph glyph-name="minus" unicode="&#x2212;" horiz-adv-x="660" 
d="M588 307h-517v53h517v-53z" />
    <glyph glyph-name="commaaccent" unicode="&#xf6c3;" 
d="M285 -121h-42v65h84v-66q0 -49 -22 -73t-67 -24v33q25 0 36 15t11 50z" />
    <glyph glyph-name="idotaccent" horiz-adv-x="248" 
d="M95 0v500h58v-500h-58zM159 615h-70v88h70v-88z" />
    <glyph glyph-name="a.ord" horiz-adv-x="390" 
d="M270 373q-12 -30 -43 -47t-73 -17q-47 0 -77 26.5t-30 69.5q0 42 28 66.5t86 32.5l107 13v20q0 38 -20 57t-58 19q-33 0 -53.5 -16.5t-23.5 -45.5h-51q4 49 39.5 77.5t89.5 28.5q63 0 96.5 -30.5t33.5 -87.5v-154q0 -20 2 -37t6 -31h-53q-3 11 -4.5 25t-1.5 31zM165 349
q43 0 73 27.5t30 70.5v32l-91 -11q-42 -6 -59 -20.5t-17 -41.5q0 -26 17 -41.5t47 -15.5z" />
    <glyph glyph-name="b.ord" horiz-adv-x="432" 
d="M236 308q-38 0 -68 19.5t-44 50.5v-62h-52v485h54v-210q14 29 44 47t66 18q66 0 107.5 -48.5t41.5 -125.5q0 -78 -41.5 -126t-107.5 -48zM226 615q-47 0 -74.5 -35t-27.5 -94v-8q0 -59 27.5 -94t74.5 -35t75.5 36.5t28.5 96.5t-28.5 96.5t-75.5 36.5z" />
    <glyph glyph-name="c.ord" horiz-adv-x="383" 
d="M203 308q-70 0 -112.5 48t-42.5 127q0 78 43 126t112 48q56 0 91 -29.5t43 -83.5h-51q-8 35 -28.5 52t-54.5 17q-47 0 -74.5 -35t-27.5 -95q0 -61 27.5 -96.5t74.5 -35.5q34 0 54.5 17.5t28.5 52.5h51q-8 -54 -43 -83.5t-91 -29.5z" />
    <glyph glyph-name="d.ord" horiz-adv-x="432" 
d="M196 308q-66 0 -107.5 48t-41.5 126q0 77 41.5 125.5t107.5 48.5q36 0 66 -18t44 -47v210h54v-485h-52v62q-14 -31 -44 -50.5t-68 -19.5zM206 615q-47 0 -75.5 -36.5t-28.5 -96.5t28.5 -96.5t75.5 -36.5t74.5 35t27.5 94v8q0 59 -27.5 94t-74.5 35z" />
    <glyph glyph-name="e.ord" horiz-adv-x="393" 
d="M293 413h50q-11 -49 -47.5 -77t-88.5 -28q-72 0 -115.5 47.5t-43.5 125.5q0 79 43 127.5t112 48.5q67 0 105 -45.5t38 -120.5v-21h-246q2 -56 30.5 -87.5t76.5 -31.5q32 0 53.5 15.5t32.5 46.5zM203 613q-42 0 -68.5 -27.5t-32.5 -78.5h191q-1 49 -24.5 77.5t-65.5 28.5z
" />
    <glyph glyph-name="f.ord" horiz-adv-x="230" 
d="M80 316v291h-47v41h47v65q0 43 25.5 67t71.5 24q9 0 19 -1t18 -2v-44q-11 1 -19 1.5t-16 0.5q-23 0 -34 -11.5t-11 -35.5v-64h70v-41h-70v-291h-54z" />
    <glyph glyph-name="g.ord" horiz-adv-x="428" 
d="M203 231q50 0 76 27t26 78v50q-12 -29 -41.5 -46.5t-67.5 -17.5q-66 0 -107 46t-41 121q0 74 41.5 120.5t106.5 46.5q37 0 67 -18.5t45 -48.5v59h52v-308q0 -72 -41.5 -111t-115.5 -39q-61 0 -98.5 25t-47.5 72h54q8 -28 30.5 -42t61.5 -14zM204 365q47 0 76.5 32.5
t29.5 83.5v17q0 51 -29.5 83.5t-76.5 32.5t-75 -34t-28 -91t28 -90.5t75 -33.5z" />
    <glyph glyph-name="h.ord" horiz-adv-x="420" 
d="M126 801v-213q12 32 40.5 50t66.5 18q55 0 86.5 -33.5t31.5 -92.5v-214h-54v202q0 47 -20 71t-60 24q-43 0 -67 -29.5t-24 -83.5v-184h-54v485h54z" />
    <glyph glyph-name="i.ord" horiz-adv-x="198" 
d="M129 717h-61v66h61v-66zM72 316v332h54v-332h-54z" />
    <glyph glyph-name="j.ord" horiz-adv-x="198" 
d="M129 717h-61v66h61v-66zM38 195q-4 0 -12.5 1t-15.5 2v43q3 0 7.5 -0.5t9.5 -0.5q26 0 35.5 9.5t9.5 34.5v364h54v-362q0 -47 -21.5 -69t-66.5 -22z" />
    <glyph glyph-name="k.ord" horiz-adv-x="393" 
d="M361 316h-65l-127 157l-43 -41v-116h-54v485h54v-311l164 158h65l-147 -141z" />
    <glyph glyph-name="l.ord" horiz-adv-x="198" 
d="M126 801v-485h-54v485h54z" />
    <glyph glyph-name="m.ord" horiz-adv-x="624" 
d="M228 656q39 0 64 -17.5t37 -52.5q16 33 45.5 51.5t66.5 18.5q55 0 84.5 -32.5t29.5 -93.5v-214h-54v203q0 48 -18 71t-55 23q-40 0 -63.5 -30t-23.5 -83v-184h-54v203q0 47 -18 70.5t-55 23.5q-41 0 -64.5 -30t-23.5 -83v-184h-54v332h52v-60q12 31 40 49.5t64 18.5z" />
    <glyph glyph-name="n.ord" horiz-adv-x="420" 
d="M72 648h52v-60q11 31 41 49.5t68 18.5q55 0 86.5 -33.5t31.5 -92.5v-214h-54v202q0 47 -20 71t-60 24q-43 0 -67 -29.5t-24 -83.5v-184h-54v332z" />
    <glyph glyph-name="o.ord" horiz-adv-x="410" 
d="M205 308q-70 0 -113.5 48t-43.5 127q0 78 43.5 126t113.5 48t114 -48t44 -126q0 -79 -44 -127t-114 -48zM205 613q-48 0 -76 -35t-28 -95q0 -62 27.5 -97t76.5 -35t76.5 35t27.5 97q0 60 -28 95t-76 35z" />
    <glyph glyph-name="p.ord" horiz-adv-x="433" 
d="M236 308q-36 0 -66 18.5t-44 47.5v-175h-54v449h52v-61q14 31 44 50.5t68 19.5q65 0 107 -48.5t42 -125.5q0 -78 -41.5 -126.5t-107.5 -48.5zM226 614q-47 0 -74.5 -34.5t-27.5 -92.5v-9q0 -59 27.5 -93.5t74.5 -34.5q48 0 76 36t28 97q0 60 -28 95.5t-76 35.5z" />
    <glyph glyph-name="q.ord" horiz-adv-x="433" 
d="M197 308q-66 0 -107.5 48.5t-41.5 126.5q0 77 42 125.5t107 48.5q38 0 68 -19.5t44 -50.5v61h52v-449h-54v175q-14 -29 -44 -47.5t-66 -18.5zM207 614q-48 0 -76 -35.5t-28 -95.5q0 -61 28 -97t76 -36q47 0 74.5 34.5t27.5 93.5v9q0 58 -27.5 92.5t-74.5 34.5z" />
    <glyph glyph-name="r.ord" horiz-adv-x="280" 
d="M229 655q6 0 12.5 -0.5t13.5 -1.5v-50q-4 1 -10 1.5t-18 0.5q-45 0 -73 -34t-28 -91v-164h-54v332h52v-79q10 40 38.5 63t66.5 23z" />
    <glyph glyph-name="s.ord" horiz-adv-x="366" 
d="M188 308q-63 0 -101.5 27.5t-43.5 77.5h52q3 -30 28 -47t64 -17q36 0 57.5 15.5t21.5 42.5q0 20 -13.5 31.5t-44.5 17.5l-59 11q-50 10 -72 32t-22 59q0 43 34 71t88 28q58 0 93 -25t40 -71h-49q-4 26 -26.5 40.5t-57.5 14.5q-32 0 -52 -15.5t-20 -40.5q0 -19 13.5 -30
t46.5 -18l65 -13q44 -9 65 -31t21 -60q0 -44 -36 -72t-92 -28z" />
    <glyph glyph-name="t.ord" horiz-adv-x="268" 
d="M177 356q11 0 23 2t26 6v-43q-14 -5 -28 -7.5t-30 -2.5q-46 0 -68.5 22.5t-22.5 67.5v207h-50v40h50v85h53v-85h87v-40h-88v-205q0 -24 12 -35.5t36 -11.5z" />
    <glyph glyph-name="u.ord" horiz-adv-x="415" 
d="M343 316h-52v59q-11 -32 -39.5 -50t-65.5 -18q-56 0 -87 33t-31 93v215h55v-205q0 -47 19.5 -70.5t58.5 -23.5q42 0 65.5 30t23.5 85v184h53v-332z" />
    <glyph glyph-name="v.ord" horiz-adv-x="386" 
d="M226 316h-61l-132 332h55l107 -280h2l102 280h54z" />
    <glyph glyph-name="w.ord" horiz-adv-x="532" 
d="M240 648h55l75 -273h1l77 273h51l-100 -332h-56l-77 270h-1l-76 -270h-56l-100 332h53l77 -273h2z" />
    <glyph glyph-name="x.ord" horiz-adv-x="395" 
d="M195 451l-98 -135h-58l126 171l-118 161h63l89 -122l88 122h59l-118 -159l127 -173h-63z" />
    <glyph glyph-name="y.ord" horiz-adv-x="385" 
d="M96 240q23 0 37 15t33 61l-133 333h56l107 -271h1l100 271h55l-135 -341q-24 -65 -49 -88.5t-67 -24.5q-8 0 -16.5 1t-14.5 2v45q9 -2 14.5 -2.5t11.5 -0.5z" />
    <glyph glyph-name="z.ord" horiz-adv-x="368" 
d="M313 648v-40l-199 -251h207v-41h-273v35l200 255h-193v42h258z" />
    <glyph glyph-name="caron.Slovak" 
d="M325 736l-72 -210h-30l27 210h75z" />
    <glyph glyph-name="commaturn" 
d="M280 652h42v-65h-84v66q0 49 22 73t67 24v-33q-25 0 -36 -15t-11 -50z" />
    <glyph glyph-name="grave.cap" 
d="M295 913l58 -144h-35l-109 144h86z" />
    <glyph glyph-name="acute.cap" 
d="M356 913l-109 -144h-35l58 144h86z" />
    <glyph glyph-name="circumflex.cap" 
d="M155 767l90 146h76l89 -146h-40l-87 99l-87 -99h-41z" />
    <glyph glyph-name="caron.cap" 
d="M196 913l87 -99l87 99h40l-89 -146h-76l-90 146h41z" />
    <glyph glyph-name="tilde.cap" 
d="M267 817q-23 20 -33.5 26t-20.5 6q-21 0 -32 -18.5t-13 -58.5h-43q0 61 23 95t65 34q18 0 35.5 -8.5t48.5 -35.5q23 -20 33.5 -26t20.5 -6q22 0 33 19.5t12 58.5h43q0 -62 -23 -96t-65 -34q-18 0 -35.5 8.5t-48.5 35.5z" />
    <glyph glyph-name="macron.cap" 
d="M420 790h-274v50h274v-50z" />
    <glyph glyph-name="breve.cap" 
d="M283 765q-58 0 -93.5 40.5t-35.5 107.5h51q0 -46 20 -71t58 -25q37 0 57 24.5t20 71.5h51q0 -68 -35 -108t-93 -40z" />
    <glyph glyph-name="dotaccent.cap" 
d="M318 791h-70v88h70v-88z" />
    <glyph glyph-name="dieresis.cap" 
d="M402 791h-66v88h66v-88zM229 791h-66v88h66v-88z" />
    <glyph glyph-name="ring.cap" 
d="M400 835q0 -49 -34 -84t-83 -35q-48 0 -83 35t-35 84t35 84t83 35q49 0 83 -35t34 -84zM354 835q0 30 -20.5 51t-50.5 21q-29 0 -50.5 -21.5t-21.5 -50.5t21.5 -50.5t50.5 -21.5q30 0 50.5 21t20.5 51z" />
    <glyph glyph-name="hungarumlaut.cap" 
d="M317 769h-34l58 144h80zM176 769h-35l59 144h79z" />
    <glyph glyph-name="guilsinglleft.cap" horiz-adv-x="306" 
d="M134 313l107 -191h-46l-130 191l130 192h46z" />
    <glyph glyph-name="guilsinglright.cap" horiz-adv-x="306" 
d="M65 505h46l130 -192l-130 -191h-46l107 191z" />
    <glyph glyph-name="guillemotleft.cap" horiz-adv-x="491" 
d="M318 313l108 -191h-47l-129 191l129 192h47zM134 313l107 -191h-46l-130 191l130 192h46z" />
    <glyph glyph-name="guillemotright.cap" horiz-adv-x="491" 
d="M65 505h47l129 -192l-129 -191h-47l108 191zM250 505h46l130 -192l-130 -191h-46l107 191z" />
    <glyph glyph-name="slash.cap" horiz-adv-x="492" 
d="M112 -75h-58l326 844h58z" />
    <glyph glyph-name="backslash.cap" horiz-adv-x="492" 
d="M380 -75l-326 844h58l326 -844h-58z" />
    <glyph glyph-name="bar.cap" horiz-adv-x="294" 
d="M120 -75v844h54v-844h-54z" />
    <glyph glyph-name="periodcentered.cap" horiz-adv-x="260" 
d="M173 297h-86v87h86v-87z" />
    <glyph glyph-name="bullet.cap" horiz-adv-x="416" 
d="M209 233q-50 0 -86 35.5t-36 85.5q0 49 36 84.5t86 35.5t85 -35t35 -85t-35 -85.5t-85 -35.5z" />
    <glyph glyph-name="hyphen.cap" horiz-adv-x="449" 
d="M362 311h-275v54h275v-54z" />
    <glyph glyph-name="endash.cap" horiz-adv-x="677" 
d="M590 311h-503v51h503v-51z" />
    <glyph glyph-name="emdash.cap" horiz-adv-x="1003" 
d="M916 311h-829v51h829v-51z" />
    <glyph glyph-name="parenleft.cap" horiz-adv-x="374" 
d="M148 347q0 -106 41.5 -214t119.5 -208h-59q-80 100 -120.5 206.5t-40.5 215.5t41 216t120 206h59q-79 -108 -120 -215t-41 -207z" />
    <glyph glyph-name="parenright.cap" horiz-adv-x="374" 
d="M226 346q0 100 -41 207t-120 215h59q79 -99 120 -206t41 -216t-40.5 -215.5t-120.5 -206.5h-59q78 100 119.5 208t41.5 214z" />
    <glyph glyph-name="bracketleft.cap" horiz-adv-x="386" 
d="M310 720h-147v-746h147v-49h-201v844h201v-49z" />
    <glyph glyph-name="bracketright.cap" horiz-adv-x="386" 
d="M76 768h201v-844h-201v49h147v746h-147v49z" />
    <glyph glyph-name="braceleft.cap" horiz-adv-x="409" 
d="M88 322h-55v50h55q25 0 37.5 13.5t12.5 39.5v245q0 51 25.5 75t79.5 24h90v-49h-85q-32 0 -44 -11t-12 -36v-248q0 -33 -14.5 -51.5t-45.5 -26.5q31 -8 45.5 -26.5t14.5 -51.5v-248q0 -25 12 -36t44 -11h85v-49h-90q-54 0 -79.5 24t-25.5 75v245q0 26 -12.5 39.5
t-37.5 13.5z" />
    <glyph glyph-name="braceright.cap" horiz-adv-x="409" 
d="M321 321q-25 0 -37.5 -13.5t-12.5 -39.5v-245q0 -51 -25.5 -75t-79.5 -24h-90v49h85q32 0 44 11t12 36v248q0 33 14.5 51.5t45.5 26.5q-31 8 -45.5 26.5t-14.5 51.5v248q0 25 -12 36t-44 11h-85v49h90q54 0 79.5 -24t25.5 -75v-245q0 -26 12.5 -39.5t37.5 -13.5h55v-50
h-55v0z" />
    <glyph glyph-name="at.cap" horiz-adv-x="917" 
d="M597 538h54l-51 -290q-6 -32 7 -49.5t43 -17.5q67 0 110 63t43 166q0 127 -87 205t-229 78q-161 0 -265 -106t-104 -268q0 -157 102 -247t268 -90q59 0 116 11t104 31l17 -42q-51 -23 -113 -35.5t-124 -12.5q-189 0 -306 103t-117 282q0 88 31 166t89 137t135.5 90
t166.5 31q163 0 266.5 -94t103.5 -239q0 -122 -61.5 -198t-150.5 -76q-40 0 -68 19.5t-35 52.5q-18 -31 -51 -50t-71 -19q-67 0 -106.5 45.5t-39.5 120.5q0 100 58 171t145 71q37 0 67.5 -20t41.5 -50zM428 191q46 0 82.5 33t47.5 88l7 45q11 64 -12.5 101.5t-73.5 37.5
q-63 0 -106 -56t-43 -133q0 -54 26.5 -85t71.5 -31z" />
    <glyph glyph-name="Euro.lt" horiz-adv-x="660" 
d="M570 199h58q-16 -100 -79 -155.5t-162 -55.5q-107 0 -183.5 73.5t-98.5 198.5h-75v51h68q-1 17 -1.5 27.5t-0.5 19.5q0 8 0.5 17t1.5 26h-68v51h74q22 126 98.5 200t184.5 74q99 0 162 -55.5t79 -154.5h-58q-14 76 -60 115.5t-123 39.5q-87 0 -144.5 -57.5t-76.5 -161.5
h262l-11 -51h-257q-1 -17 -1.5 -26t-0.5 -17q0 -9 0.5 -19.5t1.5 -27.5h236l-11 -51h-218q19 -103 76.5 -160t143.5 -57q76 0 122.5 40t60.5 116z" />
    <glyph glyph-name="dollar.lt" horiz-adv-x="660" 
d="M581 192q0 -83 -63 -139.5t-162 -62.5v-99h-52v100q-107 9 -173 67t-70 150h57q7 -71 55.5 -113t130.5 -50v291l-48 10q-90 19 -131 63t-41 118q0 84 61 139t159 59v94h52v-96q94 -8 147.5 -55t62.5 -129h-57q-7 56 -46.5 89t-106.5 41v-284l55 -11q87 -19 128.5 -63.5
t41.5 -118.5zM141 527q0 -53 29 -81t102 -43l32 -7v275q-75 -4 -119 -43t-44 -101zM524 190q0 54 -32.5 85t-100.5 44l-35 7v-282q77 4 122.5 43.5t45.5 102.5z" />
    <glyph glyph-name="cent.lt" horiz-adv-x="660" 
d="M505 154h54q-12 -72 -59 -114.5t-120 -47.5v-98h-50v99q-94 10 -150.5 80.5t-56.5 180.5q0 108 56.5 179t150.5 82v123h50v-122q72 -5 119.5 -48t59.5 -114h-54q-11 51 -43 80t-82 33v-426q50 4 82 33t43 80zM180 254q0 -88 40 -145t110 -67v424q-70 -11 -110 -68
t-40 -144z" />
    <glyph glyph-name="sterling.lt" horiz-adv-x="660" 
d="M192 54h391v-54h-504v54h11q51 0 83.5 50t32.5 125q0 18 -3 35.5t-9 37.5h-96v51h75q0 1 -15.5 30.5t-23.5 50.5q-8 22 -12 43.5t-4 44.5q0 82 63 143t160 61q102 0 161.5 -60.5t64.5 -165.5h-56q-6 83 -50 127.5t-120 44.5q-73 0 -118 -43.5t-45 -107.5q0 -21 4.5 -42
t14.5 -45q6 -15 19.5 -42t18.5 -39h221v-51h-202q5 -18 7.5 -36.5t2.5 -37.5q0 -52 -19.5 -99t-52.5 -75z" />
    <glyph glyph-name="yen.lt" horiz-adv-x="660" 
d="M572 215v-51h-212v-164h-59v164h-212v51h212v100h-212v52h186l-234 347h66l225 -334h2l219 334h67l-234 -347h187v-52h-213v-100h212z" />
    <glyph glyph-name="florin.lt" horiz-adv-x="660" 
d="M484 404v-46h-127l-84 -468h-57l84 468h-90v46h98l35 197q13 68 53 107.5t98 39.5q15 0 31.5 -3.5t33.5 -9.5v-55q-16 8 -31.5 11.5t-33.5 3.5q-37 0 -61.5 -26.5t-33.5 -77.5l-34 -187h119z" />
    <glyph glyph-name="zero.slash" horiz-adv-x="664" 
d="M332 -12q-122 0 -197.5 102.5t-75.5 266.5t75.5 266.5t197.5 102.5t197.5 -102.5t75.5 -266.5t-75.5 -266.5t-197.5 -102.5zM332 669q-100 0 -156 -83.5t-56 -228.5q0 -87 20.5 -153t60.5 -106l227 546q-21 12 -45 18.5t-51 6.5zM332 45q100 0 156 83.5t56 228.5
q0 85 -20 150.5t-58 105.5l-227 -544q20 -12 43 -18t50 -6z" />
    <glyph glyph-name="zero.lt" horiz-adv-x="660" 
d="M603 357q0 -164 -75.5 -266.5t-197.5 -102.5t-197.5 102.5t-75.5 266.5t75.5 266.5t197.5 102.5t197.5 -102.5t75.5 -266.5zM118 357q0 -145 56 -228.5t156 -83.5t156 83.5t56 228.5t-56 228.5t-156 83.5t-156 -83.5t-56 -228.5z" />
    <glyph glyph-name="zero.slash.lt" horiz-adv-x="660" 
d="M603 357q0 -164 -75.5 -266.5t-197.5 -102.5t-197.5 102.5t-75.5 266.5t75.5 266.5t197.5 102.5t197.5 -102.5t75.5 -266.5zM330 669q-100 0 -156 -83.5t-56 -228.5q0 -87 20.5 -153t60.5 -106l227 546q-21 12 -45 18.5t-51 6.5zM330 45q100 0 156 83.5t56 228.5
q0 85 -20 150.5t-58 105.5l-227 -544q20 -12 43 -18t50 -6z" />
    <glyph glyph-name="one.lt" horiz-adv-x="660" 
d="M373 50h215v-50h-506v50h231v517h-206v42q117 0 168.5 21.5t67.5 86.5h30v-667z" />
    <glyph glyph-name="two.lt" horiz-adv-x="660" 
d="M341 726q98 0 157.5 -58t59.5 -146q0 -45 -18 -84t-56 -75q-29 -28 -86.5 -67.5t-58.5 -39.5q-116 -82 -150 -123.5t-33 -78.5h410v-54h-472v32q0 68 53 134.5t175 143.5q106 70 142 115.5t36 95.5q0 69 -42 109.5t-117 40.5q-74 0 -122 -48t-54 -124h-56
q5 100 68.5 163.5t163.5 63.5z" />
    <glyph glyph-name="three.lt" horiz-adv-x="660" 
d="M421 365q63 -9 104 -57t41 -114q0 -90 -66 -148t-174 -58q-111 0 -178.5 58.5t-75.5 159.5h60q6 -77 57 -121t137 -44q84 0 133 41t49 111q0 66 -45 104.5t-122 38.5h-81v55h78q71 0 110.5 35t39.5 100q0 67 -43 107t-117 40q-77 0 -125.5 -47.5t-53.5 -123.5h-58
q7 102 70.5 163t166.5 61q101 0 161 -56.5t60 -144.5q0 -62 -36.5 -107t-91.5 -53z" />
    <glyph glyph-name="four.lt" horiz-adv-x="660" 
d="M384 714h72v-458h159v-50h-159v-206h-60v206h-354v51zM396 256v390l-290 -390h290z" />
    <glyph glyph-name="five.lt" horiz-adv-x="660" 
d="M516 231q0 84 -49 136t-133 52q-54 0 -97 -23.5t-69 -65.5h-54l39 384h388v-55h-344l-27 -264q25 34 70.5 55.5t92.5 21.5q107 0 174 -68.5t67 -173.5q0 -107 -66.5 -174.5t-173.5 -67.5q-104 0 -172.5 60.5t-76.5 161.5h59q6 -77 58 -123t133 -46q84 0 132.5 52.5
t48.5 137.5z" />
    <glyph glyph-name="six.lt" horiz-adv-x="660" 
d="M353 671q-102 0 -159.5 -96t-57.5 -260q18 71 76 116.5t136 45.5q102 0 167 -68t65 -173q0 -110 -66 -179t-172 -69q-117 0 -189.5 98t-72.5 259q0 168 76.5 274.5t196.5 106.5q92 0 150.5 -51t70.5 -141h-56q-14 69 -55 103t-110 34zM160 233q0 -83 51 -137t131 -54
q81 0 130.5 53t49.5 138q0 84 -49.5 136.5t-130.5 52.5q-80 0 -131 -53t-51 -136z" />
    <glyph glyph-name="seven.lt" horiz-adv-x="660" 
d="M526 660h-451v54h524v-38q-136 -165 -203 -331.5t-68 -344.5h-66q3 165 69.5 331t194.5 329z" />
    <glyph glyph-name="eight.lt" horiz-adv-x="660" 
d="M102 531q0 87 63.5 141t163.5 54q101 0 164 -53.5t63 -141.5q0 -60 -31.5 -103.5t-89.5 -65.5q64 -11 109 -59.5t45 -108.5q0 -92 -71.5 -149t-188.5 -57t-188 57t-71 149q0 60 45 108.5t109 59.5q-59 22 -90.5 66t-31.5 103zM160 533q0 -66 46.5 -103.5t122.5 -37.5
q77 0 123.5 37.5t46.5 103.5q0 65 -46.5 102.5t-123.5 37.5q-76 0 -122.5 -37.5t-46.5 -102.5zM133 191q0 -69 53 -109.5t143 -40.5q91 0 144 40.5t53 109.5q0 68 -53 107.5t-144 39.5q-90 0 -143 -39.5t-53 -107.5z" />
    <glyph glyph-name="nine.lt" horiz-adv-x="660" 
d="M307 43q102 0 159.5 96t57.5 260q-18 -71 -76 -116.5t-136 -45.5q-102 0 -167 68t-65 173q0 110 66 179t172 69q117 0 189.5 -98t72.5 -259q0 -168 -76.5 -274.5t-196.5 -106.5q-92 0 -150.5 51t-70.5 141h56q14 -69 55 -103t110 -34zM500 481q0 83 -51 137t-131 54
q-81 0 -130.5 -53t-49.5 -138q0 -84 49.5 -136.5t130.5 -52.5q80 0 131 53t51 136z" />
    <glyph glyph-name="period.tab" horiz-adv-x="330" 
d="M208 0h-86v87h86v-87z" />
    <glyph glyph-name="comma.tab" horiz-adv-x="330" 
d="M160 0h-37v87h86v-108q0 -59 -33.5 -94.5t-90.5 -35.5v40q38 0 56.5 22t18.5 68v21z" />
    <glyph glyph-name="colon.tab" horiz-adv-x="330" 
d="M208 348h-86v87h86v-87zM208 0h-86v87h86v-87z" />
    <glyph glyph-name="semicolon.tab" horiz-adv-x="330" 
d="M160 0h-37v87h86v-108q0 -59 -33.5 -94.5t-90.5 -35.5v40q38 0 56.5 22t18.5 68v21zM209 348h-86v87h86v-87z" />
    <glyph glyph-name="space.tab" horiz-adv-x="330" 
 />
    <glyph glyph-name="zero.dnom" horiz-adv-x="410" 
d="M364 196q0 -90 -44.5 -146.5t-115.5 -56.5q-70 0 -114 56.5t-44 146.5t43.5 147t114.5 57t115.5 -57t44.5 -147zM101 196q0 -73 27 -115t76 -42q50 0 77.5 41.5t27.5 115.5q0 75 -27.5 116.5t-77.5 41.5q-49 0 -76 -42t-27 -116z" />
    <glyph glyph-name="one.dnom" horiz-adv-x="327" 
d="M201 43h104v-43h-261v43h103v251h-101v40q61 0 87 11.5t35 47.5h33v-350z" />
    <glyph glyph-name="two.dnom" horiz-adv-x="352" 
d="M181 399q57 0 93 -33t36 -82q0 -25 -9.5 -46.5t-29.5 -40.5q-11 -10 -24.5 -20.5t-56.5 -37.5q-51 -31 -71.5 -52.5t-20.5 -41.5h223v-45h-282v23q0 40 27.5 76t97.5 80q57 36 75.5 58t18.5 47q0 32 -21 51t-57 19t-59 -23.5t-25 -59.5h-52q3 57 40.5 92.5t96.5 35.5z
" />
    <glyph glyph-name="three.dnom" horiz-adv-x="370" 
d="M245 196q36 -5 58 -30t22 -60q0 -50 -38 -81.5t-101 -31.5q-64 0 -103 32.5t-44 88.5h52q3 -36 28.5 -57t66.5 -21q40 0 63.5 19.5t23.5 52.5q0 31 -22 49t-60 18h-41v43h39q34 0 54 17.5t20 48.5q0 32 -21 52t-56 20q-37 0 -60 -22.5t-25 -58.5h-51q3 56 40 90.5
t96 34.5t94 -32t35 -83q0 -34 -19.5 -59t-50.5 -30z" />
    <glyph glyph-name="four.dnom" horiz-adv-x="401" 
d="M223 391h61v-251h82v-42h-82v-98h-52v98h-195v43zM232 140v197l-144 -197h144z" />
    <glyph glyph-name="five.dnom" horiz-adv-x="371" 
d="M274 128q0 41 -23 65.5t-63 24.5q-26 0 -46.5 -10.5t-33.5 -30.5h-49l21 215h227v-45h-186l-13 -122q13 16 36.5 26t48.5 10q60 0 97 -37t37 -96t-38.5 -97t-100.5 -38t-101.5 33.5t-44.5 90.5h56q2 -36 27 -58.5t63 -22.5q40 0 63 25t23 67z" />
    <glyph glyph-name="six.dnom" horiz-adv-x="380" 
d="M202 355q-49 0 -77 -45.5t-28 -121.5q11 33 40 53t67 20q58 0 94.5 -36.5t36.5 -94.5q0 -60 -38.5 -98.5t-99.5 -38.5q-67 0 -109 54t-42 142q0 93 43.5 152t112.5 59q53 0 87.5 -29t42.5 -80h-50q-8 32 -27.5 48t-52.5 16zM109 128q0 -40 25 -66t63 -26q39 0 63.5 26
t24.5 66t-24.5 65.5t-63.5 25.5t-63.5 -25.5t-24.5 -65.5z" />
    <glyph glyph-name="seven.dnom" horiz-adv-x="350" 
d="M253 347h-220v44h278v-39q-65 -79 -95 -162.5t-31 -189.5h-57q1 94 32.5 181.5t92.5 165.5z" />
    <glyph glyph-name="eight.dnom" horiz-adv-x="388" 
d="M343 107q0 -52 -41 -83t-109 -31q-67 0 -107.5 31.5t-40.5 82.5q0 33 24 60t57 33q-30 12 -47 35.5t-17 54.5q0 49 37 79.5t94 30.5q58 0 95 -30.5t37 -79.5q0 -31 -16.5 -54.5t-46.5 -35.5q33 -6 57 -33t24 -60zM275 290q0 31 -22 49t-60 18q-37 0 -59 -18t-22 -49
q0 -32 22.5 -50.5t58.5 -18.5q37 0 59.5 18.5t22.5 50.5zM289 108q0 34 -25.5 53t-70.5 19q-44 0 -69 -19.5t-25 -52.5q0 -34 25.5 -53.5t68.5 -19.5q45 0 70.5 19.5t25.5 53.5z" />
    <glyph glyph-name="nine.dnom" horiz-adv-x="380" 
d="M179 38q49 0 77.5 45.5t28.5 121.5q-12 -34 -41.5 -54t-67.5 -20q-57 0 -93.5 38t-36.5 95q0 60 38.5 98t99.5 38q67 0 109 -54t42 -142q0 -93 -44 -152t-113 -59q-53 0 -87 29t-42 80h51q7 -33 26.5 -48.5t52.5 -15.5zM273 265q0 40 -25 65.5t-64 25.5t-63 -25.5
t-24 -65.5q0 -42 23.5 -67t63.5 -25q39 0 64 25.5t25 66.5z" />
    <glyph glyph-name="percent.lt" horiz-adv-x="660" 
d="M172 416q-64 0 -109 45.5t-45 109.5t45 109.5t109 45.5q65 0 110.5 -45t45.5 -110t-45.5 -110t-110.5 -45zM66 1l450 713h62l-450 -713h-62zM172 675q-42 0 -71.5 -30.5t-29.5 -73.5q0 -44 29.5 -74t71.5 -30q43 0 72.5 30t29.5 74t-29.5 74t-72.5 30zM486 -13
q-64 0 -109 45t-45 109q0 65 45 110.5t109 45.5q65 0 110.5 -45.5t45.5 -110.5q0 -64 -45.5 -109t-110.5 -45zM486 246q-42 0 -71.5 -30.5t-29.5 -74.5q0 -43 29.5 -73t71.5 -30q43 0 72.5 29.5t29.5 73.5t-29.5 74.5t-72.5 30.5z" />
    <glyph glyph-name="thinspace" horiz-adv-x="65" 
 />
    </font>
</defs>
</svg>
