<?xml version="1.0" encoding="UTF-8" ?>
<!DOCTYPE svg PUBLIC "-//W3C//DTD SVG 1.1//EN" "http://www.w3.org/Graphics/SVG/1.1/DTD/svg11.dtd">
<svg width="200pt" height="200pt" viewBox="0 0 200 200" version="1.1" xmlns="http://www.w3.org/2000/svg">
<g id="#ead2b9ff">
<path fill="#ead2b9" opacity="1.00" d=" M 1.86 39.05 C 12.44 27.50 24.33 17.15 34.70 5.43 C 35.20 16.64 34.86 27.89 34.89 39.12 C 23.88 39.07 12.87 39.19 1.86 39.05 Z" />
<path fill="#ead2b9" opacity="1.00" d=" M 41.95 59.91 C 52.56 52.12 65.84 47.84 79.05 49.02 C 94.54 49.86 109.19 58.03 119.04 69.85 C 107.59 82.85 101.96 99.93 100.25 116.95 C 99.53 103.23 92.71 89.47 81.04 81.86 C 74.63 77.54 66.51 76.03 58.93 77.37 C 51.51 78.38 45.08 82.85 39.90 88.04 C 39.89 79.65 39.86 71.26 39.90 62.86 C 39.63 61.45 41.09 60.70 41.95 59.91 Z" />
<path fill="#ead2b9" opacity="1.00" d=" M 100.32 126.37 C 100.56 126.42 101.03 126.53 101.27 126.58 C 100.72 134.05 102.90 141.31 105.13 148.34 C 108.18 157.27 113.03 165.52 119.06 172.76 C 108.11 185.33 91.89 193.97 74.97 193.51 C 62.53 193.78 50.31 188.95 40.56 181.40 C 40.41 181.11 40.11 180.53 39.96 180.23 C 39.75 171.49 40.00 162.74 39.85 154.00 C 44.73 159.82 51.71 163.71 59.12 165.24 C 68.03 166.82 77.35 163.92 84.25 158.20 C 93.24 151.02 98.37 139.93 100.10 128.73 L 100.14 127.72 C 100.19 127.38 100.28 126.71 100.32 126.37 Z" />
</g>
<g id="#254235ff">
<path fill="#254235" opacity="1.00" d=" M 1.45 193.53 C 1.46 145.27 1.44 97.01 1.46 48.75 C 12.62 48.75 23.78 48.75 34.94 48.75 C 34.94 97.02 34.95 145.28 34.93 193.55 C 23.77 193.53 12.61 193.56 1.45 193.53 Z" />
<path fill="#254235" opacity="1.00" d=" M 119.20 69.65 C 129.07 58.49 142.88 50.20 157.96 49.16 C 172.41 47.61 187.27 52.38 198.36 61.69 C 198.28 70.52 198.35 79.36 198.32 88.19 C 191.48 80.63 181.28 75.83 170.96 77.10 C 162.13 77.73 154.18 82.87 148.58 89.52 C 142.33 96.95 138.99 106.42 137.83 115.96 C 136.16 99.17 130.32 82.55 119.20 69.65 Z" />
<path fill="#254235" opacity="1.00" d=" M 126.15 163.09 C 133.07 152.00 136.45 139.11 137.80 126.20 C 139.00 136.90 143.08 147.54 150.73 155.28 C 156.35 161.00 163.91 165.11 172.00 165.60 C 181.96 166.33 191.82 161.56 198.33 154.16 C 198.30 163.11 198.35 172.06 198.30 181.01 C 188.29 188.84 175.77 193.92 162.93 193.56 C 146.12 193.92 130.17 185.26 119.18 172.90 C 121.57 169.68 124.04 166.51 126.15 163.09 Z" />
</g>
<g id="#1120197f">
<path fill="#112019" opacity="0.50" d=" M 119.04 69.85 L 119.20 69.65 C 130.32 82.55 136.16 99.17 137.83 115.96 C 137.80 119.37 137.75 122.79 137.80 126.20 C 136.45 139.11 133.07 152.00 126.15 163.09 C 124.04 166.51 121.57 169.68 119.18 172.90 L 119.06 172.76 C 113.03 165.52 108.18 157.27 105.13 148.34 C 102.90 141.31 100.72 134.05 101.27 126.58 C 101.03 126.53 100.56 126.42 100.32 126.37 L 99.96 126.30 C 100.63 123.20 100.48 120.07 100.25 116.95 C 101.96 99.93 107.59 82.85 119.04 69.85 Z" />
</g>
</svg>
